<?xml version="1.0" encoding="UTF-8"?>
<svg id="Layer_2" data-name="Layer 2" xmlns="http://www.w3.org/2000/svg" viewBox="0 0 342.35 52.61">
  <defs>
    <style>
      .cls-1 {
        fill: #baa25b;
      }

      .cls-2 {
        fill: #4a892c;
      }
    </style>
  </defs>
  <g id="Layer_1-2" data-name="Layer 1">
    <path class="cls-1" d="M39.93,0H5.71C2.57,0,0,2.62,0,5.82V40.77c0,3.2,2.57,5.82,5.71,5.82H39.93c3.14,0,5.7-2.62,5.7-5.82V5.82c0-3.2-2.57-5.82-5.7-5.82Zm-15.69,17.45c0-1.61,1.27-2.91,2.85-2.91s2.85,1.3,2.85,2.91-1.27,2.92-2.85,2.92-2.85-1.3-2.85-2.92Zm1.43,5.83c0,1.61-1.27,2.91-2.85,2.91s-2.86-1.3-2.86-2.91,1.27-2.91,2.86-2.91,2.85,1.32,2.85,2.91Zm-2.85-14.57c1.58,0,2.85,1.3,2.85,2.91s-1.27,2.91-2.85,2.91-2.86-1.29-2.86-2.91,1.27-2.91,2.86-2.91Zm-1.43,8.74c0,1.62-1.27,2.92-2.85,2.92s-2.85-1.3-2.85-2.92,1.26-2.91,2.85-2.91,2.85,1.3,2.85,2.91Zm-7.13-8.74c1.59,0,2.85,1.3,2.85,2.91s-1.26,2.91-2.85,2.91-2.85-1.29-2.85-2.91,1.27-2.91,2.85-2.91Zm0,29.16c-1.58,0-2.85-1.33-2.85-2.92s1.27-2.92,2.85-2.92,2.85,1.3,2.85,2.92-1.26,2.92-2.85,2.92Zm1.43-8.77c0-1.59,1.26-2.91,2.85-2.91s2.85,1.32,2.85,2.91-1.27,2.94-2.85,2.94-2.85-1.32-2.85-2.94Zm7.13,8.77c-1.59,0-2.86-1.33-2.86-2.92s1.27-2.92,2.86-2.92,2.85,1.3,2.85,2.92-1.27,2.92-2.85,2.92Zm1.42-8.77c0-1.59,1.27-2.91,2.85-2.91s2.85,1.32,2.85,2.91-1.27,2.94-2.85,2.94-2.85-1.32-2.85-2.94Zm7.13,8.77c-1.59,0-2.85-1.33-2.85-2.92s1.27-2.92,2.85-2.92,2.85,1.3,2.85,2.92-1.27,2.92-2.85,2.92Zm0-23.34c-1.59,0-2.85-1.29-2.85-2.91s1.27-2.91,2.85-2.91,2.85,1.3,2.85,2.91-1.27,2.91-2.85,2.91Z"/>
    <path class="cls-2" d="M78.41,43.68V9.03h-9.19V43.68h-6.46V2.91h22.09V43.68h-6.43Zm50.46,0V27.19h-.53l-8.94,16.49h-6.16V14.56h6.44V31.96h.5l8.97-17.41h6.15v29.12h-6.43Zm31.17,0v-15.04h-.75l-4.32,7.99h-3.65l-4.35-7.99h-.72v15.04h-6.46V14.56h5.79l7.27,14.51h.58l7.25-14.51h5.79v29.12h-6.43Zm150.26,0v-11.97h-7.36v11.97h-6.43V14.56h6.43v11.04h7.36V14.56h6.43v29.12h-6.43Zm25.65,0l-1.51-8.36c-.33-1.99-2.26-3.61-4.23-3.61h-3.01v11.97h-6.44V14.56h6.44v11.49h1.89c1.98,0,3.93-1.59,4.32-3.58l1.59-7.91h6.41l-2.09,9.19c-.39,1.68-1.84,3.24-3.57,3.9l-.31,.11v.65l.36,.08c2.09,.37,3.9,2.13,4.32,4.15l2.23,11.03h-6.41ZM206.13,19.96c-2.37,0-3.71,1.45-3.71,3.98v10.35c0,2.53,1.34,3.98,3.71,3.98s3.68-1.45,3.68-3.98v-10.35c0-2.53-1.34-3.98-3.68-3.98Zm0,24.18c-6.16,0-10.14-3.67-10.14-9.39v-11.26c0-5.72,3.98-9.42,10.14-9.42s10.11,3.7,10.11,9.42v11.26c0,5.72-3.95,9.39-10.11,9.39Zm78.13-12.91c-4.48,0-4.85,1.4-4.85,3.53,0,3.27,1.62,3.73,2.98,3.73,.5,0,1.03-.09,1.67-.26,2.09-.6,3.04-1.73,3.09-1.79l.08-.34v-4.86h-2.98Zm-4.4,12.91c-4.63,0-6.88-2.96-6.88-9.04s3.09-9.04,9.19-9.04h4.6v-2.56c0-3.7-1.81-4.01-3.68-4.01s-3.34,1.25-4.24,3.7l-5.65-1.53c1.75-4.81,5.32-7.57,9.89-7.57s10.11,1.59,10.11,9.16v.48h.03v19.96h-5.6l-.56-3.16-.64,.68s-2.73,2.93-6.57,2.93Zm-41.75,5.37v-5.82h-18.41V14.56h6.43v23.01h7.38V14.56h6.44v23.01h3.68l-.44,11.94h-5.07ZM99.17,19.68c-.22,0-.42,.03-.64,.06-2.23,.31-3.09,2.31-3.12,2.39l-.03,.08v14.11l.11,.11c.61,.77,2.17,1.62,3.57,1.62,2.37,0,3.68-1.34,3.68-3.75v-11.29c0-1.91-1.53-3.33-3.57-3.33Zm-9.78,32.94V14.56h5.6l.59,3.27,.61-.82s2.28-2.93,6.1-2.93c4.63,0,6.88,2.96,6.88,9.05v13.06c0,4.55-2.7,7.51-6.88,7.51-2.98,0-5.71-1.9-5.74-1.93l-.73-.51v11.38h-6.43Zm104.09-19.62c0,6.08-3.28,11.14-11.45,11.14-6.95,0-11.44-4.14-11.44-10.59V13.27c0-6.45,4.49-10.62,11.44-10.62,8.23,0,11.1,5.63,11.1,11.6l-6.56,.73c-.17-2.48-.71-6.44-4.74-6.44-3.04,0-4.77,1.89-4.77,5.18v19.17c0,3.44,1.82,5.41,4.99,5.41,4.23,0,4.82-3.27,5.02-6.01l6.42,.73Zm65.99-15.52h-5.99V9.03h14.63V2.91h-21.09V43.68h12.45c8.18,0,11-5.27,11-13.1s-2.82-13.1-11-13.1Zm-1.27,20.09h-4.72v-13.98h4.72c5.02,0,5.42,2.08,5.42,6.99s-.4,6.99-5.42,6.99Z"/>
  </g>
</svg>