<svg width="253" height="158" viewBox="0 0 253 158" fill="none" xmlns="http://www.w3.org/2000/svg">
<g clip-path="url(#clip0_179_236)">
<path d="M189.787 72.8422H261.126V88.7786H173.851L189.787 72.8422ZM105.982 88.7786H49.5041L96.2969 41.9881C104.67 33.6128 115.803 29 127.649 29H169.064L111.619 86.4461C110.88 87.1879 110.002 87.776 109.034 88.1763C108.066 88.5766 107.029 88.7813 105.982 88.7786Z" fill="black" fill-opacity="0.15"/>
<path d="M254.15 162.512H54.8601C37.2918 162.512 22.9996 148.221 22.9996 130.644C22.9996 120.737 26.8566 111.426 33.8604 104.421L35.5514 102.731H105.982C111.834 102.731 117.339 100.453 121.482 96.3144L188.795 29H254.15C258.003 29 261.126 32.1231 261.126 35.9764V58.8895H186.897C185.047 58.8895 183.272 59.6253 181.964 60.9331L152.075 90.8245C151.099 91.8002 150.435 93.0432 150.166 94.3963C149.897 95.7494 150.035 97.1519 150.563 98.4265C151.091 99.7011 151.985 100.791 153.132 101.557C154.279 102.324 155.628 102.733 157.008 102.733H261.126V155.535C261.126 159.389 258.003 162.512 254.15 162.512ZM29.9759 192.403H90.7958C87.0972 187.761 84.5771 182.292 83.4506 176.464H155.841C154.716 182.292 152.196 187.761 148.497 192.403H195.411C191.78 187.841 189.21 182.404 188.065 176.464H260.454C259.309 182.404 256.738 187.841 253.109 192.403H254.15C258.003 192.403 261.126 195.526 261.126 199.379C261.126 203.231 258.003 206.356 254.15 206.356H29.9759C26.1226 206.356 22.9996 203.231 22.9996 199.379C22.9996 195.526 26.1226 192.403 29.9759 192.403Z" fill="black" fill-opacity="0.15"/>
</g>
<defs>
<clipPath id="clip0_179_236">
<rect x="0.380859" y="0.872314" width="252.131" height="157.128" rx="25" fill="black"/>
</clipPath>
</defs>
</svg>
