<svg width="223" height="186" viewBox="0 0 223 186" fill="none" xmlns="http://www.w3.org/2000/svg">
<g clip-path="url(#clip0_222_7819)">
<path d="M125.452 74.148H102.052V102.344H125.452C133.225 102.344 139.55 96.0195 139.55 88.2462C139.55 80.4729 133.226 74.148 125.452 74.148Z" fill="black" fill-opacity="0.15"/>
<path d="M190.325 32.6756C146.761 -10.8881 76.2457 -10.8946 32.6759 32.6756C-10.8882 76.2388 -10.8951 146.755 32.6759 190.325C76.2396 233.888 146.755 233.895 190.325 190.325C233.888 146.761 233.895 76.2454 190.325 32.6756ZM125.452 120.656H102.053V130.249H120.801C125.858 130.249 129.958 134.348 129.958 139.405C129.958 144.462 125.858 148.561 120.801 148.561H102.053V158.008C102.053 163.065 97.9532 167.165 92.8963 167.165C87.8394 167.165 83.74 163.065 83.74 158.008V148.561H74.2932C69.2363 148.561 65.1369 144.462 65.1369 139.405C65.1369 134.348 69.2363 130.249 74.2932 130.249H83.74V120.656H74.2932C69.2363 120.656 65.1369 116.557 65.1369 111.5C65.1369 106.443 69.2363 102.344 74.2932 102.344H83.74V64.9913C83.74 59.9344 87.8394 55.835 92.8963 55.835H125.452C143.323 55.835 157.863 70.3744 157.863 88.2454C157.863 106.117 143.324 120.656 125.452 120.656Z" fill="black" fill-opacity="0.15"/>
</g>
<defs>
<clipPath id="clip0_222_7819">
<rect width="223" height="223" fill="black"/>
</clipPath>
</defs>
</svg>
