<svg xmlns="http://www.w3.org/2000/svg" viewBox="0 0 191.29 42.51"><defs><style>.cls-1{fill:#466bf1;}</style></defs><g id="Layer_2" data-name="Layer 2"><g id="Layer_1-2" data-name="Layer 1"><path class="cls-1" d="M79.8,20.82v-.17a4.34,4.34,0,0,0,2.53-4.19,4.55,4.55,0,0,0-4.85-4.75,13.15,13.15,0,0,0-3.57.46l0,3.93a5.14,5.14,0,0,1,2.25-.51A1.63,1.63,0,0,1,78,17.26,1.81,1.81,0,0,1,76.14,19H74.39v3.88H76c1.4,0,2,.67,2,1.69a1.73,1.73,0,0,1-1.85,1.72,5.93,5.93,0,0,1-2.72-.56l-.07,3.76a7.31,7.31,0,0,0,3.88.95,5,5,0,0,0,5.3-5.31A4.19,4.19,0,0,0,79.8,20.82Z"/><polygon class="cls-1" points="60.53 12.02 52.14 12.02 52.14 30.1 56.3 30.1 56.3 16.53 60.53 16.53 60.53 12.02"/><path class="cls-1" d="M103.5,12H98V30.1h4.09v-6h1.37c4,0,5.3-3.73,5.3-6.11S107.35,12,103.5,12Zm-.4,8.15h-1V16h1c.92,0,1.51.58,1.51,2.08C104.61,20,103.62,20.17,103.1,20.17Z"/><path class="cls-1" d="M63.56,12,60.06,30.1H64.2L64.72,27h2.86l.49,3.12h4.14L68.71,12Zm1.79,11,.78-5.52h0L66.91,23Z"/><polygon class="cls-1" points="84.53 30.1 88.62 30.1 88.62 16.39 91.6 16.39 91.6 30.1 95.69 30.1 95.69 12.02 84.53 12.02 84.53 30.1"/><path class="cls-1" d="M155.36,12.05l-3.52,18.08H156l.5-3.13h2.86l.5,3.13H164l-3.5-18.08Zm1.8,11,.78-5.5h0l.76,5.5Z"/><path class="cls-1" d="M116.36,11.76c-4.84,0-6.47,4.65-6.47,9.28s1.63,9.28,6.47,9.28,6.48-4.65,6.48-9.28S121.21,11.76,116.36,11.76Zm0,14.17c-1.44,0-2.17-1.71-2.17-4.89s.73-4.89,2.17-4.89,2.18,1.71,2.18,4.89S117.81,25.93,116.36,25.93Z"/><polygon class="cls-1" points="187.71 20.61 190.84 12.02 186.48 12.02 184.19 18.52 183.31 18.52 183.34 12.02 179.32 12.02 179.32 30.1 183.34 30.1 183.31 22.83 184.26 22.83 186.58 30.1 191.28 30.1 187.71 20.61"/><polygon class="cls-1" points="172.63 18.55 169.77 18.55 169.77 12.02 165.77 12.02 165.77 30.1 169.77 30.1 169.77 22.86 172.63 22.86 172.63 30.1 176.62 30.1 176.62 12.03 172.63 12.03 172.63 18.55"/><polygon class="cls-1" points="131.36 16.29 128.29 12.02 124.81 12.02 124.81 30.1 128.9 30.1 128.9 19.08 131.36 22.23 133.82 19.08 133.82 30.1 137.91 30.1 137.91 12.02 134.46 12.02 131.36 16.29"/><path class="cls-1" d="M145.41,18.76h-.74v-2.4h5.42V12h-9.41V30.1h4.87c1.06,0,5.48-.46,5.51-5.94C151.06,19.57,147.63,18.76,145.41,18.76Zm-.15,7.71h-.59v-4.1h.59c.5,0,1.78,0,1.78,1.89S145.76,26.47,145.26,26.47Z"/><path class="cls-1" d="M1,21.27A20,20,0,0,0,20.77,41.45a20,20,0,0,0,19.7-20.18c0-11.14-8.84-20.21-19.7-20.21A20,20,0,0,0,1,21.27Zm-1,0A21,21,0,0,1,20.77,0C32.2,0,41.51,9.53,41.51,21.27S32.19,42.51,20.77,42.51A21,21,0,0,1,0,21.27Z"/><path class="cls-1" d="M14.57,7.84a11.43,11.43,0,0,0-2,1.18c4.94-2.25,11-2.1,14.21-.63,1,.49,1.7.78,2,1.36a21.72,21.72,0,0,0-7.61-1A28.45,28.45,0,0,0,9.79,11.67L8.9,12.81c2.93-1.78,8.39-2.94,11.42-3a22.51,22.51,0,0,1,8.42,1.16,1.84,1.84,0,0,1-1,1.26c-9.65-1.72-15.35.31-20.51,3.75l-.37,1.14a25.89,25.89,0,0,1,19.58-3.95c-2.44.88-5.35,1.07-7.78,1.65a45.3,45.3,0,0,0-6,1.58c-2.81.94-4.47,1.91-5.51,3.15a3.85,3.85,0,0,0-1,2,2.49,2.49,0,0,0,.12,1.22,3.27,3.27,0,0,0,.66,1,2.1,2.1,0,0,0-.14,2.2,4.57,4.57,0,0,0,1.28,1.22L8,27.59a2.31,2.31,0,0,0,.19,1.62,5.61,5.61,0,0,0,2.34,2.11,3.41,3.41,0,0,0,1,1.89,13.63,13.63,0,0,0,8.71,3.66,13.81,13.81,0,0,0,7.14-1.36l1.18-.62A19.8,19.8,0,0,1,20.41,36c-4-.34-7.61-3-8.06-3.8.14.09.33.16.49.24,4.71,2.32,10.79,3.59,18.57.34l.64-.63C25,34.35,18.78,34.28,12.13,30.72a1.44,1.44,0,0,1,.52-.87A24.58,24.58,0,0,0,18,31.66a32.25,32.25,0,0,0,7.14.44,26.16,26.16,0,0,0,8.61-2.33c.19-.17.28-.46.47-.65a31.12,31.12,0,0,1-11.68,2A22.32,22.32,0,0,1,13.89,29c.63-.26,1.3-.48,2-.68a27.42,27.42,0,0,0,7,1.22,26.5,26.5,0,0,0,12.51-3.25c.12-.34.24-.7.24-.7a26.66,26.66,0,0,1-11.35,2.91,22.24,22.24,0,0,1-5.82-.73c2.84-.53,6.41-1,10.43-2A16.14,16.14,0,0,0,34.55,23,3.64,3.64,0,0,0,36,19.74a2.32,2.32,0,0,0-1-1.34,2,2,0,0,0,.38-1.69A3.26,3.26,0,0,0,35,15.57,4.09,4.09,0,0,0,33.7,14.4a2.43,2.43,0,0,0-.19-1.5,6.65,6.65,0,0,0-2.93-2.42A2.89,2.89,0,0,0,30,9.34a11.68,11.68,0,0,0-7.78-3h-.45A17.18,17.18,0,0,0,14.57,7.84Zm15.14,4.85a3.09,3.09,0,0,0,.68-1,3.15,3.15,0,0,1,1.52,1.77,21.93,21.93,0,0,0-2.2-.75Zm.59,3a33,33,0,0,0-3.46-.94,6.59,6.59,0,0,0,1.83-1,20.47,20.47,0,0,1,2.86,1c-.14.21-1,1-1.2,1Zm2.06.85a5.54,5.54,0,0,0,.85-.83c.64.56.82.95.52,1.56A8.15,8.15,0,0,0,32.36,16.49Zm-24.29,6C6.32,20,12.4,18.26,13.56,17.9a59.23,59.23,0,0,1,9.53-2,11.7,11.7,0,0,1,5.32.54C23.18,17.9,18,18.35,13.11,19.83,9.14,21,8.09,22.5,8.07,22.5Zm1.3,1.19c1.84-1.6,5.61-2.5,7-2.81,4.37-1,8.44-1.58,10.12-2a24.51,24.51,0,0,0,4.44-1.48,7.17,7.17,0,0,1,1.82.91,6.38,6.38,0,0,1-2.12,1.14,59.75,59.75,0,0,1-9.39,2.26,69.51,69.51,0,0,0-7.1,1.45,10.75,10.75,0,0,0-3.33,1.41A9,9,0,0,1,9.37,23.69Zm3.43,1.94a17.35,17.35,0,0,1,2.46-.83c4.16-1,7.83-1.23,12.89-2.64a15.55,15.55,0,0,0,5.32-2.23c.16-.15.33-.27.49-.41,1.47,2.32-4,4.12-7.8,4.95q-3,.59-5.91,1.13a32.1,32.1,0,0,0-5,1.14A26.62,26.62,0,0,1,12.8,25.63ZM8.37,24.9c.38.24.67.44,1.12.68-.17.14-.38.29-.55.46-.37-.22-.75-.7-.57-1.14Zm2,2.23a6.35,6.35,0,0,1,.87-.65c.71.34,1.45.65,2.13,1A8.13,8.13,0,0,0,12,28.1c-.57-.32-1.13-.64-1.68-1Zm-.62,1.18c.41.27.81.49,1.21.71a2.32,2.32,0,0,0-.35.68C10,29.19,9.7,28.78,9.72,28.31Z"/></g></g></svg>