<svg id="Слой_1" xmlns="http://www.w3.org/2000/svg" viewBox="0 0 300 63"><style>.st0{fill-rule:evenodd;clip-rule:evenodd}.st0,.st1{fill:#50b748}</style><path id="XMLID_34_" class="st0" d="M26.7.1v14.2L38.2.1H26.7z"/><path id="XMLID_33_" class="st0" d="M1.8 6.9c.8-1.3 1.7-2.3 2.9-3.3l.9-.6c.9-.5 1.6-.8 2.6-1 .6-.1 1.1-.2 1.7-.2.8 0 1.5.1 2.3.3.5.2 1 .4 1.6.6 1.2.7 2.1 1.4 3 2.4l.6.9c1 1.5 1.6 2.9 2.1 4.6l.3 1.1c0 .2.1.4.1.5V.1H0v12.1c.2-1.3.6-3.1 1.2-4.4l.6-.9z"/><path id="XMLID_32_" class="st0" d="M46.5 2.1L26.7 26.4V32c0-.2.1-.4.1-.5l.3-1.1c.5-1.7 1.1-3.1 2.1-4.6l.7-.9c.8-.8 1.5-1.5 2.5-2.1.5-.3 1-.5 1.5-.7 1.2-.4 2.2-.5 3.4-.5l1.1.2c1 .2 1.7.6 2.6 1 .5.3.9.6 1.3 1 1.3 1.2 2.2 2.4 3 3.9l.4 1c.4 1 .6 2.4.8 3.4v-30z"/><path class="st0" d="M36.6 42.4c-2.8 0-5.1-3.6-5.1-8s2.3-8 5.1-8 5.1 3.6 5.1 8-2.3 8-5.1 8zm0-18c-4 0-7.2 4.5-7.2 10s3.2 10 7.2 10 7.2-4.5 7.2-10-3.2-10-7.2-10z"/><path id="XMLID_29_" class="st0" d="M27 38.6l-.3-1.2c0-.2-.1-.4-.1-.5V49h19.8V37c-.3 1.3-.6 3-1.2 4.3l-.5 1c-.8 1.3-1.7 2.3-2.9 3.3l-.9.6c-.9.5-1.6.8-2.6 1-.6.1-1.1.2-1.7.2-.8 0-1.5-.1-2.3-.3-.5-.2-1-.4-1.6-.6-1.2-.7-2.1-1.4-3-2.4l-.7-.9c-.9-1.4-1.5-2.9-2-4.6z"/><path id="XMLID_28_" class="st0" d="M19.8 17.2c0 .2-.1.4-.1.5l-.3 1.1c-.5 1.7-1.1 3.1-2.1 4.6l-.7.9c-.8.8-1.5 1.5-2.5 2.1-.5.3-1 .5-1.5.7-1.2.4-2.2.5-3.4.5l-1.1-.2c-1-.2-1.7-.6-2.6-1-.5-.3-.9-.6-1.3-1-1.3-1.2-2.2-2.4-3-3.9-.6-1.4-1-2.8-1.2-4.3v29.9l19.8-24.4v-5.5z"/><path class="st0" d="M9.9 22.7c-2.8 0-5.1-3.6-5.1-7.9 0-4.4 2.3-8 5.1-8s5.1 3.6 5.1 8c-.1 4.3-2.3 7.9-5.1 7.9zm0-18c-4 0-7.2 4.5-7.2 10s3.2 10 7.2 10 7.2-4.5 7.2-10-3.3-10-7.2-10z"/><path id="XMLID_25_" class="st0" d="M19.8 34.8L8.3 49.1h11.5V34.8z"/><path id="XMLID_24_" class="st0" d="M45.9.1h-5.6L.6 49.1h5.5L45.9.1z"/><path id="XMLID_23_" class="st0" d="M25 49.1h-3.4v-3.4H25v3.4z"/><path id="XMLID_22_" class="st0" d="M48.2 45.7v3.4c2.3 0 4.2 1.9 4.2 4.2 0 2.3-1.9 4.2-4.2 4.2-1.7 0-3.3-.4-6.5-1.2-6.3-1.5-14-3.4-20.2-5C10.3 48.5 0 51.6 0 58.8h3.4c0-2.7 5.2-4.5 16.4-1.7 9.7 2.4 13.3 3.3 20.6 5 4.8 1.2 8.7.9 11.6-.5 2.8-1.4 4.8-4.3 4.8-7.6-.1-4.5-3.9-8.3-8.6-8.3z"/><path id="XMLID_21_" class="st1" d="M165.4 41.6h9.9v-4.7h-9.9v4.7z"/><path class="st1" d="M218.5 33.8h-9.4v-9.2h-5.3V49h5.3V38.5h9.4v10.6h5.3V24.6h-5.3v9.2zM183.3 40V24.6H178V49h4.1l12.3-15.5V49h5.3V24.6h-4.1L183.3 40zm93-15.9c-3.4 0-6.5.9-9 3.2-2.1 1.9-3.9 5.1-3.9 9.5 0 3.6 1.1 6.6 3.9 9.3 2 1.9 4.7 3.4 8.9 3.4 2.6 0 4.6-.7 6-1.4l.2-.1v-6.5l-.6.7c-1.3 1.6-3.2 2.5-5.3 2.5-1.9 0-3.9-.7-5.3-2-1.5-1.3-2.4-3.3-2.4-5.8 0-2.1.8-4.1 2.1-5.6s3.2-2.4 5.5-2.4c.8 0 3.4.2 5.5 2.6l.6.6v-6.5l-.2-.1c-2.2-1.1-4.3-1.4-6-1.4zM157.5 34.9c-.9.7-1.9.7-2.8.7h-1.6v-6.4h1.3c1.1 0 2.2.1 3.1.7.6.5 1.2 1.2 1.2 2.5 0 .9-.4 1.9-1.2 2.5zm4.1-8.4c-.9-.8-1.9-1.3-2.9-1.6-1.1-.3-2.2-.3-3.6-.3h-7.2V49h5.3v-8.8h2.7c2.8 0 4.9-.8 6.3-2.2 1.9-1.9 2.1-4.6 2.1-5.5-.2-1.8-.7-4.2-2.7-6zM284 24.6v4.6h5.4V49h5.3V29.2h5.4v-4.6H284zM90.4 49.1h13.8v-4.6h-8.6v-5.9h8.2V34h-8.2v-4.7h8.6v-4.6H90.4v24.4zM239 42.9c-.2.4-.5.8-1 1.1-.9.6-2.2.6-3 .6h-1.7v-5.9h1.4c1 0 2.1 0 3 .4.7.3 1.1.7 1.3 1.2.2.4.3.9.3 1.2-.1.5-.1 1-.3 1.4zM233.2 29h1c.9 0 1.7.2 2.3.6.6.4.9 1 .9 2.1 0 .7-.2 1.2-.4 1.6-.4.6-.9.9-1.5 1-.6.2-1.1.2-1.4.2h-1V29h.1zm7.1 6.9c.3-.2.7-.5 1-1 .6-.8 1.2-1.9 1.2-3.6 0-2.1-.9-4-2.3-5.2-2-1.6-4.7-1.6-6-1.6H228v24.4h8.3c2.1 0 4.4-.4 6.2-2 1.7-1.5 2.1-3.6 2.1-5.1 0-1.3-.3-3.2-1.8-4.7-.5-.3-1.3-.9-2.5-1.2zm7.2 13.2h13.8v-4.6h-8.6v-5.9h8.2V34h-8.2v-4.7h8.6v-4.6h-13.8v24.4zM85.4 24.6h-5.3v19.8h-8.8V24.6H66V49h17.3v5.4h4.9v-10h-2.9V24.6h.1zm37 9.2H113v-9.2h-5.3V49h5.3V38.5h9.4v10.6h5.3V24.6h-5.3v9.2zm7.4-4.6h5.4V49h5.3V29.2h5.4v-4.6h-16v4.6h-.1zM112.4 7.5h-7.3V.2h-4.3v19.5h4.3v-8.4h7.3v8.4h4.3V.2h-4.3v7.3zm-25.1 4.6l2.2-5.6 2.2 5.6h-4.4zM87.8.2l-8.3 19.5h4.7l1.7-4H93l1.7 4h4.7L91.3.2h-3.5zm40.2 9l8.3-9.1h-5.5l-6.5 7.4V.2H120v19.5h4.3v-8.2l.1-.1 6.6 8.3h5.7L128 9.2zm-53.6 5.9c-.4.4-1.2.7-2.6.7h-1.4v-4.4h1.5c1.4 0 2.1.3 2.6.8.4.4.6 1 .6 1.5-.1.5-.2 1-.7 1.4zm3.1-5.8C76 7.9 74 7.7 72.6 7.7h-2.2V4h7.2V.2H66v19.5h6.6c.8 0 1.9-.1 2.9-.4 1-.3 2-.9 2.8-2 .7-1 1.1-2.2 1.1-3.6 0-1.9-.7-3.4-1.9-4.4z"/></svg>