<svg width="224" height="44" viewBox="0 0 224 44" fill="none" xmlns="http://www.w3.org/2000/svg">
<path d="M21.7 0.5C9.7 0.5 0 10.2 0 22.2C0 34.2 9.7 43.9 21.7 43.9C33.7 43.9 43.4 34.2 43.4 22.2C43.4 10.2 33.7 0.5 21.7 0.5ZM18.7 31.4L17.1 36.1C11.1 34.1 7.1 28.4 7.1 22C7.1 15.6 11.1 10 17.2 7.9L18.8 12.6C14.8 13.9 12.2 17.7 12.2 21.9C12 26.3 14.7 30.1 18.7 31.4V31.4ZM26.1 36.2L24.6 31.4C28.7 30.1 31.4 26.3 31.4 22C31.4 17.7 28.7 14 24.7 12.7L26.3 7.9C32.4 9.9 36.5 15.6 36.5 22C36.5 28.6 32.3 34.3 26.1 36.2V36.2Z" fill="#00BEF0"/>
<path d="M220.4 26.0996L222.8 28.9996C220.3 31.5996 217.2 32.2996 214.7 32.2996C212.3 32.2996 210.6 31.8996 209.1 31.1996C205.9 29.5996 204.3 26.3996 204.3 22.4996C204.3 16.5996 208.3 12.1996 214.2 12.1996C220.8 12.1996 224 17.0996 223.5 23.4996H208.5C208.6 25.0996 209.5 26.5996 210.8 27.3996C211.9 28.0996 213.2 28.3996 214.9 28.3996C216.8 28.3996 218.7 27.7996 220.4 26.0996V26.0996ZM208.6 19.9996H219.2C218.9 17.6996 217 15.6996 214 15.6996C210.9 15.6996 209 17.8996 208.6 19.9996ZM107.9 31.6996H113.3L104.8 21.7996L113.2 12.4996H107.9L101.5 19.8996H99.5996V12.4996H95.4996V31.5996H99.5996V23.9996H101.5L107.9 31.6996V31.6996ZM125.5 15.9996C122 15.9996 119.7 18.6996 119.7 22.0996C119.7 25.4996 122 28.1996 125.5 28.1996C129 28.1996 131.2 25.5996 131.2 22.0996C131.3 18.7996 129.1 15.9996 125.5 15.9996V15.9996ZM126.2 12.0996C131.6 12.0996 135.6 16.2996 135.6 22.0996C135.6 27.7996 131.7 32.1996 126.2 32.1996C123.6 32.1996 121.5 31.2996 120 29.6996V39.6996H115.8V12.5996H119.9V14.8996C121.5 12.9996 123.6 12.0996 126.2 12.0996V12.0996ZM180.7 12.5996H163.6V16.3996H170.1V31.6996H174.3V16.3996H180.8V12.5996H180.7V12.5996ZM92.5996 12.5996H75.3996V16.3996H81.8996V31.6996H86.0996V16.3996H92.5996V12.5996V12.5996ZM70.3996 22.1996C70.3996 18.5996 67.8996 15.9996 64.3996 15.9996C60.9996 15.9996 58.3996 18.5996 58.3996 22.1996C58.3996 25.7996 60.8996 28.3996 64.3996 28.3996C67.7996 28.3996 70.3996 25.7996 70.3996 22.1996ZM54.0996 22.1996C54.0996 16.4996 58.4996 12.1996 64.3996 12.1996C70.1996 12.1996 74.6996 16.4996 74.6996 22.1996C74.6996 27.8996 70.2996 32.2996 64.3996 32.2996C58.5996 32.1996 54.0996 27.8996 54.0996 22.1996V22.1996ZM201 12.5996V31.6996H196.9V19.3996L186.9 31.6996H183.6V12.5996H187.7V24.8996L197.7 12.5996H201V12.5996ZM160.7 31.6996H156.6V12.5996H160.7V31.6996ZM150.1 25.1996C150.1 23.4996 148.9 22.2996 147.3 22.2996H143.1V28.1996H147.3C148.9 28.1996 150.1 26.8996 150.1 25.1996ZM154.2 25.1996C154.2 28.9996 151.4 31.6996 147.4 31.6996H139V12.5996H143.1V18.7996H147.8C151.8 18.7996 154.2 21.3996 154.2 25.1996Z" fill="black"/>
</svg>
