<svg width="118" height="32" fill="none" xmlns="http://www.w3.org/2000/svg"><path d="M113.158 8.651l-3.998 4.48v-4.48h-2.893v11.31h2.893V15.2l4.28 4.762h3.737l-5.263-5.926 4.882-5.385h-3.638zm-11.992 4.219h-3.999V8.65h-2.894v11.31h2.894v-4.459h3.999v4.46h2.893V8.652h-2.893v4.218zM17.18 14.775c-.07 2.11-.342 2.532-1.528 2.532v2.655h.442c2.957 0 3.668-1.526 3.778-4.921l.12-3.759h2.773v8.685h2.895V8.65h-8.28l-.2 6.124zm15.67-2.689h-2.09V8.651h-2.895v11.31h5.024c3.154 0 4.28-2.048 4.28-3.976 0-2.492-1.569-3.899-4.32-3.899h.001zm-.223 5.385h-1.868v-2.873h1.87c1.004 0 1.608.443 1.608 1.387 0 1.024-.583 1.486-1.609 1.486m13.965-9.082v-4.2h-2.895v4.2c-3.313.275-5.544 2.633-5.544 5.904s2.23 5.646 5.545 5.928v4.26h2.895v-4.257c3.315-.262 5.546-2.633 5.546-5.931 0-3.299-2.231-5.645-5.547-5.907v.003zm-2.895 9.1c-1.608-.223-2.612-1.427-2.612-3.196 0-1.77 1.005-2.974 2.612-3.194v6.39zm2.895 0v-6.387c1.608.22 2.62 1.422 2.62 3.19 0 1.77-1.004 2.975-2.612 3.196m16.388-1.002v-3.801c0-2.773-1.77-4.521-4.741-4.521-3.075 0-4.703 1.848-4.843 3.778h2.934c.1-.423.542-1.147 1.909-1.147 1.126 0 1.848.523 1.848 1.89h-2.874c-2.574 0-4.098 1.346-4.098 3.596 0 2.354 1.67 3.962 4.078 3.962 1.77 0 2.747-.834 3.175-1.466.381.764 1.225 1.185 2.33 1.185h1.006v-2.613c-.523 0-.724-.242-.724-.864v.002zm-2.895-.744c0 1.306-.925 2.049-2.13 2.049-1.045 0-1.868-.381-1.868-1.507s.904-1.287 1.687-1.287h2.311v.745zm12.057-5.484V7.064h7.495V4.19H69.117v15.772h6.272c3.475 0 5.468-1.727 5.468-4.902 0-2.993-1.99-4.802-5.468-4.802H72.15zm3.098 6.85H72.15v-4.102h3.094c1.609 0 2.512.743 2.512 2.05 0 1.345-.903 2.048-2.512 2.048m16.679-.618v-3.801c0-2.773-1.77-4.521-4.743-4.521-3.068.005-4.7 1.853-4.837 3.782h2.933c.101-.423.544-1.146 1.909-1.146 1.126 0 1.85.522 1.85 1.89h-2.88c-2.573 0-4.099 1.346-4.099 3.595 0 2.35 1.671 3.958 4.08 3.958 1.77 0 2.746-.834 3.174-1.466.382.764 1.227 1.185 2.331 1.185h1.004v-2.613c-.521 0-.722-.242-.722-.864v.002zm-2.895-.744c0 1.306-.925 2.049-2.13 2.049-1.045 0-1.87-.381-1.87-1.507s.906-1.287 1.689-1.287h2.311v.745zm-73.557 9.043H0V28h15.471v-3.215zM10.549 6.354C10.106 5.04 9.599 4 7.856 4 6.115 4 5.573 5.036 5.11 6.354L.322 19.962h3.174l1.105-3.234h6.112l1.027 3.234h3.378l-4.57-13.608zm-5.023 7.641l2.17-6.457h.08l2.049 6.457H5.526z" fill="#EF3124"/></svg>