<svg width="269" height="270" viewBox="0 0 269 270" fill="none" xmlns="http://www.w3.org/2000/svg">
<path fill-rule="evenodd" clip-rule="evenodd" d="M134.312 53.7347C127.693 38.0777 117.926 17.3936 109.398 8.86472C103.541 3.13919 95.6624 -0.0459156 87.4721 0.000500277C79.2817 0.0469162 71.4401 3.32111 65.6485 9.11265C59.857 14.9042 56.5828 22.7459 56.5364 30.9362C56.49 39.1266 59.6751 47.0048 65.4006 52.8617C70.3798 57.8408 79.4938 63.2325 89.3274 68.1829H28.7812C21.148 68.1829 13.8274 71.2152 8.42983 76.6127C3.0323 82.0102 5.2501e-07 89.3309 5.2501e-07 96.9641V106.558C-0.00113616 112.511 1.84352 118.317 5.27987 123.178C8.71623 128.039 13.5752 131.714 19.1875 133.699V240.87C19.1875 248.507 22.2191 255.827 27.6204 261.219C30.2911 263.893 33.4631 266.015 36.9547 267.462C40.4464 268.909 44.1891 269.653 47.9688 269.652H220.656C228.293 269.652 235.613 266.62 241.005 261.219C243.679 258.548 245.801 255.376 247.248 251.884C248.695 248.393 249.439 244.65 249.438 240.87V133.699C255.05 131.714 259.909 128.039 263.345 123.178C266.781 118.317 268.626 112.511 268.625 106.558V96.9641C268.625 89.3309 265.593 82.0102 260.195 76.6127C254.798 71.2152 247.477 68.1829 239.844 68.1829H179.298C189.131 63.2325 198.245 57.8408 203.224 52.8617C208.95 47.0048 212.135 39.1266 212.089 30.9362C212.042 22.7459 208.768 14.9042 202.976 9.11265C197.185 3.32111 189.343 0.0469162 181.153 0.000500277C172.963 -0.0459156 165.084 3.13919 159.227 8.86472C150.699 17.3936 140.932 38.0777 134.312 53.7347ZM115.125 231.277C115.125 236.365 117.147 241.246 120.745 244.844C124.343 248.443 129.224 250.464 134.312 250.464C139.401 250.464 144.282 248.443 147.88 244.844C151.478 241.246 153.5 236.365 153.5 231.277V154.527C153.5 149.438 151.478 144.557 147.88 140.959C144.282 137.361 139.401 135.339 134.312 135.339C129.224 135.339 124.343 137.361 120.745 140.959C117.147 144.557 115.125 149.438 115.125 154.527V231.277Z" fill="black" fill-opacity="0.15"/>
</svg>
