<svg width="141" height="32" fill="none" xmlns="http://www.w3.org/2000/svg"><g clip-path="url(#clip0_1710_19679)"><path d="M27.965 10.335c1.933 0 3.512.85 4.176 1.485l-1.112 1.363a4.98 4.98 0 00-3.083-1.146c-2.43 0-3.945 1.672-3.945 3.963 0 2.291 1.426 3.96 3.963 3.96a5.058 5.058 0 003.308-1.314l1.053 1.408c-.665.697-2.322 1.608-4.364 1.608-3.575 0-5.788-2.405-5.788-5.662 0-3.256 2.261-5.665 5.792-5.665zm11.029 0c3.308 0 5.714 2.406 5.714 5.665 0 3.26-2.406 5.662-5.714 5.662-3.307 0-5.713-2.405-5.713-5.662 0-3.256 2.403-5.665 5.713-5.665zm0 9.622c2.243 0 3.91-1.687 3.91-3.96 0-2.273-1.658-3.963-3.91-3.963-2.252 0-3.909 1.687-3.909 3.963s1.666 3.963 3.91 3.963v-.003zm17.101-1.684c0 1.594-1.022 3.143-3.668 3.143h-5.774V10.569h5.434c2.198 0 3.467 1.362 3.467 2.896 0 .866-.403 1.654-1.362 2.288.974.337 1.903 1.035 1.903 2.52zm-7.662-5.99v2.881l3.437-.018c1.221 0 1.856-.68 1.856-1.486 0-.742-.542-1.377-1.624-1.377h-3.669zm4.102 7.43c1.254 0 1.735-.697 1.735-1.455 0-.82-.575-1.485-1.705-1.485h-4.132v2.94h4.102zm10.678-3.884l4.811 5.587h-2.382l-3.999-4.736h-2.057v4.736h-1.78V10.569h1.78v4.487h2.057l3.91-4.487h2.369l-4.71 5.26z" fill="#003790"/><path d="M73.506 10.335c3.308 0 5.713 2.406 5.713 5.665 0 3.26-2.405 5.662-5.713 5.662-3.308 0-5.713-2.405-5.713-5.662 0-3.256 2.4-5.665 5.713-5.665zm0 9.622c2.243 0 3.909-1.687 3.909-3.96 0-2.273-1.657-3.963-3.91-3.963-2.251 0-3.908 1.687-3.908 3.963s1.669 3.963 3.909 3.963v-.003zm17.702-9.387h1.708v10.825h-1.78v-8.026l-3.56 4.751h-1.083l-3.56-4.751v8.047h-1.78V10.569h1.717l4.164 5.557 4.174-5.557zm9.875 4.438c2.382 0 3.684 1.392 3.684 3.187s-1.302 3.22-3.561 3.22h-5.884V10.57h8.434v1.714h-6.651v2.725h3.978zm.045 4.706c1.239 0 1.804-.683 1.804-1.504 0-.82-.556-1.503-1.804-1.503h-4.023v3.007h4.023zm13.526 1.702l-1.176-2.707h-5.112l-1.176 2.707h-1.945l4.703-10.826h1.966l4.706 10.826h-1.966zm-5.602-4.334h3.728l-1.855-4.318-1.873 4.319zm16.914-6.512h1.78v10.825h-1.78v-4.622H119.7v4.643h-1.781V10.569h1.781v4.51h6.266v-4.51zm9.596 5.259l4.796 5.587h-2.367l-4.008-4.736h-2.057v4.736h-1.78V10.569h1.78v4.487h2.057l3.909-4.475h2.37l-4.7 5.248z" fill="#003790"/><path d="M.73 15.997a8.997 8.997 0 009 9.006h.36v-3.425h-.36a5.581 5.581 0 110-11.16h.36V7.007h-.36a9 9 0 00-9 8.99" fill="#FC5055"/><path d="M11.528 7.18v4.68H9.724a4.14 4.14 0 100 8.278h1.804v4.679a9 9 0 000-17.636z" fill="#003790"/></g><defs><clipPath id="clip0_1710_19679"><path fill="#fff" transform="translate(.73 7)" d="M0 0h139.631v18H0z"/></clipPath></defs></svg>