<svg width="88" height="32" xmlns="http://www.w3.org/2000/svg"><g fill="none"><path d="M25.43 4.15H4.528L6.033.01h20.903l-1.505 4.14zm-.752 2.071H3.765l-1.506 4.141h20.903l1.516-4.14zm-2.26 6.193H1.507L0 16.555h20.885l1.534-4.14z" fill="#009FDF"/><path d="M75.238 26.918h3.764a3.285 3.285 0 002.88-1.12 3.595 3.595 0 00.734-2.363 3.275 3.275 0 00-1.289-2.823 3.765 3.765 0 00-2.362-.603h-3.727v6.909zm-4.942 4.169V6.221h16.18l-1.422 4.17h-9.816v5.505h4c3.228 0 4.903.772 6.06 1.76a7.322 7.322 0 012.457 5.892 7.144 7.144 0 01-2.927 6.156c-1.553 1.072-3.18 1.374-6.494 1.374l-8.038.01zm-14.324 0V10.381h-7.19v-4.16h19.962l-1.422 4.17H60.96v20.705l-4.988-.009zM36.047 16.179h2.824a5.995 5.995 0 001.722-.132 2.72 2.72 0 001.882-2.823 2.513 2.513 0 00-1.882-2.758 6.852 6.852 0 00-1.882-.17h-2.664v5.883zm0 4.301v6.522h3.445a3.699 3.699 0 002.663-.734 3.247 3.247 0 001.036-2.56 3.539 3.539 0 00-.66-2.127c-.733-.941-1.637-1.12-3.18-1.12l-3.304.019zm7.962-2.626v.085a8.725 8.725 0 012.325 1.336 5.863 5.863 0 012.108 4.866c0 3.398-1.807 5.854-4.771 6.588a12.678 12.678 0 01-3.615.349h-8.95V6.22h7.962a14.72 14.72 0 013.765.348c2.88.772 4.772 2.758 4.772 5.892a5.506 5.506 0 01-1.59 4.047 6.033 6.033 0 01-1.959 1.327l-.047.02z" fill="#0A2973"/></g></svg>