<svg width="302" height="192" viewBox="0 0 302 192" fill="none" xmlns="http://www.w3.org/2000/svg">
<path d="M255.273 187.317C253.76 188.805 251.979 189.97 250.041 190.766C248.12 191.561 246.012 192 243.802 192H136.844C127.867 192 120.59 184.759 120.59 175.826C120.59 166.893 127.867 159.652 136.844 159.652H227.571L227.573 56.265L213.834 69.7786C207.434 76.0733 197.401 76.5549 190.989 70.8743C189.342 69.4306 188.014 67.669 187.088 65.6989C186.163 63.7289 185.659 61.5926 185.609 59.4229C185.557 57.2567 185.951 55.1026 186.767 53.0901C187.583 51.0777 188.805 49.2484 190.359 47.7125L235.387 3.42382C237.621 1.23134 240.648 0 243.803 0C246.959 0 249.986 1.23134 252.22 3.42382L297.248 47.7125C298.803 49.2471 300.025 51.0758 300.841 53.088C301.657 55.1002 302.049 57.2542 301.995 59.4198C301.952 61.5912 301.453 63.7302 300.528 65.7022C299.603 67.6741 298.272 69.4362 296.621 70.8773C290.209 76.5519 280.173 76.0733 273.773 69.7786L260.034 56.265L260.035 175.001C260.049 175.274 260.056 175.549 260.056 175.826C260.056 176.639 259.995 177.437 259.879 178.217C259.394 181.643 257.788 184.843 255.273 187.317Z" fill="black" fill-opacity="0.15"/>
<path d="M41.9444 16.1739C41.9444 15.3612 42.0047 14.5626 42.1209 13.7821C42.6065 10.3569 44.2124 7.15671 46.7269 4.68349C48.2401 3.19516 50.0209 2.03046 51.9582 1.23478C53.8794 0.439234 55.9871 2.91531e-06 58.1979 2.91531e-06H165.156C174.133 2.91531e-06 181.41 7.24131 181.41 16.1739C181.41 25.1065 174.133 32.3478 165.156 32.3478H74.429L74.427 135.735L88.1662 122.221C94.5659 115.927 104.599 115.445 111.011 121.126C112.658 122.569 113.986 124.331 114.912 126.301C115.837 128.271 116.341 130.407 116.391 132.577C116.443 134.743 116.049 136.897 115.233 138.91C114.417 140.922 113.195 142.752 111.641 144.288L66.6133 188.576C64.3793 190.769 61.3524 192 58.1966 192C55.0407 192 52.0138 190.769 49.7798 188.576L4.75195 144.288C3.19742 142.753 1.97529 140.924 1.15939 138.912C0.343498 136.9 -0.0492267 134.746 0.00492715 132.58C0.0476634 130.409 0.547287 128.27 1.47229 126.298C2.39729 124.326 3.7276 122.564 5.37938 121.123C11.7914 115.448 21.8272 115.927 28.2269 122.221L41.9661 135.735L41.9652 16.9993C41.9514 16.7259 41.9444 16.4507 41.9444 16.1739Z" fill="black" fill-opacity="0.15"/>
</svg>
