<svg xmlns="http://www.w3.org/2000/svg" viewBox="0 0 178.3 43"><path d="M43 7.4h7.9c4 0 6.7 3.3 6.7 6.5 0 3.3-2.7 6.6-6.7 6.6H46v5.3h-3V7.4zm7.6 10.3c2.6 0 4-2 4-3.8 0-1.9-1.4-3.8-4-3.8H46v7.6h4.6zm7.9 1.4c0-3.9 2.7-7 6.9-7 4.3 0 6.4 3.6 6.4 7.2v.7H61.5c.4 2.3 2.4 3.6 5.1 3.6 1.7 0 3.1-.5 4.3-1.2v2.5c-1.1.8-2.9 1.3-4.9 1.3-4.2 0-7.5-2.8-7.5-7.1zm10.3-1.4c0-1.4-1.1-3.2-3.5-3.2-2.3 0-3.6 1.6-3.7 3.2h7.2zm5.6-5.3h3v5.2h6.8v-5.2h3v13.4h-3v-5.6h-6.8v5.6h-3V12.4zm15.3 6.7c0-3.9 2.7-7 6.9-7 4.3 0 6.4 3.6 6.4 7.2v.7H92.7c.4 2.3 2.4 3.6 5.1 3.6 1.7 0 3.1-.5 4.3-1.2v2.5c-1.1.8-2.9 1.3-4.9 1.3-4.2 0-7.5-2.8-7.5-7.1zm10.3-1.4c0-1.4-1.1-3.2-3.5-3.2-2.3 0-3.6 1.6-3.7 3.2h7.2zm4.7 1.4c0-4.2 3.3-7 7.3-7 1.6 0 2.8.3 4 .9v2.5c-1.2-.6-2.3-.9-3.6-.9-2.6 0-4.8 1.8-4.8 4.5s2.1 4.5 4.8 4.5c1.5 0 2.7-.3 3.8-1v2.5c-1.3.7-2.6 1.1-4.3 1.1-3.9 0-7.2-2.9-7.2-7.1zm13 0c0-4.2 3.3-7 7.3-7 1.6 0 2.8.3 4 .9v2.5c-1.2-.6-2.3-.9-3.6-.9-2.6 0-4.8 1.8-4.8 4.5s2.1 4.5 4.8 4.5c1.5 0 2.7-.3 3.8-1v2.5c-1.3.7-2.6 1.1-4.3 1.1-3.8 0-7.2-2.9-7.2-7.1zm27.9 4.2v2.2c-.4.3-1.1.4-1.7.4-1.3 0-2.4-.6-2.8-1.9-1 1.1-2.6 2.1-4.9 2.1-2.8 0-5-1.6-5-4.5 0-3 2.2-3.9 5.1-3.9h4.6v-.2c0-2.3-1.9-2.9-3.9-2.9-1.6 0-3.2.6-4.2 1.2v-2.6c1-.5 2.5-1.1 4.9-1.1 3.6 0 6.2 1.7 6.2 5.1v5c0 .8.5 1.3 1.1 1.3 0 0 .3 0 .6-.2zm-4.9-3.3h-3.5c-1.9 0-3.2.4-3.2 1.7 0 1.5 1.3 2 2.9 2 1.6 0 3.1-.8 3.8-1.6V20zm7-7.6h3v5.2h6.8v-5.2h3v13.4h-3v-5.6h-6.8v5.6h-3V12.4zm15.3 6.7c0-4.2 3.3-7 7.3-7 1.6 0 2.8.3 4 .9v2.5c-1.2-.6-2.3-.9-3.6-.9-2.6 0-4.8 1.8-4.8 4.5s2.1 4.5 4.8 4.5c1.5 0 2.7-.3 3.8-1v2.5c-1.3.7-2.6 1.1-4.3 1.1-3.9 0-7.2-2.9-7.2-7.1zM43 33h1.4v2.6l2.4-2.6h1.7l-2.8 3 3.3 3.6h-1.7l-2.8-3v3H43V33zm7.8 0h2.9c1.4 0 2.3.8 2.3 2s-.9 2-2.3 2h-1.5v2.6h-1.4V33zm2.8 2.8c.6 0 1-.3 1-.8s-.4-.8-1-.8h-1.4v1.6h1.4zM58 33h4.8v1.2h-3.5v1.3h2.8v1.2h-2.8v1.7H63v1.2h-5V33zm6.8 5.4h.6c.6-.9.9-2.1.9-4.3v-1h4.6v5.4h.9v2.6h-1.3v-1.3H66v1.3h-1.3v-2.7zm4.8 0v-4.2h-1.9c0 1.4-.1 2.8-.7 4.2h2.6zm4.3-5.4h1.4v4.3l3.2-4.3h1.2v6.6h-1.3v-4.3L75 39.6h-1.1V33zm13.2 0v1.2H85v5.4h-1.4v-5.4h-2.1V33h5.6z" fill="#323e48"/><radialGradient id="a" cx="4.859" cy="31.793" r="24.887" gradientUnits="userSpaceOnUse"><stop offset="0" stop-color="#d6005e"/><stop offset="1" stop-color="#e3448a"/></radialGradient><path d="M8.3 33H4V14.5C4 8.2 9.2 3 15.5 3h14.2v11.4c0 6.4-5.2 11.5-11.5 11.5H11l1.6-4.3h5.5c4 0 7.2-3.2 7.2-7.2V7.3h-9.9c-4 0-7.2 3.2-7.2 7.2V33z" fill="url(#a)"/></svg>