<svg version="1.1" id="Layer_1" xmlns="http://www.w3.org/2000/svg" x="0" y="0" viewBox="0 0 295.6 73.4" xml:space="preserve"><style>.st0{fill-rule:evenodd;clip-rule:evenodd;fill:#006c3f}.st1{fill:#50b848}.st2{fill:#006c3f}</style><path class="st0" d="M0 28.2C0 12.6 12.6 0 28.1 0v10.2c-9.9 0-18 8.1-18 18s8.1 18 18 18 18-8 18-18.1h10.2c0 15.6-12.6 28.2-28.2 28.2C12.6 56.4 0 43.7 0 28.2z"/><path class="st1" d="M15.7 28.2c0-6.9 5.6-12.5 12.5-12.5s12.5 5.6 12.5 12.5-5.6 12.5-12.5 12.5-12.5-5.6-12.5-12.5z"/><path class="st2" d="M36.9 12.3c0-4 3.2-7.2 7.2-7.2s7.2 3.2 7.2 7.2-3.2 7.2-7.2 7.2-7.2-3.2-7.2-7.2z"/><path class="st1" d="M265 19l-.9 4.4c-2.1 9.5-2.9 12.6-4.7 22.1l-.4.3-5.8.2-.3-.4 2.3-9.8.7-3.2c-2.5-.1-5-.1-7.5-.1-1.9 0-3.4 0-4.9.1-.8 3.8-1.6 7.2-2.6 12.9l-.4.3-5.8.2-.3-.4 2.3-9.8.9-4.3c1.5-6.7 1.8-8.2 2.7-14.4l.4-.4c2.7-.3 3.3-.5 6-1l.3.4-.6 2.8-.9 4.4-.9 4.2c2.1 0 4.2.1 6.3.1 2.2 0 3.7 0 6.1-.1.8-3.6 1.1-5.6 1.8-10.3l.4-.4c2.7-.3 3.3-.5 6-1l.3.4-.5 2.8zm-72 12.7c.4-1.7.7-3.3.7-4.9 0-5.8-3.7-6.7-5.8-6.7-9 0-10.1 13.9-10.1 16 0 4.6 2.7 6.6 5.8 6.6 6.1 0 8.4-6.3 9.4-11zm5.9 1.8c-1.3 4.9-4.7 13.4-15.5 13.4-7.6 0-11.8-3.9-11.8-11.7 0-1 .1-2.1.2-3.3 0-.3.1-.6.1-.9 2.2-12.8 7.8-25 20.1-25.1 1.6 0 4.9-.2 7.2-.7l-.8 5.1c-2.3.6-5.9.9-7.9.9-2.6 0-4.4 1-5.6 2.2-.6.6-1.1 1.2-1.5 1.8-.4.6-.6 1.1-.8 1.5 1.6-.5 3.4-.8 5.4-.8 7.5 0 11.9 4.2 11.9 11.5-.1 2-.4 4.1-1 6.1z"/><path d="M222.7 38.5c-.6.5-1.2 1.1-1.9 1.5-1.5.9-3.4 1.3-4.9 1.3-5.2 0-6.6-4.4-6.6-7.1 0-.3.1-7.6 6.1-11.7 3.4-2.3 7-2.4 8.9-2.4.9 0 1.7.1 2.6.1l-4.2 18.3zm10.9-22.2l-.3-.5-7.8-.1c-5.2 0-12.6.3-17.8 6.5-2.4 2.8-4.5 7.7-4.5 12.2 0 7.1 4.7 11.2 10.5 11.2 4.8 0 7.3-2.1 8.3-2.9l-.4 2.3.3.4 5.3-.1.4-.4c1.1-6.8 1.5-8.9 3.5-17.7l2.5-10.9z" fill-rule="evenodd" clip-rule="evenodd" fill="#50b848"/><path class="st0" d="M92.1 30.4c-1.1 5-2.3 6.5-2.9 7.3-1 1.2-2.4 2.2-4.1 2.2-1.9 0-3.4-.9-4-2.7-.2-.4-.3-1.1-.3-2.5 0-2.6 1.2-9 3.3-11.8.6-.7 2-2.3 4.6-2.3 3.3 0 4 2.9 4 5 0 1.8-.3 3.4-.6 4.8zm9.3 2.2c.5-1.9.7-3.8.7-5.7 0-3.4-.7-6.6-3.6-9.2-2.7-2.4-6.3-3.2-9.8-3.2-14.7 0-17.5 13.6-17.5 18.8 0 4.2 1.2 7.3 3.7 9.5 2.7 2.4 6.7 2.9 9.6 2.9 4.3 0 8-.9 11.2-3.6 3-2.2 4.8-5.8 5.7-9.5z"/><path class="st2" d="M124.4 22.4h-.6c-.5 2.3-1.1 4.9-2.1 9l-.9 4.2c-1 4.8-1.2 6-1.8 10l-.4.3-9.8.2-.3-.4c1.7-6.7 2-8 3.7-15.2l.6-2.8c.5-2.3.8-3.8 1.1-5.2h-3.4l-6.6.2-.3-.5 1.9-6.7.5-.3h19.3l9.8-.2.3.3-1.8 6.7-.5.4-5.6-.2h-3.1zm33.6-.1l-10.8.1s-1.3 4.3-2.5 9.1-2.5 10.1-3.3 14l-.4.3-9.2.2-.3-.4c2-6.7 2.4-8 4.3-15.2l.7-2.8c.6-2.4 1-3.9 1.3-5.4l1.6-6.7.4-.3h18.6l9.8-.2.4.3s-1.9 9.3-3.1 15.5c-1.2 6.3-2.5 14.5-2.5 14.5l-.4.3-9.6.2-.3-.4c1.5-6.6 2.6-11.5 3.4-15.2 1-3.6 1.5-6.3 1.9-7.9z"/><path class="st1" d="M276.5 28.2c1.4-1.2 2.1-1.9 4-3.7 2-1.9 6.8-6.9 7.7-7.9l.6-.3h6.5l.2.5c-.6.5-.9.7-3.1 2.7-.9.7-1.5 1.3-2.6 2.3l-7.4 6.8 8.8 16.8-.3.5-6.3.2-.5-.3c-1.5-3.5-1.9-4.3-3.9-8.5l-4-8.1c-1.2 5.6-2 9.1-3.4 16.4l-.4.3-5.8.2-.3-.4 2.3-9.8.9-4.3c1.5-6.7 1.8-8.2 2.7-14.4l.4-.4c2.7-.3 3.3-.5 6-1l.3.4-.6 2.8-.9 4.4-.9 4.8z"/><path class="st2" d="M72.5 52.1h8l-.3 1.9h-5.7l-.6 3.6h1.6c1.5 0 2.7.3 3.5.9.8.6 1.2 1.5 1.2 2.7 0 1.1-.3 2.1-.8 2.9-.5.8-1.2 1.5-2.2 1.9s-2 .7-3.3.7h-4l2.6-14.6zm1.6 12.8c1.2 0 2.2-.3 2.8-.9.6-.6 1-1.4 1-2.4 0-.8-.2-1.3-.6-1.6-.4-.3-1.1-.5-2-.5h-1.7l-1 5.4h1.5zm8.2 1.1c-.4-.6-.6-1.5-.6-2.7 0-1.4.3-2.7.8-3.8.5-1.1 1.3-2 2.2-2.7s2-1 3.2-1c.5 0 1.1 0 1.7.1.7.1 1.3.2 1.9.4l-1.8 10.4h-1.8L88 65h-.1c-1 1.3-2.3 1.9-3.8 1.9-.8 0-1.4-.3-1.8-.9zm4.1-1.3c.5-.4.9-.8 1.3-1.4.4-.6.6-1.2.7-1.9l.6-3.5c-.4-.1-.8-.1-1.2-.1-.8 0-1.4.2-2 .7-.6.5-1.1 1.1-1.4 2s-.5 1.8-.5 2.8c0 1.4.4 2.1 1.1 2.1.4-.2.9-.4 1.4-.7zm16.7-8.6l-1.9 10.6h-2.1l.8-4.6h-4.1l-.8 4.7h-2.1l1.9-10.6h2.1l-.8 4.2h4.1l.8-4.3h2.1zm6.7 5.2l3.7 5.4H111l-2.1-3.2-1.3-1.9-.2 1.3c0 .2-.1.5-.2 1l-.5 2.9h-2.1l1.9-10.6h2.1l-.5 2.8c-.1.3-.1.7-.2 1.3l-.1.6 1.7-1.7 3-3h2.7l-5.4 5.1zm10.4 5c-.6-.5-.9-1.2-.9-2.1 0-1 .3-1.9 1-2.4.7-.6 1.8-1.1 3.3-1.5.6-.2 1.1-.4 1.4-.7s.5-.6.5-1-.1-.6-.4-.8-.7-.3-1.3-.3c-1 0-1.9.2-2.8.7l.3-1.8c.4-.2.9-.3 1.4-.4.5-.1 1.1-.2 1.6-.2 1 0 1.8.2 2.4.7s.9 1.1.9 2c0 .9-.3 1.6-.8 2.1-.6.5-1.4.9-2.6 1.2-.9.3-1.6.5-2.1.9-.4.3-.6.8-.6 1.3 0 .8.6 1.3 1.9 1.3 1 0 2-.2 2.9-.7l-.3 1.8c-1 .4-2 .6-3.2.6-1.1 0-2-.2-2.6-.7zm9.7-.3c-.6-.7-1-1.7-1-3.1 0-1.4.2-2.6.7-3.7.5-1.1 1.2-1.9 2-2.5.9-.6 1.9-.9 3-.9 1.3 0 2.2.4 2.8 1.1.6.7 1 1.7 1 3.1 0 1.4-.2 2.6-.7 3.7-.5 1.1-1.2 1.9-2 2.5s-1.9.9-3 .9c-1.3-.1-2.2-.4-2.8-1.1zm4.7-1.4c.5-.5.9-1.1 1.2-1.9.3-.8.4-1.7.4-2.7 0-.8-.1-1.5-.4-1.8s-.7-.6-1.3-.6c-.6 0-1.2.2-1.7.7-.5.5-.9 1.1-1.2 1.9-.3.8-.4 1.7-.4 2.7 0 .8.1 1.4.4 1.8s.7.6 1.3.6c.6 0 1.2-.2 1.7-.7zm7.3-8.5h1.8l-.1 1.7h.1c.5-.6 1.1-1.1 1.7-1.5.6-.4 1.3-.5 1.9-.5 1.3 0 2 .7 2.1 2h.1c.5-.7 1.1-1.2 1.8-1.5.6-.3 1.3-.5 1.9-.5.7 0 1.2.2 1.6.6.4.4.6 1.1.6 1.9 0 .4 0 .8-.1 1.2l-1.3 7.1h-2.1l1.2-6.6c.1-.5.1-1 .1-1.4 0-.4-.1-.7-.2-.8s-.3-.2-.6-.2c-.5 0-1 .2-1.4.5-.5.4-.9.9-1.2 1.5-.4.6-.6 1.3-.7 2.1l-.9 5h-2.1l1.2-6.6c.1-.5.1-1 .1-1.4 0-.4-.1-.7-.2-.9s-.3-.2-.6-.2c-.5 0-1 .2-1.4.5-.5.4-.9.9-1.2 1.5-.3.6-.6 1.3-.7 2.1l-.9 5H140l1.9-10.6zm16.3 9.9c-.6-.7-1-1.7-1-3.1 0-1.4.2-2.6.7-3.7.5-1.1 1.2-1.9 2-2.5.9-.6 1.9-.9 3-.9 1.3 0 2.2.4 2.8 1.1.6.7 1 1.7 1 3.1 0 1.4-.2 2.6-.7 3.7s-1.2 1.9-2 2.5c-.9.6-1.9.9-3 .9-1.3-.1-2.2-.4-2.8-1.1zm4.7-1.4c.5-.5.9-1.1 1.2-1.9.3-.8.4-1.7.4-2.7 0-.8-.1-1.5-.4-1.8s-.7-.6-1.3-.6c-.6 0-1.2.2-1.7.7-.5.5-.9 1.1-1.2 1.9s-.4 1.7-.4 2.7c0 .8.1 1.4.4 1.8.3.4.7.6 1.3.6.6 0 1.2-.2 1.7-.7zm13.9-2.9c.3.4.4.9.4 1.5 0 .8-.2 1.5-.7 2-.4.6-1 1-1.8 1.3-.8.3-1.6.5-2.6.5-1.4 0-2.7-.2-3.9-.7l1.7-9.7c.6-.2 1.3-.4 2-.6.7-.1 1.4-.2 2.1-.2 1.2 0 2.1.2 2.7.6.6.4.9 1 .9 1.7 0 .6-.2 1.2-.5 1.7s-.8.9-1.3 1.2c.4.1.7.4 1 .7zm-2.6 3.2c.5-.3.8-.8.8-1.5 0-.5-.1-.9-.4-1.1-.3-.2-.8-.4-1.4-.4-.5 0-1.2.1-2 .2l-.5 3c.4.2 1 .3 1.7.3s1.3-.2 1.8-.5zm-2.3-7.1l-.5 2.9 2-.3c.7-.1 1.2-.3 1.5-.6.3-.3.5-.7.5-1.2 0-.4-.1-.7-.4-.8-.3-.2-.7-.3-1.2-.3-.6 0-1.3.1-1.9.3zm9.1 9.1c-.5-.1-1.2-.3-1.9-.6l1.8-10.2h2.1l-.6 3.4c0 .1-.1.4-.2.8.4-.5.9-1 1.5-1.3.6-.3 1.2-.5 1.9-.5.9 0 1.5.3 2 .8.4.5.7 1.2.7 2.2 0 1.1-.2 2-.7 2.9-.5.8-1.1 1.5-2 2-.8.5-1.8.7-2.9.7-.6-.1-1.2-.1-1.7-.2zm3.5-2.2c.5-.3.8-.8 1.1-1.4.3-.6.4-1.2.4-1.8 0-.4-.1-.8-.3-1.1-.2-.3-.5-.4-.9-.4-.5 0-.9.2-1.4.5s-.8.8-1.1 1.3c-.3.5-.5 1.1-.6 1.6l-.3 1.5c.3.1.8.2 1.4.2.7.2 1.2 0 1.7-.4zm6.9-8.6h2.2l-1.9 10.6h-2.1l1.8-10.6zm6.4 4.9l-2.1-4.9h2.2l.9 2.2c.2.4.3.8.5 1.3l.3-.5c.2-.3.4-.6.5-.8l1.6-2.3h2.5l-3.9 5 2.4 5.6h-2.2l-1.3-3.2-.4-1-.6.9-2.5 3.3h-2.5l4.6-5.6zm20.3-4.3c.4.6.7 1.4.7 2.5 0 1.4-.3 2.8-.8 3.9-.5 1.2-1.2 2.1-2.1 2.8-.9.7-1.9 1-3 1-.6 0-1.2-.1-1.9-.3l-.8 4.5h-2.1l2.6-15h1.8l-.1 1.7h.1c1.1-1.3 2.3-2 3.7-2 .9.1 1.5.3 1.9.9zm-3.4 7.8c.6-.5 1.1-1.2 1.4-2 .3-.9.5-1.8.5-2.8 0-1.3-.4-2-1.2-2-.5 0-1 .2-1.5.5-.5.4-.9.8-1.3 1.4-.4.6-.6 1.3-.7 2l-.6 3.4c.4.2.8.2 1.3.2.8.1 1.5-.2 2.1-.7zm12.7-2.6c-1.2.8-2.9 1.1-5.1 1.1 0 .7.2 1.3.6 1.7.4.4 1 .6 1.7.6.6 0 1.1-.1 1.5-.2s.9-.3 1.3-.5l-.3 1.8c-.8.3-1.8.5-3 .5-1.3 0-2.3-.4-3-1.1-.7-.7-1.1-1.7-1.1-3.1 0-1.3.3-2.5.8-3.5.5-1.1 1.2-1.9 2.1-2.5.9-.6 1.9-.9 3-.9 1 0 1.8.2 2.3.7.5.5.8 1.2.8 2.1.2 1.4-.4 2.5-1.6 3.3zm-3-3.8c-.5.4-1 .8-1.3 1.4s-.6 1.3-.7 2c1.5 0 2.7-.3 3.5-.8.8-.5 1.2-1.1 1.2-2 0-.8-.4-1.2-1.2-1.2-.4.1-1 .2-1.5.6zm19.9 8.6h-1.8l.1-1.7h-.1c-.5.6-1.1 1.1-1.7 1.5-.6.4-1.3.5-1.9.5-1.3 0-2-.7-2.1-2h-.1c-.5.7-1.1 1.2-1.8 1.5-.6.3-1.3.5-1.9.5-.7 0-1.3-.2-1.7-.6-.4-.4-.6-1.1-.6-1.9 0-.4 0-.8.1-1.3l1.3-7.1h2.2l-1.2 6.6c-.1.5-.1 1-.1 1.4 0 .4.1.7.2.9.1.2.3.2.6.2.5 0 1-.2 1.5-.5.5-.4.9-.9 1.2-1.5.4-.6.6-1.3.7-2.1l.9-5h2.1l-1.1 6.6c-.1.5-.1 1-.1 1.4 0 .4.1.7.2.8.1.2.3.2.6.2.5 0 1-.2 1.5-.5.5-.4.9-.9 1.2-1.5.4-.6.6-1.3.7-2.1l.9-5h2.2l-2 10.7zm10.6-4.8c-1.2.8-2.9 1.1-5.1 1.1 0 .7.2 1.3.6 1.7.4.4 1 .6 1.7.6.6 0 1.1-.1 1.5-.2s.9-.3 1.3-.5l-.3 1.8c-.8.3-1.8.5-3 .5-1.3 0-2.3-.4-3-1.1-.7-.7-1.1-1.7-1.1-3.1 0-1.3.3-2.5.8-3.5.5-1.1 1.2-1.9 2.1-2.5.9-.6 1.9-.9 3-.9 1 0 1.8.2 2.3.7.5.5.8 1.2.8 2.1.2 1.4-.4 2.5-1.6 3.3zm-3-3.8c-.5.4-1 .8-1.3 1.4s-.6 1.3-.7 2c1.5 0 2.7-.3 3.5-.8.8-.5 1.2-1.1 1.2-2 0-.8-.4-1.2-1.2-1.2-.5.1-1 .2-1.5.6zm16.1-2l-1.9 10.6H264l.8-4.6h-4.1l-.8 4.6h-2.1l1.9-10.6h2.1l-.8 4.2h4.1l.8-4.3h2.1zm2.4 10.3c-.4-.4-.6-1.1-.6-1.9 0-.4 0-.8.1-1.3l1.3-7.1h2.1l-1.2 6.7c-.1.5-.1.9-.1 1.3s.1.7.2.9c.2.2.4.3.7.3.8 0 1.6-.4 2.3-1.2s1.1-1.8 1.3-3l.9-5h2.1l-1.9 10.6h-1.8l.2-1.7h-.1c-.5.7-1.1 1.1-1.7 1.5s-1.3.5-2.2.5c-.7 0-1.2-.2-1.6-.6zm11.4 0c-.4-.4-.6-1.1-.6-1.9 0-.4 0-.8.1-1.3l1.3-7.1h2.1l-1.2 6.7c-.1.5-.1.9-.1 1.3s.1.7.2.9c.2.2.4.3.7.3.8 0 1.6-.4 2.3-1.2s1.1-1.8 1.3-3l.9-5h2.1L289 66.7h-1.8l.1-1.7h-.1c-.5.7-1.1 1.1-1.7 1.5s-1.3.5-2.2.5c-.5 0-1.1-.2-1.5-.6zm3-12.5l.2-1.5c.7.4 1.5.5 2.4.5s1.7-.2 2.4-.5l-.2 1.5c-.7.3-1.5.5-2.5.5-.9.1-1.7-.1-2.3-.5z"/></svg>