<svg xmlns="http://www.w3.org/2000/svg" viewBox="0 0 397.8 45.4"><path d="M23.5 16.2c0-7.4 6-13.4 13.4-13.4s13.4 6 13.4 13.4-6 13.4-13.4 13.4-13.4-6-13.4-13.4zM0 34.6h73.9v10.1H0zM5 2.7c-1.7 0-3.4.3-5 1v24.9c6.9 2.8 14.7-.6 17.5-7.5S16.9 6.4 10 3.7c-1.6-.6-3.3-1-5-1zm63.8 0c1.7 0 3.4.3 5 1v24.9c-6.9 2.8-14.7-.5-17.5-7.4s.5-14.7 7.4-17.5c1.7-.6 3.4-1 5.1-1z" fill="#fda329"/><path fill="none" d="M96.1 5h303.3v119.3H96.1z"/><path d="M129.2 9.2c4 4 6 9 6 15s-2 11-6 15c-4 4.1-9 6.1-15.1 6.1-7.4 0-13.9-3.7-17.4-9.6l6.9-4c1.9 3.5 5.9 5.7 10.5 5.7 6.6 0 11.3-3.7 12.7-9.6h-18.1v-7.5h18.1c-1.4-5.9-6.1-9.6-12.7-9.6-4.6 0-8.5 2.1-10.5 5.8l-6.9-4c3.5-5.9 10.1-9.6 17.4-9.6 6.1.2 11.1 2.2 15.1 6.3zm38 35.3h-8.7L148 31.3v13.2h-7.5v-29h7.5v12.8l10-12.8h8.9l-11.7 14.3 12 14.7zm4.5-3.6c-2.9-3-4.3-6.6-4.3-10.9 0-4.3 1.4-7.9 4.3-10.9 3-3 6.6-4.4 11-4.4 5.6 0 10.6 2.9 13 7.5l-6.4 3.8c-1.2-2.4-3.7-3.9-6.6-3.9-4.5 0-7.8 3.3-7.8 7.9 0 2.3.8 4.2 2.2 5.7 1.5 1.4 3.3 2.2 5.6 2.2 3 0 5.5-1.4 6.7-3.8l6.5 3.7c-2.6 4.6-7.5 7.5-13.1 7.5-4.5 0-8.1-1.4-11.1-4.4zm54.8-25.4v29H219v-22h-11.5v22H200v-29h26.5zm20.6 29.8c-4.3 0-7.9-1.4-10.9-4.4-3-3-4.4-6.6-4.4-10.9s1.4-7.9 4.4-10.8c3-3 6.6-4.5 10.9-4.5s7.9 1.5 10.9 4.5 4.5 6.6 4.5 10.8-1.5 7.9-4.5 10.9-6.6 4.4-10.9 4.4zm0-7.3c2.3 0 4.1-.8 5.6-2.3s2.3-3.4 2.3-5.7c0-2.3-.8-4.2-2.3-5.7s-3.4-2.3-5.6-2.3c-2.3 0-4.1.8-5.6 2.3-1.4 1.5-2.2 3.4-2.2 5.7 0 2.3.8 4.2 2.2 5.7 1.5 1.5 3.3 2.3 5.6 2.3zm23.3 2.9c-2.8-3-4.2-6.7-4.2-11.2 0-4.9.8-8.8 2.2-11.4 1.5-2.7 4.4-5.2 8.9-7.4.6-.3 1.6-.8 2.8-1.3l2.4-1.2c.5-.2 1.1-.6 1.9-1 2.1-1.3 2.7-2.3 3.7-4.6l6.1 3.5c-.5 2.4-1.6 4.2-3.4 5.5-1.7 1.3-4.3 2.6-7.9 3.9-4.9 1.9-6.8 3.7-7.8 6.4 2.1-2.2 5-3.3 8.7-3.3 3.2 0 6.1 1.2 8.6 3.5s3.8 5.4 3.8 9.3c0 4-1.3 7.2-4.1 9.8-2.7 2.6-6.2 3.8-10.6 3.8-4.6.1-8.2-1.3-11.1-4.3zm5.9-14.3c-1.5 1.2-2.2 2.8-2.2 4.8s.7 3.7 2.1 5c1.5 1.3 3.2 2 5.3 2 2.1 0 3.8-.6 5.2-1.9 1.3-1.3 2-2.9 2-4.9 0-3.9-3-6.8-7.2-6.8-2 0-3.7.6-5.2 1.8zm46.4-11.1h7.5v29h-7.5v-3.4c-2.3 2.8-5.4 4.2-9.5 4.2-3.9 0-7.2-1.4-10-4.4-2.7-3-4.1-6.6-4.1-10.9s1.4-7.9 4.1-10.8c2.8-3 6.1-4.5 10-4.5 4.1 0 7.2 1.4 9.5 4.2v-3.4zm-8.1 22.7c2.3 0 4.2-.8 5.7-2.3 1.6-1.6 2.3-3.5 2.3-5.9s-.8-4.3-2.3-5.9c-1.5-1.6-3.4-2.3-5.7-2.3s-4.2.8-5.7 2.3c-1.5 1.5-2.3 3.5-2.3 5.9s.8 4.4 2.3 5.9c1.5 1.5 3.4 2.3 5.7 2.3zM356 15.5h7.5v29H356v-11h-11.5v11H337v-29h7.5v11H356v-11zm41 29h-8.7l-10.6-13.2v13.2h-7.5v-29h7.5v12.8l10-12.8h8.9L385 29.8l12 14.7z" fill="#004259"/></svg>