<svg xmlns="http://www.w3.org/2000/svg" width="220" height="50" fill="none"><g fill="#45AC45" clip-path="url(#a)"><path d="m33.245 28.344 4.91-4.81v-3.278l-4.91 4.8v3.288Zm0-12.2 4.91-4.833V8.233l-4.91 4.79v3.121Zm0 4.034 4.91-4.811v-3.09l-4.91 4.8v3.112-.011Zm-1.4-11.911-.667-.623V0h-.733v6.911l-.645-.633V0h-.744v5.556L28.4 4.91V0h-.733v7.289L32.6 12.1V0h-.744v8.267h-.012Zm1.4 15.944 4.91-4.811v-3.089l-4.91 4.8v3.111-.01Zm-5.59-.678 4.934 4.811v-3.288l-4.933-4.8v3.277Zm9.767-18.622-.655.645V0h-.734v6.289l-.666.622V0h-.734v7.633l-.644.634V0h-.744v12.111l4.91-4.822V0h-.733v4.911Zm-9.766 6.4 4.933 4.833v-3.11l-4.933-4.812v3.089Zm0 4.056 4.933 4.81v-3.11l-4.933-4.778v3.078Zm0 4.033 4.933 4.811v-3.1l-4.933-4.789v3.09-.012Zm29.3 2.544H45a2.5 2.5 0 0 0 .2-2.34 2.578 2.578 0 0 0-4.956.985c0 .555.178 1.067.478 1.489a.823.823 0 0 0-.366.678c0 .288.155.544.366.688a2.566 2.566 0 0 0 2.089 4.056 2.577 2.577 0 0 0 2.59-2.567c0-.5-.145-.966-.4-1.355h8.9v.544h-.89v.756h.89v.778h-.89V27.1h.89v-.644h1.3v.644h.877v-1.444H55.2v-.778h.878v-.756H55.2v-.555h1.756a.622.622 0 0 0 .622-.623v-.377a.634.634 0 0 0-.622-.623Zm-12.812 3a1.334 1.334 0 0 1-2.666 0c0-.266.089-.522.222-.733l.378-.622a1.078 1.078 0 0 1-.378-.833c0-.334.144-.623.367-.823l-.356-.622a1.255 1.255 0 0 1-.222-.733 1.333 1.333 0 1 1 2.667 0c0 .544-.623 1.833-.623 1.833v.689c-.01.011.611 1.3.611 1.844ZM23.19 20.378v3.21c0 3.056 1.333 5.034 2.111 5.79l5.089 5c1.422 1.389 1.667 1.844 1.989 2.633v-3.555c0-3.156-1.6-4.378-2.433-5.19-1.923-1.866-3.212-3.11-4.245-4.144a9.977 9.977 0 0 1-2.511-3.744ZM29.945 36.2c-1.923-1.889-3.212-3.111-4.245-4.144a11.11 11.11 0 0 1-2.5-3.312v2.767a8.744 8.744 0 0 0 2.1 5.822L30.39 42.3c1.422 1.389 1.667 2.056 1.989 2.833V41.39c0-3.167-1.611-4.389-2.433-5.189Z"/><path d="M40.089 5.933c-.356 0-.711 0-1.067.023v1.488a20.555 20.555 0 1 1 1.056 41.045A20.556 20.556 0 0 1 19.5 27.967c0-6.3 2.833-11.922 7.311-15.7v-1.911A21.978 21.978 0 0 0 18 27.966C18 40.134 27.889 50 40.089 50a22.056 22.056 0 0 0 22.067-22.033c0-12.167-9.89-22.034-22.078-22.034h.01Z"/><path d="M55.7 39.478c.333-.456.667-.945.967-1.445v-2.955H55.7v4.4Zm2.822-5.467c.134-.444.267-.867.378-1.289h-3.2v.778h.478c.855-.022 1.811-.033 2.344.511ZM37.2 32.601h-.867v8.788h.867v-8.788Z"/><path d="M34.333 30.922H37.2c.744 0 1.267.156 1.556.445.3.277.444.8.444 1.533v8.222c0 .733-.133 1.245-.444 1.534-.445.455-1.29.455-1.978.455l-.445-.011v3.889l.867.155v-3.2c1.333 0 2.189-.444 2.6-1.355v4.767h.289l.556-.012v-14.3c0-.755.144-1.288.444-1.588.278-.3.8-.445 1.522-.445.745 0 1.834-.111 2.4.445.289.3.422.844.422 1.588v4.223h-1.966v-4.512h-.856V47.19c.289-.033.556-.078.856-.133V38.11h1.966V46.6c.4-.111.8-.233 1.2-.378v-7.778c0-.889.211-1.555 1.111-1.855l-1-5.411h2l.334 5.9h.244l.334-5.9h2.089l-1.123 5.41c.934.334 1.123.9 1.123 1.845v5.034a18.47 18.47 0 0 0 1.666-1.411V31.133h5.834l.11-.8H45.7l.189.99c-.422-.8-1.245-1.2-2.445-1.2h-.855c-1.444 0-2.333.577-2.667 1.721-.3-1.2-1.222-1.8-2.733-1.8h-3.733v16.134c.288.1.577.2.866.278V30.933l.011-.01Zm18.1 6.2-.944-.889.944-4.855v5.744Z"/><path d="M48.733 45.322c.3-.155.611-.31.89-.478V38.2h-.89v7.122Z"/></g><path fill="#000" d="M80.819 26.493h-3.146V24.84h3.146c.548 0 .99-.089 1.328-.266.337-.177.584-.42.739-.73.16-.316.24-.675.24-1.08 0-.381-.08-.738-.24-1.07a1.835 1.835 0 0 0-.739-.814c-.338-.204-.78-.307-1.328-.307h-2.507V31h-2.084V18.914h4.59c.936 0 1.73.166 2.383.498.659.327 1.16.78 1.503 1.361.343.576.514 1.235.514 1.976 0 .78-.171 1.45-.514 2.009-.343.559-.844.988-1.503 1.286-.653.3-1.447.449-2.382.449Zm5.57.116v-.191c0-.648.094-1.248.282-1.801.188-.56.46-1.043.813-1.453a3.67 3.67 0 0 1 1.312-.963c.52-.232 1.107-.349 1.76-.349.658 0 1.245.117 1.76.35.52.226.96.547 1.32.962.359.41.633.894.821 1.453a5.56 5.56 0 0 1 .282 1.801v.19c0 .648-.094 1.249-.282 1.802a4.31 4.31 0 0 1-.822 1.453c-.36.41-.797.73-1.311.963-.515.227-1.099.34-1.752.34-.658 0-1.248-.113-1.768-.34a3.808 3.808 0 0 1-1.311-.963 4.31 4.31 0 0 1-.822-1.453 5.561 5.561 0 0 1-.282-1.801Zm2-.191v.19c0 .405.042.787.125 1.146.083.36.213.675.39.947.177.27.404.484.68.639.277.155.606.232.988.232.371 0 .692-.077.963-.232a1.93 1.93 0 0 0 .68-.64c.178-.27.308-.586.391-.946a4.78 4.78 0 0 0 .133-1.145v-.191c0-.398-.044-.775-.133-1.129a2.902 2.902 0 0 0-.398-.955 1.906 1.906 0 0 0-.681-.647c-.271-.16-.595-.24-.971-.24-.377 0-.703.08-.98.24-.271.155-.495.37-.672.647a3.01 3.01 0 0 0-.39.955c-.083.354-.125.73-.125 1.129Zm11.696 3.154c.326 0 .62-.063.88-.19.265-.134.479-.316.639-.549.166-.232.257-.5.274-.805h1.884a2.805 2.805 0 0 1-.514 1.586 3.57 3.57 0 0 1-1.32 1.137 3.975 3.975 0 0 1-1.818.415c-.686 0-1.284-.116-1.793-.349a3.546 3.546 0 0 1-1.27-.98 4.311 4.311 0 0 1-.764-1.435 5.927 5.927 0 0 1-.249-1.743v-.29c0-.62.083-1.202.25-1.744.17-.548.425-1.03.763-1.444.337-.415.76-.74 1.27-.972.509-.238 1.104-.357 1.785-.357.719 0 1.35.144 1.892.432.542.282.969.678 1.278 1.187.316.504.479 1.09.49 1.76h-1.884c-.017-.332-.1-.63-.249-.897a1.65 1.65 0 0 0-.614-.647c-.26-.16-.573-.24-.938-.24-.404 0-.74.082-1.005.248-.265.16-.473.382-.622.664-.15.277-.258.59-.324.938-.06.343-.091.7-.091 1.071v.29c0 .371.03.731.091 1.08.06.348.166.661.315.938.155.27.366.49.631.655.266.161.603.241 1.013.241Zm8.882 0c.326 0 .62-.063.88-.19.265-.134.478-.316.639-.549.166-.232.257-.5.274-.805h1.884a2.806 2.806 0 0 1-.515 1.586 3.574 3.574 0 0 1-1.319 1.137 3.975 3.975 0 0 1-1.818.415c-.686 0-1.284-.116-1.793-.349a3.542 3.542 0 0 1-1.27-.98 4.312 4.312 0 0 1-.764-1.435 5.927 5.927 0 0 1-.249-1.743v-.29c0-.62.083-1.202.249-1.744.172-.548.426-1.03.764-1.444a3.46 3.46 0 0 1 1.27-.972c.509-.238 1.104-.357 1.784-.357.72 0 1.351.144 1.893.432a3.19 3.19 0 0 1 1.278 1.187c.316.504.479 1.09.49 1.76h-1.884c-.017-.332-.1-.63-.249-.897a1.645 1.645 0 0 0-.615-.647c-.26-.16-.572-.24-.938-.24-.403 0-.738.082-1.004.248-.266.16-.473.382-.622.664-.15.277-.258.59-.324.938-.061.343-.091.7-.091 1.071v.29c0 .371.03.731.091 1.08.061.348.166.661.315.938.155.27.365.49.631.655.266.161.603.241 1.013.241Zm9.172 1.594c-.664 0-1.264-.108-1.801-.324a3.976 3.976 0 0 1-1.361-.921 4.078 4.078 0 0 1-.855-1.386 4.837 4.837 0 0 1-.299-1.719v-.332c0-.702.102-1.339.307-1.909a4.34 4.34 0 0 1 .855-1.46c.365-.41.797-.723 1.295-.939a4.022 4.022 0 0 1 1.618-.323c.642 0 1.204.107 1.685.323.482.216.88.52 1.196.913.321.388.559.85.714 1.387.16.536.24 1.129.24 1.776v.855h-6.939V25.67h4.964v-.158a2.804 2.804 0 0 0-.216-1.013 1.723 1.723 0 0 0-.589-.763c-.266-.194-.62-.29-1.063-.29-.332 0-.628.071-.888.215-.255.139-.468.34-.639.606a3.177 3.177 0 0 0-.399.963c-.088.37-.132.788-.132 1.253v.332c0 .393.052.759.157 1.096.111.332.271.623.482.872.21.249.465.445.763.589.299.138.64.208 1.021.208a2.77 2.77 0 0 0 1.287-.291c.376-.194.703-.468.979-.822l1.055 1.021a4.121 4.121 0 0 1-.756.814c-.31.254-.689.462-1.137.622-.443.16-.957.241-1.544.241Zm11.19-9.147v1.593h-4.383V22.02h4.383Zm1.568 0V31h-2v-8.981h2Zm-6.441 0h1.976l-.241 4.44c-.033.659-.1 1.24-.199 1.744a5.845 5.845 0 0 1-.382 1.286 2.745 2.745 0 0 1-.589.863 2.186 2.186 0 0 1-.814.49c-.31.105-.658.158-1.046.158h-.622l-.009-1.644.316-.025c.204-.016.382-.069.531-.157.149-.094.277-.227.382-.399.11-.171.199-.392.265-.664.072-.27.128-.592.166-.963.045-.37.078-.802.1-1.294l.166-3.835Zm10.052 2.855h2.648c.775 0 1.434.13 1.976.39s.954.623 1.237 1.088c.287.459.431.985.431 1.577 0 .437-.08.844-.24 1.22-.161.37-.399.694-.714.971-.31.277-.692.493-1.146.648-.448.154-.963.232-1.544.232h-3.976v-8.981h2.009v7.396h1.967c.399 0 .717-.07.955-.208.238-.138.409-.318.514-.54.111-.22.167-.456.167-.705 0-.255-.056-.495-.167-.722a1.27 1.27 0 0 0-.514-.556c-.238-.144-.556-.216-.955-.216h-2.648v-1.594Zm9.289-2.855 1.71 2.98 1.743-2.98h2.2l-2.723 4.407L149.558 31h-2.2l-1.826-3.105L143.706 31h-2.208l2.822-4.574-2.715-4.407h2.192Zm6.408 4.59v-.191c0-.648.094-1.248.282-1.801.188-.56.46-1.043.814-1.453a3.668 3.668 0 0 1 1.311-.963c.52-.232 1.107-.349 1.76-.349.659 0 1.245.117 1.76.35.52.226.96.547 1.32.962.359.41.633.894.821 1.453a5.54 5.54 0 0 1 .283 1.801v.19a5.54 5.54 0 0 1-.283 1.802 4.318 4.318 0 0 1-.821 1.453c-.36.41-.797.73-1.312.963-.515.227-1.098.34-1.751.34-.659 0-1.248-.113-1.768-.34a3.809 3.809 0 0 1-1.312-.963c-.36-.415-.634-.9-.822-1.453a5.566 5.566 0 0 1-.282-1.801Zm2.001-.191v.19c0 .405.041.787.124 1.146.083.36.213.675.39.947.177.27.404.484.681.639.277.155.606.232.988.232.37 0 .691-.077.963-.232.276-.155.503-.368.68-.64.177-.27.307-.586.39-.946.089-.36.133-.741.133-1.145v-.191c0-.398-.044-.775-.133-1.129a2.891 2.891 0 0 0-.398-.955 1.903 1.903 0 0 0-.681-.647c-.271-.16-.595-.24-.971-.24s-.703.08-.979.24c-.272.155-.496.37-.673.647a3.013 3.013 0 0 0-.39.955c-.083.354-.124.73-.124 1.129Zm11.745.29h-1.726v-1.012h1.394c.354 0 .637-.047.847-.141.216-.094.368-.224.456-.39.094-.172.141-.371.141-.598 0-.2-.047-.387-.141-.565a1.017 1.017 0 0 0-.456-.448c-.216-.116-.509-.174-.88-.174-.304 0-.578.05-.822.15-.238.099-.426.237-.564.414a.966.966 0 0 0-.208.615h-2c0-.56.157-1.04.473-1.445.321-.404.75-.714 1.286-.93a4.703 4.703 0 0 1 1.769-.323c.547 0 1.04.058 1.477.174.437.11.808.277 1.112.498.31.216.545.487.706.814.166.32.249.694.249 1.12 0 .305-.072.592-.216.864a2.251 2.251 0 0 1-.622.722 3.115 3.115 0 0 1-.988.481 4.416 4.416 0 0 1-1.287.175Zm-1.726-.58h1.726c.531 0 1.002.052 1.411.157.41.1.753.25 1.03.448.276.2.484.446.622.74.144.287.216.619.216.995 0 .42-.091.8-.274 1.137a2.418 2.418 0 0 1-.764.847c-.326.233-.716.41-1.17.531a5.796 5.796 0 0 1-1.502.183c-.598 0-1.179-.1-1.744-.299a3.269 3.269 0 0 1-1.386-.921c-.36-.42-.539-.955-.539-1.602h2c0 .227.069.44.208.639.138.2.337.362.597.49.26.121.573.182.938.182.377 0 .684-.058.922-.174.238-.122.415-.28.531-.473.116-.2.174-.41.174-.631 0-.299-.058-.54-.174-.722a.988.988 0 0 0-.531-.399c-.238-.088-.537-.133-.897-.133h-1.394v-.996Zm12.343-8.044h1.619c0 .492-.07.9-.208 1.22a1.896 1.896 0 0 1-.598.78c-.26.2-.583.36-.971.482a12.18 12.18 0 0 1-1.328.332c-.465.1-.885.257-1.262.473-.37.21-.683.506-.938.888-.249.377-.429.86-.539 1.453-.111.592-.144 1.314-.1 2.166v.565l-1.585.141v-.564c0-1.057.097-1.979.29-2.765.194-.785.468-1.447.822-1.983.36-.543.786-.974 1.278-1.295a4.759 4.759 0 0 1 1.66-.665c.416-.088.761-.177 1.038-.265.277-.094.482-.213.614-.357.139-.15.208-.352.208-.606Zm-1.403 4.44c.598 0 1.129.106 1.594.316a3.29 3.29 0 0 1 1.179.864c.32.37.564.808.73 1.311.172.504.257 1.052.257 1.644v.182c0 .62-.091 1.193-.274 1.719a3.979 3.979 0 0 1-.805 1.378 3.737 3.737 0 0 1-1.303.913c-.509.215-1.093.323-1.751.323-.653 0-1.237-.113-1.752-.34a3.678 3.678 0 0 1-1.303-.946 4.19 4.19 0 0 1-.805-1.436 5.629 5.629 0 0 1-.274-1.793v-.183a.596.596 0 0 1 .091-.34c.072-.11.158-.23.257-.357.1-.128.188-.274.266-.44a6.556 6.556 0 0 1 .979-1.47c.377-.42.806-.75 1.287-.987a3.656 3.656 0 0 1 1.627-.357Zm-.39 1.586c-.498 0-.905.12-1.22.357-.31.233-.54.543-.689.93a3.593 3.593 0 0 0-.216 1.262v.182c0 .371.041.723.124 1.054.083.332.208.626.374.88.171.25.393.446.664.59.277.144.603.216.98.216.381 0 .705-.072.971-.216.271-.144.489-.34.655-.59.172-.254.297-.547.374-.88.083-.331.125-.683.125-1.054v-.182c0-.343-.042-.667-.125-.971a2.276 2.276 0 0 0-.374-.806 1.818 1.818 0 0 0-.664-.564c-.271-.139-.597-.208-.979-.208Zm10.783 5.089v-4.284c0-.32-.058-.597-.175-.83a1.219 1.219 0 0 0-.531-.54c-.232-.126-.526-.19-.88-.19-.326 0-.609.055-.847.166-.237.11-.423.26-.556.448a1.087 1.087 0 0 0-.199.64h-1.992c0-.355.086-.698.257-1.03.172-.332.421-.628.747-.888.327-.26.717-.465 1.171-.614.454-.15.963-.225 1.527-.225.675 0 1.273.114 1.793.34.526.228.938.57 1.237 1.03.304.454.456 1.024.456 1.71v3.993c0 .41.028.777.083 1.104.061.32.147.6.258.838V31h-2.051a3.58 3.58 0 0 1-.224-.822 6.82 6.82 0 0 1-.074-.98Zm.29-3.66.017 1.236h-1.436a3.99 3.99 0 0 0-.98.108 2.01 2.01 0 0 0-.705.299 1.3 1.3 0 0 0-.424.481 1.41 1.41 0 0 0-.141.64c0 .237.056.456.166.655.111.194.271.346.482.457.215.11.476.166.78.166.409 0 .766-.083 1.071-.25.31-.171.553-.378.73-.622.177-.249.271-.484.282-.706l.648.889c-.067.227-.18.47-.34.73-.161.26-.371.51-.631.747a3.136 3.136 0 0 1-2.15.797c-.587 0-1.11-.116-1.569-.349a2.791 2.791 0 0 1-1.079-.954c-.26-.404-.39-.86-.39-1.37 0-.476.088-.896.265-1.262.183-.37.449-.68.797-.93.354-.248.786-.436 1.295-.564.509-.132 1.09-.199 1.743-.199h1.569Zm9.944.231v1.578h-4.648V25.77h4.648Zm-4.067-3.751V31h-2v-8.981h2Zm5.512 0V31h-2.001v-8.981h2.001Zm4.291 0V31h-2v-8.981h2Zm5.861 0-4.043 5.403h-2.283l-.265-1.81h1.668l2.424-3.593h2.499ZM203.048 31l-2.706-3.918 1.577-1.137 3.76 5.055h-2.631Z"/><defs><clipPath id="a"><path fill="#fff" d="M18 0h44.444v50H18z"/></clipPath></defs></svg>