<svg width="132" height="25" viewBox="0 0 132 25" fill="none" xmlns="http://www.w3.org/2000/svg">
<path d="M55.1425 8.6953C53.4218 8.6953 52.1347 9.3321 51.498 10.3853H51.3604V9.0189H48.2148V23.4923H51.3604V18.9042H51.498C52.1312 19.9574 53.4218 20.5942 55.1425 20.5942C58.3707 20.5942 60.9311 17.9576 60.9311 14.643C60.9311 11.3319 58.3707 8.6953 55.1425 8.6953ZM54.5059 17.7305C52.7507 17.7305 51.3604 16.364 51.3604 14.643C51.3604 12.9048 52.7507 11.5556 54.5059 11.5556C56.3127 11.5556 57.6858 12.9048 57.6858 14.643C57.6858 16.3812 56.2954 17.7305 54.5059 17.7305Z" fill="#3B175C"/>
<path d="M125.497 9.5448C123.697 9.5448 122.289 10.2264 121.432 11.4104H121.291C121.525 9.2695 122.737 8.23 125.345 7.8583L129.912 7.1974V4.3027L125.043 4.9946C120.545 5.621 118.387 8.0028 118.387 12.295C118.387 15.3996 118.586 16.3806 119.14 17.5543C120.011 19.4371 122.169 20.5936 124.778 20.5936C128.291 20.5936 131.003 18.1016 131.003 14.8386C131 11.6995 128.759 9.5448 125.497 9.5448ZM124.743 17.7161C122.954 17.7161 121.632 16.4942 121.632 14.8386C121.632 13.1658 122.936 11.9439 124.743 11.9439C126.515 11.9439 127.823 13.1658 127.823 14.8386C127.823 16.4942 126.498 17.7161 124.743 17.7161Z" fill="#3B175C"/>
<path d="M44.9168 5.6206L41.3756 12.7593L36.5506 5.6206H32.7891L39.7925 15.9534L39.5998 16.3458C39.2969 16.9722 38.8977 17.3095 37.9754 17.3095H35.4975V20.2834H38.3264C40.4842 20.2834 41.3549 19.7361 42.2566 17.936L48.4478 5.6172H44.9168V5.6206Z" fill="#3B175C"/>
<path d="M79.1019 9.0312L78.5651 16.0253C78.4825 17.1199 78.1142 17.5191 77.2435 17.5191H76.4727V20.3656H78.3483C80.4579 20.3656 81.394 19.4019 81.5454 17.3918L81.9584 11.9569H85.8266V20.2693H89.0065V9.0312H79.1019Z" fill="#3B175C"/>
<path d="M97.2048 11.5885C98.4919 11.5885 99.5141 12.3113 99.9993 13.2785L102.811 12.2184C102.026 10.0809 99.7997 8.6973 97.1394 8.6973C93.5741 8.6973 90.8828 11.2684 90.8828 14.6484C90.8828 18.025 93.5775 20.5996 97.1394 20.5996C99.7997 20.5996 102.026 19.2159 102.811 17.0784L99.9993 16.0183C99.5141 16.9821 98.4919 17.7083 97.2048 17.7083C95.4153 17.7083 94.1247 16.4382 94.1247 14.6519C94.1247 12.8586 95.4153 11.5885 97.2048 11.5885Z" fill="#3B175C"/>
<path d="M112.744 9.0156L107.86 16.1611V9.0156H104.715V20.2708H108.194L113.047 13.177V20.2708H116.192V9.0156H112.744Z" fill="#3B175C"/>
<path d="M71.7348 10.3814H71.5972C70.9639 9.3282 69.6734 8.6914 67.9526 8.6914C64.7245 8.6914 62.1641 11.328 62.1641 14.6426C62.1641 17.9537 64.7245 20.5937 67.9526 20.5937C69.6734 20.5937 70.9605 19.957 71.5972 18.9037H71.7348V20.2702H74.8803V9.015H71.7348V10.3814ZM68.5928 17.73C66.8032 17.73 65.4128 16.3808 65.4128 14.6426C65.4128 12.9044 66.786 11.5551 68.5928 11.5551C70.3479 11.5551 71.7383 12.9044 71.7383 14.6426C71.7348 16.3635 70.3479 17.73 68.5928 17.73Z" fill="#3B175C"/>
<path d="M23.9229 13.2792C23.9229 9.2039 21.7031 5.6208 18.3683 3.5798L18.413 6.3471C20.3953 8.0509 21.6515 10.5291 21.6515 13.2792C21.6515 14.5355 21.383 15.7333 20.9116 16.8279C19.4765 15.4649 18.4543 13.8609 17.8177 11.9678C17.0502 9.6755 16.8713 7.1663 16.8437 4.0995L16.8472 2.7812C16.1589 2.4852 15.4396 2.2512 14.7031 2.0859L14.7066 4.096C14.7788 14.6835 16.6131 19.0479 19.3422 22.3281C22.1333 20.2216 23.9229 16.9518 23.9229 13.2792C23.9229 13.2826 23.9229 13.2826 23.9229 13.2792Z" fill="#3B175C"/>
<path d="M9.21973 4.098L9.22317 2.0879C8.48669 2.2531 7.76742 2.4872 7.07913 2.7832L7.08257 4.1014C7.0516 7.1648 6.87608 9.6774 6.10863 11.9698C5.4754 13.8629 4.44984 15.4634 3.01474 16.8298C2.54326 15.7353 2.27482 14.5375 2.27482 13.2812C2.27482 10.5276 3.52752 8.0528 5.51325 6.349L5.55799 3.5817C2.21976 5.6193 0 9.2024 0 13.2777V13.2812C0 16.9537 1.79301 20.2236 4.58061 22.3301C7.31659 19.0533 9.14746 14.6855 9.21973 4.098Z" fill="#3B175C"/>
<path d="M13.0354 0.0447502C12.6465 0.0137702 12.2955 0 11.9651 0C11.6347 0 11.2837 0.0137702 10.8913 0.0447502V2.4231C10.8913 12.8454 10.4887 17.375 8.92969 24.4104C10.9051 24.9095 13.0044 24.9095 14.9833 24.4139C13.4346 17.4301 13.0354 12.9005 13.0354 2.4231V0.0447502Z" fill="#3B175C"/>
</svg>
