<svg width="187" height="57" viewBox="0 0 187 57" fill="none" xmlns="http://www.w3.org/2000/svg">
<path d="M105.631 52.0937C102.211 52.0937 99.5185 49.4042 99.5185 45.9035C99.5185 42.4028 102.208 39.7133 105.631 39.7133C109.052 39.7133 111.822 42.4028 111.822 45.9035C111.822 49.4042 109.052 52.0937 105.631 52.0937ZM111.819 39.5618H111.088C109.741 37.1398 107.245 35.7549 104.36 35.7549C99.6315 35.7549 95.2481 40.1769 95.2481 45.9035C95.2481 51.6301 99.5156 56.0135 104.36 56.0135C107.242 56.0135 109.741 54.6286 111.088 52.2066H111.819V55.5112H116.048V36.2185H111.819V39.5618ZM136.074 43.8678H126.196V36.2185H121.967V55.5142H126.196V47.8649H136.074V55.5142H140.303V36.2185H136.074V43.8678ZM155.177 45.6747L165.171 36.2185H159.403L150.449 45.0595V36.2185H146.22V55.5142H150.449V46.6346L159.48 55.5142H165.67L155.177 45.6747ZM85.2184 51.749H78.416V46.905H85.2184C87.1411 46.905 88.0624 47.9035 88.0624 49.327C88.0624 50.7505 87.1798 51.749 85.2184 51.749ZM85.7177 43.1368H78.413V39.9837H90.7905V36.2185H74.1842V55.5142H85.7147C89.6731 55.5142 92.3655 52.899 92.3655 49.324C92.3655 45.749 89.6404 43.1368 85.7177 43.1368ZM10.3715 23.9065C6.95394 23.9065 4.26449 21.217 4.26449 17.7222C4.26449 14.2274 6.95394 11.538 10.3715 11.538C13.789 11.538 16.5527 14.2274 16.5527 17.7222C16.5527 21.217 13.789 23.9065 10.3715 23.9065ZM16.5527 11.3835H15.8217C14.4784 8.96443 11.9822 7.57959 9.09955 7.57959C4.37741 7.58256 0 11.9986 0 17.7222C0 23.4459 4.26449 27.8233 9.10252 27.8233C11.9822 27.8233 14.4784 26.4414 15.8247 24.0194H16.5557V27.321H20.7816V8.04319H16.5527V11.3835ZM135.043 23.8678C131.548 23.8678 128.975 21.1784 128.975 17.7222C128.975 14.2274 131.548 11.538 135.043 11.538C138.422 11.538 141.111 14.2274 141.111 17.7222C141.111 21.1784 138.499 23.8678 135.043 23.8678ZM135.043 7.58256C129.973 7.58256 125.863 11.0774 124.942 15.7252H121.37V8.04319H117.144V27.324H121.37V19.642H124.942C125.825 24.3285 129.973 27.8233 135.043 27.8233C140.728 27.8233 145.337 23.33 145.337 17.7222C145.337 12.0759 140.689 7.58256 135.043 7.58256ZM146.874 12.0372H153.941V27.324H158.166V12.0372H165.233V8.04319H146.874V12.0372ZM100.36 8.04319L92.101 27.324H96.5557L102.969 11.9213L109.382 27.324H114.03L105.771 8.04319H100.36ZM57.997 11.538C62.1456 11.538 63.2986 14.7267 63.2986 14.7267H67.7533C67.7533 14.7267 65.9851 7.58256 57.997 7.58256C52.2734 7.58256 47.7801 12.0759 47.7801 17.7222C47.7801 23.4072 52.2734 27.8619 57.997 27.8619C65.9851 27.8619 67.7533 20.7178 67.7533 20.7178H63.2986C63.2986 20.7178 62.1456 23.9065 57.997 23.9065C54.6181 23.9065 52.0832 21.217 52.0832 17.7222C52.0832 14.2274 54.6151 11.538 57.997 11.538ZM37.7949 23.5202H30.9569V18.7207H37.7949C39.7147 18.7207 40.6359 19.7193 40.6359 21.1398C40.6359 22.5603 39.7533 23.5202 37.7949 23.5202ZM38.2942 14.9555H30.9569V11.8441H43.364V8.04021H26.731V27.321H38.2912C42.208 27.321 44.9361 24.7089 44.9361 21.1368C44.9361 17.5647 42.1723 14.9555 38.2942 14.9555ZM80.5795 23.8678C77.0074 23.8678 74.3952 21.1784 74.3952 17.7222C74.3952 14.2274 77.0074 11.538 80.5795 11.538C84.0356 11.538 86.7637 14.2274 86.7637 17.7222C86.7637 21.1784 84.1129 23.8678 80.5795 23.8678ZM80.5795 7.58256C74.7399 7.58256 70.1337 12.0759 70.1337 17.7222C70.1337 23.33 74.7429 27.8233 80.5795 27.8233C86.3804 27.8233 91.0639 23.33 91.0639 17.7222C91.0668 12.0759 86.3031 7.58256 80.5795 7.58256Z" fill="#FF5000"/>
<path fill-rule="evenodd" clip-rule="evenodd" d="M187 8.00002C187 12.4183 183.418 16 179 16C174.581 16 171 12.4183 171 8.00002C171 3.58173 174.581 0 179 0C183.418 0 187 3.58173 187 8.00002Z" fill="#00F500"/>
</svg>
