<svg width="894" height="160" fill="none" xmlns="http://www.w3.org/2000/svg"><path d="M838.287 111.43h-21.954V36.705h21.954v27.87h9.162l19.28-27.87h24.642l-26.063 36.898 28.273 37.827h-24.642l-21.8-29.575h-8.852v29.575Zm-98.132 0h-19.097V36.705h21.94v42.038l33.789-42.038h18.943v74.725h-21.785V69.392l-33.79 42.038ZM538.711.625v44.01h17.831L584.477.624h26.359l-35.83 53.98 37.885 56.825h-26.204l-30.145-45.277h-17.831v45.277H515.04V.625h23.671Zm164.305 36.08v75.725h-22.672V54.056h-20.069c-2.209 32.912-7.909 58.162-27.682 59.866l-14.565-19.42v-.042c1.632.633 3.265.943 4.728.943 12.399 0 15.171-24.772 16.635-58.684h63.611l.014-.014Z" fill="#3CAE61"/><path d="M337.349 0h79.823l-69.226 23.195-.296-9.013L337.349.014V0Zm106.872 51.544v15.463l16.437-.155c5.123 0 9.302-1.972 9.302-7.577 0-6.07-4.503-7.886-9.457-7.886l-16.282.155Zm0 28.349v15.463h19.435c5.573 0 10.189-1.93 10.189-7.577 0-6.098-4.771-7.872-10.189-7.872h-19.435v-.014Zm24.698 30.926h-46.596V36.095h40.488c18.07 0 25.782 9.83 25.782 19.941 0 5.45-2.336 13.745-8.992 16.773 9.006 2.662 14.833 8.746 14.833 17.773 0 10.59-6.333 20.237-25.515 20.237Zm-122.76.62h-19.098V36.714h21.94v42.038l33.79-42.038h18.943v74.725h-21.786V69.401l-33.789 42.038Zm-75.574-34.123c-7.895 0-15.635 2.802-15.635 10.886 0 5.943 5.109 9.731 11.61 9.731 6.038 0 11.766-1.817 16.719-6.436V79.132c-3.25-.83-8.204-1.816-12.694-1.816Zm-2.955-43.813c22.644 0 37.111 9.281 37.111 34.123V91.68c0 3.93 2.519 5.028 5.348 5.028 1.252 0 2.674-.155 4.095-.634v14.308c-3.462 1.254-7.867 2.197-12.103 2.197-7.712 0-13.524-2.83-16.662-8.492-7.389 5.817-16.044 9.281-27.204 9.281-14.158 0-26.415-8.182-26.415-23.11 0-19.181 18.084-25.166 33.184-25.166 5.981 0 12.582.788 17.93 2.042v-2.676c0-7.549-5.982-12.731-17.775-12.731-5.77 0-11.202.873-16.114 2.14l-9.781-15.632c6.305-2.028 17.282-4.76 28.414-4.76l-.028.028Zm-69.339 39.94c0-11.985-7.712-21.9-20.687-21.9-10.006 0-17.395 6.07-20.519 12.788-.858 2.634-1.281 5.675-1.281 9.112 0 3.436.437 6.478 1.281 9.112 3.124 6.717 10.513 12.787 20.519 12.787 12.961 0 20.687-9.915 20.687-21.9Zm-14.27-39.94c24.319 0 37.449 19.533 37.449 40.334 0 20.8-13.116 40.334-37.449 40.334-12.159 0-20.322-4.929-25.289-10.323v48.474l-22.25 6.886V35.728h19.688V46.84c4.799-6.83 13.609-13.337 27.851-13.337Zm-140.577-17.9L31.384 0h75.446v91.046h14.214v45.531H99.962v-24.364h-78.88v24.364H0v-45.53h13.918L43.43 15.59l.014.014ZM37.392 92.78h45.02v-69.57H64.61l-27.218 69.57Z" fill="#435861"/></svg>