<svg width="1804" height="419" viewBox="0 0 1804 419" fill="none" xmlns="http://www.w3.org/2000/svg">
<g clip-path="url(#clip0_2886_25155)">
<path d="M228.938 114.08C228.938 176.957 178 228.16 114.857 228.16C51.7155 228.16 0.777344 176.957 0.777344 114.08C0.777344 50.9381 51.7155 0 114.857 0C177.734 0 228.938 50.9381 228.938 114.08Z" fill="#F56E28"/>
<path d="M228.938 288.119C228.938 305.098 178 318.894 114.857 318.894C51.9808 318.894 0.777344 305.098 0.777344 288.119C0.777344 271.139 51.7155 257.344 114.857 257.344C177.734 257.344 228.938 271.139 228.938 288.119Z" fill="#F56E28"/>
<path d="M228.938 363.199C228.938 373.281 178 381.24 114.857 381.24C51.9808 381.24 0.777344 373.281 0.777344 363.199C0.777344 353.118 51.7155 345.159 114.857 345.159C177.734 344.893 228.938 353.118 228.938 363.199Z" fill="#F56E28"/>
<path d="M228.938 413.342C228.938 416.26 178 418.382 114.857 418.382C51.9808 418.382 0.777344 415.995 0.777344 413.342C0.777344 410.423 51.7155 408.301 114.857 408.301C177.734 408.036 228.938 410.423 228.938 413.342Z" fill="#F56E28"/>
<path d="M479.649 189.426H446.752V89.4071L374.855 189.426H343.549V36.8771H376.446V136.896L448.609 36.8771H479.649V189.426Z" fill="#0047BB"/>
<path d="M503.79 36.8771H536.953V97.1008H604.074V36.8771H637.503V189.426H604.074V128.141H536.953V189.426H503.79V36.8771Z" fill="#0047BB"/>
<path d="M694.808 189.426H661.646V36.8771H764.848V67.1216H694.808V189.426Z" fill="#0047BB"/>
<path d="M925.622 113.019C925.622 66.591 891.929 34.4894 845.766 34.2241H844.97C798.277 34.7547 764.849 66.591 764.849 113.019C764.849 159.447 798.542 191.283 844.705 191.814H845.501C891.929 191.549 925.622 159.447 925.622 113.019ZM845.235 161.039C818.44 161.039 799.603 142.733 799.603 113.019C799.603 83.3051 818.174 64.9992 845.235 64.9992C872.031 64.9992 890.602 83.3051 890.867 113.019C890.602 142.733 872.031 161.039 845.235 161.039Z" fill="#0047BB"/>
<path d="M1275.03 67.9175H1226.21V36.8771H1357.27V67.9175H1308.45V189.426H1275.03V67.9175Z" fill="#0047BB"/>
<path d="M1377.43 36.8771H1445.62C1481.7 36.8771 1503.72 58.3667 1503.72 89.9377C1503.72 125.223 1476.39 143.529 1442.43 143.529H1410.86V189.161H1377.43V36.8771ZM1443.49 113.815C1460.21 113.815 1470.02 103.733 1470.02 90.203C1470.02 75.0807 1459.68 67.1216 1442.96 67.1216H1410.86V113.815H1443.49Z" fill="#0047BB"/>
<path d="M1803.24 189.426L1749.12 111.162L1801.12 36.8771H1762.65L1730.02 83.5704L1697.92 36.8771H1658.39L1710.39 111.958L1656.27 189.426H1694.73L1729.49 139.549L1763.71 189.426H1803.24Z" fill="#0047BB"/>
<path d="M1618.59 189.426H1652.55L1587.55 35.8159H1556.78L1491.78 189.426H1525.74L1540.06 154.406H1604.53L1618.59 189.426ZM1552 124.427L1572.16 76.6725L1592.33 124.427H1552Z" fill="#0047BB"/>
<path d="M1020.34 161.039C993.54 161.039 974.704 142.733 974.704 113.019C974.704 83.3051 993.275 64.9992 1020.34 64.9992C1034.4 64.9992 1046.07 68.9788 1055.89 77.4685L1076.58 56.7748C1062.52 43.2444 1043.68 34.4894 1020.87 34.2241H1020.07C973.377 34.7547 939.949 66.591 939.949 113.019C939.949 159.447 973.643 191.283 1019.81 191.814H1020.6C1043.42 191.549 1062.25 182.794 1076.31 169.263L1055.62 148.57C1045.8 157.059 1034.4 161.039 1020.34 161.039Z" fill="#0047BB"/>
<path d="M1159.62 161.039C1132.82 161.039 1113.99 142.733 1113.99 113.019C1113.99 83.3051 1132.56 64.9992 1159.62 64.9992C1173.68 64.9992 1185.35 68.9788 1195.17 77.4685L1215.86 56.7748C1201.8 43.2444 1182.97 34.4894 1160.15 34.2241H1159.35C1112.93 34.7547 1079.5 66.591 1079.5 113.019C1079.5 159.447 1113.19 191.283 1159.35 191.814H1160.15C1182.97 191.549 1201.8 182.794 1215.86 169.263L1195.17 148.57C1185.35 157.059 1173.68 161.039 1159.62 161.039Z" fill="#0047BB"/>
<path d="M451.26 283.608H362.915V327.118H407.751C443.832 327.118 462.403 342.771 462.403 370.362C462.403 402.199 439.587 416.525 401.914 416.525H343.282V265.303H451.26V283.608ZM363.18 345.159V397.954H403.771C428.71 397.954 442.505 389.464 442.505 370.362C442.505 353.648 430.567 345.424 405.098 345.424H363.18V345.159Z" fill="#0047BB"/>
<path d="M536.159 264.772H551.812L618.138 416.26H597.709L580.995 378.056H506.976L490.262 416.26H470.099L536.159 264.772ZM514.139 360.812H573.567L552.873 313.057L543.853 289.976L534.832 313.057L514.139 360.812Z" fill="#0047BB"/>
<path d="M744.155 348.608H654.217V416.26H634.319V265.037H654.217V330.302H744.155V265.037H763.787V416.26H744.155V348.608Z" fill="#0047BB"/>
<path d="M799.603 265.037H819.5V341.445L895.907 265.037H921.376L850.806 336.934L926.682 416.26H900.418L832.235 346.485L819.5 358.159V416.26H799.603V265.037Z" fill="#0047BB"/>
</g>
<defs>
<clipPath id="clip0_2886_25155">
<rect width="1802.47" height="418.382" fill="white" transform="translate(0.777344)"/>
</clipPath>
</defs>
</svg>
