<svg width="97" height="36" viewBox="0 0 97 36" fill="none" xmlns="http://www.w3.org/2000/svg">
<path d="M55.2823 8.2208C54.9755 7.4233 54.6074 7.2393 53.6872 7.2393H51.2946C50.4357 7.2393 50.0676 7.4233 49.7608 8.2822L42.2762 28.1595C41.9694 29.0184 42.1535 29.3865 43.1351 29.3865H45.2823C46.816 29.3865 47.2455 29.1411 47.5522 28.2208L48.5338 25.2761H56.2639L57.2455 28.2208C57.5522 29.1411 57.9818 29.3865 59.5769 29.3865H61.9081C62.8283 29.3865 63.0737 28.957 62.767 28.1595L55.2823 8.2208ZM49.8835 21.1656L51.54 16.319C52.2762 14.1104 52.2762 12.5153 52.2762 12.5153H52.5829C52.5829 12.5153 52.6443 14.1104 53.3805 16.3804L54.9755 21.227H49.8835V21.1656ZM76.5706 7.1779H61.724C60.7424 7.1779 60.4357 7.4847 60.4357 8.4662V10.5521C60.4357 11.4724 60.7424 11.7791 61.724 11.7791H66.632V28.0368C66.632 29.0184 66.9387 29.3251 67.859 29.3251H70.3743C71.3559 29.3251 71.6628 29.0184 71.6628 28.0368V11.8405H76.5093C77.4909 11.8405 77.7976 11.5337 77.7976 10.6135V8.5276C77.7976 7.546 77.4909 7.1779 76.5706 7.1779ZM89.8833 15.3374H84.8533V11.7178H94.2393C95.1593 11.7178 95.5274 11.3497 95.5274 10.4294V8.4662C95.5274 7.4847 95.1593 7.1779 94.2393 7.1779H80.9883C80.0673 7.1779 79.6995 7.4847 79.6995 8.4662V28.1595C79.6995 29.0797 80.0673 29.3865 80.9263 29.3865H89.8223C94.1163 29.3865 96.9383 26.6871 96.9383 22.3926C97.0003 18.0368 94.1783 15.3374 89.8833 15.3374ZM89.1473 24.8466H84.7914V19.8773H89.1473C90.8033 19.8773 91.7243 20.8589 91.7243 22.3926C91.7853 23.865 90.8033 24.8466 89.1473 24.8466Z" fill="#373A36"/>
<path d="M29.5769 0H5.89595C2.64435 0 0.00634766 2.63804 0.00634766 5.8896V29.5705C0.00634766 32.8221 2.64435 35.4601 5.89595 35.4601H29.5155C32.767 35.4601 35.4051 32.8221 35.4051 29.5705V5.8896C35.4664 2.63804 32.8284 0 29.5769 0ZM33.6259 28.9571C33.5646 29.0184 33.4419 29.0797 33.3805 29.0184C28.8407 26.2577 23.4419 24.6626 17.7364 24.6626C12.0308 24.6626 6.63215 26.2577 2.09225 29.0184C2.03085 29.0797 1.90815 29.0184 1.84685 28.9571C1.78545 28.8344 1.84685 28.773 1.90815 28.7117C6.07995 25.5215 9.63825 21.4724 12.3989 16.6871C15.1597 11.9018 16.8775 6.7485 17.5523 1.59509C17.5523 1.53374 17.6137 1.41104 17.7364 1.41104C17.8591 1.41104 17.9204 1.47239 17.9204 1.59509C18.5953 6.7485 20.313 11.9018 23.0738 16.6871C25.8345 21.4724 29.4542 25.5215 33.5646 28.6503C33.6873 28.773 33.6873 28.8344 33.6259 28.9571Z" fill="#FE5000"/>
</svg>
