<svg width="1800" height="193" viewBox="0 0 1800 193" fill="none" xmlns="http://www.w3.org/2000/svg">
<path d="M1103.3 79.2C1093.9 74.4 1083.1 72 1070.8 72H1009.6V40.7H1119.2V2.6H963.3V189.8H1070.5C1083.2 189.8 1094.1 187.2 1103.4 182.3C1112.7 177.4 1119.9 170.5 1125.2 161.7C1130.5 152.9 1133.1 142.5 1133.1 130.5C1133.1 118.6 1130.5 108.2 1125.2 99.5C1119.9 90.8 1112.6 84 1103.3 79.2ZM1080.7 147.1C1077 150.8 1071.6 152.7 1064.7 152.7H1009.6V108.6H1064.7C1069.2 108.6 1073 109.5 1076.3 111.3C1079.6 113.1 1082.1 115.6 1083.8 118.8C1085.5 122 1086.3 126 1086.3 130.8C1086.3 138 1084.4 143.4 1080.7 147.1Z" fill="#E1192F"/>
<path d="M1223.6 2.6L1142.5 189.8H1190.4L1205.7 152.2H1288L1303.2 189.8H1353.2L1272 2.6H1223.6ZM1220.9 115.3L1247.1 51.3L1273.1 115.3H1220.9Z" fill="#E1192F"/>
<path d="M1517.5 74.2H1428.2V2.6H1380.6V189.8H1428.2V112.7H1517.5V189.8H1564.9V2.6H1517.5V74.2Z" fill="#E1192F"/>
<path d="M1800 189.8L1708.1 90.1L1796.6 2.6H1739.3L1661.5 82.8V2.6H1615.2V189.8H1661.5V105.4L1739.3 189.8H1800Z" fill="#E1192F"/>
<path d="M188 2.6H135.6L96.3 62.9L54.9 2.6H0.3L65.6 93.3L0 189.8H52.7L92.6 127.7L134.8 189.8H189.3L123 96L188 2.6Z" fill="#E1192F"/>
<path d="M349.7 11.9C334.4 4 316.5 0 295.8 0C275.1 0 257.1 4 241.8 11.9C226.5 19.8 214.7 31 206.5 45.3C198.3 59.6 194.2 76.6 194.2 96.2C194.2 115.6 198.3 132.6 206.5 147C214.7 161.4 226.5 172.6 241.8 180.6C257.1 188.5 275.1 192.5 295.8 192.5C316.5 192.5 334.4 188.5 349.7 180.6C364.9 172.7 376.7 161.5 385 147C393.3 132.6 397.4 115.6 397.4 96.2C397.4 76.6 393.3 59.6 385 45.3C376.7 31 364.9 19.8 349.7 11.9ZM342.8 128C338.9 136.6 332.9 143.2 325 147.7C317.1 152.2 307.3 154.4 295.7 154.4C284.1 154.4 274.4 152.2 266.7 147.7C258.9 143.2 253.1 136.7 249.1 128C245.1 119.4 243.1 108.8 243.1 96.3C243.1 83.8 245.1 73.3 249.1 64.6C253.1 56 259 49.4 266.8 44.9C274.6 40.4 284.2 38.2 295.8 38.2C307.4 38.2 317.1 40.5 325.1 45C333 49.5 339 56.1 342.9 64.7C346.8 73.3 348.8 83.8 348.8 96.3C348.7 108.8 346.7 119.3 342.8 128Z" fill="#E1192F"/>
<path d="M498.3 91.9L452.7 2.6H399.3L472.8 139.3L447.1 189.8H498.2L592.9 2.6H542.3L498.3 91.9Z" fill="#E1192F"/>
<path d="M787.4 2.6L727.7 113.5L666.8 2.6H614.9V189.8H658V68.5L706.6 156.7H747.8L795.4 67.9V189.8H838.5V2.6H787.4Z" fill="#E1192F"/>
</svg>
