<svg width="351" height="104" viewBox="0 0 351 104" fill="none" xmlns="http://www.w3.org/2000/svg">
<path d="M94.063 16.398C93.632 13.659 92.086 11.83 89.475 10.962C88.233 10.549 86.798 10.298 85.082 10.197C84.037 10.136 82.991 10.214 81.98 10.291C81.844 10.303 81.707 10.312 81.571 10.323V4.319L86.446 4.339L91.837 5.109L92.044 0.231H75.386L76.049 6.319L76.112 19.943L75.347 26.408L76.312 26.399C76.314 26.397 78.595 26.376 79.674 26.404C80.258 26.418 80.842 26.451 81.424 26.479C82.236 26.524 83.067 26.567 83.901 26.567C84.093 26.567 84.286 26.565 84.475 26.56C87.613 26.475 90.005 25.701 91.79 24.193C94.561 21.847 94.414 18.619 94.063 16.398ZM88.641 17.735C88.639 18.305 88.6 18.801 88.523 19.253C88.307 20.5 87.658 21.362 86.589 21.811C85.177 22.414 83.643 22.574 81.551 22.331V14.553C83.45 14.299 85.295 14.232 87.024 15.109C88.115 15.663 88.643 16.522 88.641 17.735Z" fill="#191646"/>
<path d="M110.615 3.236L109.814 0L104.33 0.069L103.697 2.913L97.066 20.091L94.173 26.254L99.931 26.342L100.933 21.649L102.311 18.073L110.574 18.057L112.471 22.617L113.48 26.28L120.916 26.287L118.381 21.923L110.615 3.236ZM109.001 14.089C108.134 14.101 107.25 14.122 106.365 14.143C105.496 14.164 104.626 14.186 103.773 14.196C104.273 12.949 104.804 11.696 105.332 10.451C105.728 9.516 106.123 8.587 106.5 7.666L109.001 14.089Z" fill="#191646"/>
<path d="M163.865 26.32L171.439 26.242L159.39 12.604L170.685 0.157L164.04 0.206L162.053 2.989C162.053 2.989 156.957 8.586 154.198 11.639L154.201 4.861L154.981 0.228H148.019L148.442 4.798L148.542 20.907L148.013 26.274H154.961L154.195 20.947L154.198 14.541L163.865 26.32Z" fill="#191646"/>
<path d="M143.285 18.486C143.27 16.736 143.361 4.974 143.355 4.976L143.97 0.289H137.093L137.654 4.819C137.654 4.819 137.671 8.265 137.674 10.307H127.952C127.9 7.347 127.914 4.311 128.667 1.357L128.935 0.298H121.781L121.9 1.252C121.943 1.591 122.35 5.222 122.401 6.898C122.505 10.413 122.475 13.998 122.444 17.467L122.438 18.241C122.426 19.73 122.092 24.264 121.935 25.073L121.738 26.086H128.634L128.526 25.14C128.457 24.535 128.38 23.935 128.304 23.334C128.131 21.981 127.968 20.703 127.892 19.402C127.82 18.093 127.835 16.743 127.856 15.434C127.859 15.122 127.863 14.814 127.866 14.5H137.761C137.761 15.15 137.771 15.801 137.781 16.449C137.823 19.422 137.862 22.231 137.099 25.017L136.807 26.089H144.03L143.837 25.082C143.379 22.691 143.302 20.3 143.285 18.486Z" fill="#191646"/>
<path d="M229.943 39.194L230.148 38.162H215.406L215.523 39.131C216.055 43.552 216.433 47.701 216.675 51.812C216.851 54.763 216.81 57.802 216.768 60.743C216.753 61.788 216.738 62.832 216.733 63.884H189.156C189.005 55.79 188.928 47.443 191.004 39.258L191.275 38.182H176.09L176.213 39.158C176.225 39.244 177.364 49.098 177.505 53.776C177.778 62.79 177.699 71.97 177.623 80.849L177.606 82.957C177.571 86.825 176.697 98.624 176.287 100.737L176.087 101.766H190.72L190.61 100.803C190.434 99.267 190.24 97.742 190.046 96.221C189.616 92.866 189.173 89.394 188.982 85.996C188.788 82.591 188.836 79.097 188.88 75.721C188.897 74.489 188.913 73.256 188.918 72.024H216.947C216.932 74.135 216.964 76.257 216.993 78.317C217.101 86.05 217.208 93.353 215.197 100.69L214.897 101.787H230.137L229.939 100.757C228.745 94.505 228.544 88.29 228.504 83.574C228.463 78.873 228.506 58.05 228.699 52.297C228.889 46.771 229.295 42.485 229.943 39.194Z" fill="#191646"/>
<path d="M139.998 94.008V71.47C147.043 71.668 160.475 72.732 160.615 72.741L161.547 72.814L161.586 62.474L139.996 63.698V45.937C146.44 45.859 158.477 45.797 164.741 47.737L165.72 48.039L165.856 47.025C166.291 43.756 165.989 39.198 165.974 39.005L165.919 38.202H126.949L127.106 39.197C128.408 47.547 128.327 56.018 128.248 64.207C128.229 66.103 128.209 68.003 128.209 69.91C128.315 82.027 126.993 100.608 126.979 100.792L126.915 101.715L165.657 101.903L165.685 101.06C165.747 98.998 165.929 93.472 166.019 92.67L166.155 91.487L164.987 91.721C157.281 93.29 149.988 93.962 139.998 94.008Z" fill="#191646"/>
<path d="M106.899 66.139C106.896 66.137 106.891 66.135 106.886 66.132C107.074 66.021 107.249 65.909 107.421 65.792C110.919 63.408 114.967 59.905 115.207 53.935C115.542 45.67 111.037 39.843 102.843 37.941C95.767 36.303 88.482 36.562 80.57 38.733L80.467 38.763C76.636 39.817 75.981 40.159 76.1 41.066C76.316 42.736 76.646 44.615 76.966 46.435C77.199 47.768 77.435 49.112 77.634 50.408C77.707 50.888 78.042 51.277 78.508 51.425C78.968 51.566 79.465 51.44 79.797 51.09L80.291 50.568C83.997 46.66 88.841 44.812 95.022 44.943C98.948 45.017 102.21 47.499 102.959 50.974C103.986 55.769 102.253 59.928 98.544 61.574C96.769 62.358 94.702 62.959 92.224 63.401C89.823 63.83 85.069 64.144 85.019 64.148L84.175 64.204L84.53 72.301L85.384 72.271C85.426 72.27 89.651 72.133 93.186 72.132H93.192C94.788 72.132 99.9 72.482 102.507 74.042C104.813 75.426 106.469 77.68 106.933 80.077C107.636 83.682 108.25 92.292 98.862 94.344C90.741 96.116 84.128 94.332 79.203 89.034C78.782 88.581 78.357 88.128 77.862 87.605L77.344 87.053C77.032 86.724 76.574 86.61 76.144 86.749C75.715 86.889 75.413 87.253 75.358 87.701L75.114 89.681C74.877 91.625 74.658 93.457 74.366 95.257C74.117 96.817 74.639 97.826 76.119 98.638C81.601 101.632 87.634 103.141 94.097 103.141C95.333 103.141 96.583 103.088 97.849 102.977C103.049 102.525 107.818 100.625 111.64 97.485C117.211 92.916 119.74 87.367 119.152 81.005C118.482 73.745 114.362 68.742 106.899 66.139Z" fill="#191646"/>
<path d="M292.592 74.044C292.598 72.693 292.602 71.349 292.602 70.015C292.601 68.771 292.596 67.522 292.591 66.271C292.553 57.264 292.514 47.955 294.121 39.208L294.31 38.189H279.122L279.316 39.212C279.827 41.923 280.268 44.807 280.627 47.786C280.736 48.702 280.618 49.163 280.134 49.677C275.309 54.843 270.588 60.099 266.022 65.183C261.854 69.825 257.548 74.617 253.168 79.335C253.268 75.355 253.187 71.382 253.11 67.519C252.915 57.776 252.73 48.571 255.138 39.311L255.42 38.226H239.853L240.197 39.343C241.651 44.075 241.657 48.73 241.661 53.655L241.675 58.392C241.703 66.669 241.732 75.227 241.652 83.64C241.64 84.907 241.673 86.186 241.706 87.427C241.766 89.748 241.827 92.151 241.586 94.475C241.442 95.876 241.119 97.253 240.775 98.714C240.619 99.384 240.462 100.056 240.32 100.739L240.103 101.777H255.083L254.925 100.779C254.602 98.716 254.381 96.659 254.169 94.667C254.046 93.507 253.923 92.353 253.78 91.196C253.722 90.725 253.941 90.004 254.239 89.682C258.514 85.05 262.729 80.36 266.804 75.822C271.425 70.675 276.202 65.357 281.071 60.125C281.073 60.658 281.073 61.187 281.075 61.706C281.081 64.168 281.088 66.505 281.061 68.84C281.028 71.657 281.063 74.515 281.096 77.28C281.145 81.531 281.197 85.928 281.008 90.236C280.902 92.623 280.498 94.959 280.072 97.433C279.879 98.546 279.688 99.659 279.524 100.779L279.379 101.77H294.315L294.119 100.746C292.531 92.353 292.563 83.047 292.592 74.044Z" fill="#191646"/>
<path d="M330.93 46.653C330.93 46.532 330.944 46.337 330.963 46.122L350.147 48.591L348.919 38.076H300.957L299.895 48.587L320.435 46.112V47.23C320.435 55.18 320.421 84.787 320.419 86.233L318.439 101.76H332.982L331.164 86.507C331.162 86.242 330.977 59.784 330.93 46.653Z" fill="#191646"/>
<path d="M0 101.361L50.65 101.304L50.624 51.1609C40.083 71.1609 20.313 84.1749 0.026 89.1489C0.083 92.9369 0 101.361 0 101.361Z" fill="#008FB4"/>
<path d="M16.195 76.117C35.31 66.463 44.527 48.807 44.527 48.807C44.527 48.807 44.461 43.01 44.461 42.887C33.928 39.187 24.38 33.768 16.214 25.655C16.257 39.415 16.195 76.117 16.195 76.117Z" fill="#008FB4"/>
<path d="M18.921 0.241943C18.921 0.241943 18.916 15.5739 18.897 19.3979C23.917 24.0629 26.441 26.2459 31.661 29.5819L31.702 9.02794C25.736 5.74894 23.435 4.00594 18.921 0.241943Z" fill="#008FB4"/>
</svg>
