<svg width="317" height="317" viewBox="0 0 317 317" fill="none" xmlns="http://www.w3.org/2000/svg">
<path d="M27.0617 145.982L82.969 139.337H201.781C207.767 139.346 213.66 137.857 218.923 135.007C224.187 132.157 228.654 128.035 231.918 123.018C232.742 121.715 233.021 120.14 232.693 118.633C232.366 117.127 231.459 115.81 230.168 114.966C228.878 114.123 227.307 113.821 225.796 114.126C224.285 114.431 222.954 115.318 222.091 116.596C217.595 123.476 209.999 127.597 201.781 127.597H95.942L117.814 103.693C121.057 100.184 124.984 97.3773 129.354 95.4449C133.723 93.5126 138.443 92.4959 143.22 92.4578H211.76C225.869 92.4431 239.466 97.7411 249.846 107.298L283.035 137.787C284.116 138.784 285.533 139.338 287.004 139.337H299.425C309.111 139.337 317 147.215 317 156.912V197.205C317 200.198 314.57 202.629 311.576 202.629H307.76C304.896 183.656 288.635 169.028 268.888 169.028C249.141 169.028 232.881 183.656 230.016 202.617H87.536C84.6713 183.656 68.4228 169.028 48.6639 169.028C28.905 169.028 12.6564 183.656 9.79177 202.617H5.42438C3.98584 202.617 2.60623 202.046 1.58903 201.028C0.571827 200.011 0.00036733 198.632 0.00036733 197.193V177.61C-0.0354463 169.968 2.67856 162.568 7.64682 156.761C12.6151 150.955 19.5062 147.129 27.0617 145.982Z" fill="black" fill-opacity="0.15"/>
<path d="M268.882 236.218C253.596 236.218 241.163 223.785 241.163 208.499C241.163 193.213 253.596 180.78 268.882 180.78C276.204 180.786 283.226 183.688 288.417 188.852C293.608 194.017 296.545 201.024 296.589 208.346C296.589 208.405 296.554 208.44 296.554 208.499C296.554 208.558 296.589 208.593 296.589 208.652C296.542 215.973 293.604 222.979 288.414 228.142C283.224 233.306 276.203 236.209 268.882 236.218ZM20.9385 208.499C20.9385 193.213 33.3715 180.78 48.6574 180.78C63.9432 180.78 76.3762 193.213 76.3762 208.499C76.3762 223.785 63.9432 236.218 48.6574 236.218C33.3715 236.218 20.9385 223.773 20.9385 208.499Z" fill="black" fill-opacity="0.15"/>
</svg>
