<svg fill="none" height="60" viewBox="0 0 122 60" width="122" xmlns="http://www.w3.org/2000/svg"><g fill="#001689"><path d="m30.512 14.7009s.499.528.992.644c0 0-.202-.53-.992-.644z"/><path d="m34.787 16.4239c-.044.252-.145.443-.324.56-.042-.549-1.146-.555-1.146-.555v-.055c.676.086 1.47.05 1.47.05z"/><path d="m36.8992 17.0147c.0393.0393.0615.0926.0618.1482 0 .0276-.0055.0549-.016.0804-.0106.0255-.026.0486-.0455.0681s-.0427.035-.0682.0455c-.0254.0106-.0527.016-.0803.016-.0557 0-.1091-.0221-.1485-.0615s-.0615-.0928-.0615-.1485.0221-.1091.0615-.1485.0928-.0615.1485-.0615c.0556.0003.1089.0225.1482.0618z"/><path d="m27.446 15.3449c.49-.116.993-.644.993-.644-.793.115-.993.644-.993.644z"/><path d="m25.627 16.3739v.055s-1.1.005-1.143.555c-.177-.117-.281-.308-.321-.559 0 0 .792.035 1.464-.051z"/><path d="m22.3415 17.3104c-.0394.0394-.0928.0615-.1485.0615l.001.001c-.113 0-.205-.093-.205-.21-.0006-.0272.0043-.0543.0143-.0797.0099-.0254.0248-.0486.0438-.0682s.0416-.0353.0666-.0461c.0251-.0108.052-.0166.0793-.017.0557 0 .1091.0221.1485.0615.0393.0394.0615.0928.0615.1485s-.0222.1091-.0615.1485z"/><path clip-rule="evenodd" d="m58.948 0v59.33h-58.948v-59.33zm-25.603 18.055s-.423.125-.564.162c0 0-.007-.246.007-.365l-.0457.0111c-.1185.029-.2552.0625-.3763.0749 0 0-.424.948-.752 1.33 0 0-.02.21.164.53 0 0 .239-.56.666-1.01.244-.252.398-.381.901-.733zm1.11-.203c-.131.037-.808.25-1.137.488-.408.294-.689.633-.646 1.217 0 0 .332-.463.696-.671.291-.167.813-.627 1.087-1.034zm-.008-4.289c-.123 0-.366.06-.366.261 0 .1334.1331.3868.2488.6072.0621.1183.1192.227.1482.3028h.008c.029-.0759.0865-.185.1489-.3036.1159-.2202.2491-.4732.2491-.6064 0-.2-.242-.26-.368-.26h-.069zm.277 1.576c.0093-.0456.0199-.1028.0319-.1674.0628-.3385.1633-.8806.3111-1.0166.165-.157.41-.172.532-.165.0347.0022.0684.0124.0984.0298.0301.0174.0557.0415.0749.0705.0192.0289.0314.062.0357.0964.0042.0345.0005.0695-.011.1023-.048.17-.591.987-.664 1.09-.0842-.0149-.1004-.0161-.1965-.0232-.0465-.0035-.1117-.0084-.2125-.0168zm-.5173-.1809c-.0643-.3392-.1647-.8689-.3097-1.0031-.166-.157-.411-.172-.532-.165-.0344.0028-.0678.0134-.0975.0309-.0298.0176-.0552.0417-.0743.0704-.0192.0288-.0316.0615-.0363.0957-.0047.0343-.0016.0691.0091.102.049.17.59.987.663 1.09.0852-.0149.1009-.0161.1989-.0233.047-.0035.1128-.0083.2141-.0167-.0102-.0485-.0219-.1101-.0351-.1798zm-.3107-2.3861h.42v-.469h.34v.47h.425v.296h-.425v.551h-.34v-.55h-.42zm-5.016-2.78303h.42v-.47h.345v.47h.423v.29503h-.423v.554h-.345v-.554h-.42zm10.137 5.82003c-.0034-.0913-.0104-.1823-.021-.273-.0306-.1946-.0346-.3924-.012-.588l.0088.0033c.3012.1161.5062.1952.9222.8697 0 0-.668-.414-.898-.013zm-12.506 7.4439c.093-.374.07-.77 0-1.028-.558 1.566-1.788 1.473-1.788 1.473.254.64.931.598 1.216.418.331-.209.502-.578.572-.863zm2.3943 5.4067c-.1525-.207-.3088-.4193-.3823-.6097-.56.498-.634 1.507-.569 1.843.127.654.842 1.224.842 1.224.0231-.0742.065-.1645.1151-.2721.1495-.3216.3714-.7989.3789-1.4709.0005-.1912-.1889-.4484-.3847-.7143zm-.5323-1.0637c-.303.22-.568.856-.65 1.09-.1074-.1961-.2555-.3701-.3997-.5394-.2844-.3338-.5532-.6493-.4623-1.0806.135-.646.65-1.333.65-1.333 1.251.711.862 1.863.862 1.863zm-2.921-1.132c.22-.106.506-.443.706-.69.168.338.473.836.473.836-.0073.0705-.0111.1581-.0155.26-.0083.193-.019.4376-.0595.715-.063.422-.61 1.141-.61 1.141-.0445-.1204-.1072-.2548-.1743-.3984-.144-.3086-.308-.66-.3537-1.0066-.041-.343.034-.857.034-.857zm-1.399.037c.007.635.505 1.505.66 1.745.252-.192.358-.327.442-.553.097-.279.031-1.105.031-1.105-.517.243-1.133-.087-1.133-.087zm1.254 1.484c-.104.119-.35.347-.45.436.1512.1593.3176.3023.497.429.226.164.431.11.431.11-.07-.221-.478-.975-.478-.975zm.621 1.223c.114-.114.776-1.04.825-1.23.1042.1914.2725.3974.4335.5946.1679.2056.328.4016.3995.5614.057.133.072.488-.063.85-.121.313-.532 1.03-.532 1.03-.182-.17-.523-.509-.767-.989-.247-.483-.296-.817-.296-.817zm2.0531 1.5611c-.0948-.1382-.182-.2655-.2331-.3691-.072.1482-.1925.2999-.3116.45-.1093.1376-.2175.274-.2864.405-.1502.3188-.1794.6813-.082 1.02.132.409.737.984.737.984.0571-.1004.1233-.2111.1894-.3217.1386-.232.2774-.4642.3336-.6023.083-.213.131-.461.076-.763-.0449-.2515-.2469-.5461-.4229-.8029zm-1.6375.0205c-.1153-.1546-.234-.3137-.3056-.4736l-.0346.0716c-.1199.2478-.2753.5689-.3644.8254-.102.276-.075.714.005.98.084.266.574.906.574.906.0318-.1157.097-.2289.1736-.3621.0704-.1223.1506-.2616.2234-.4349.171-.416.138-.64.038-.997-.0457-.1619-.1753-.3356-.3094-.5154zm1.2854 3.5344c-.02-.545.826-1.572.826-1.572.442.433.554.708.608 1.14.046.432-.097.755-.287 1.135-.17.339-.612.843-.612.843-.0252-.1691-.1141-.3444-.2124-.5383-.1435-.2831-.3072-.6059-.3226-1.0077zm-.327-.407c.106-.397-.27-1.069-.404-1.265-.674.633-.743 1.149-.669 1.462.077.317.41 1.007.41 1.007.0338-.0576.0835-.1337.1409-.2217.1819-.2788.4415-.6768.5221-.9823zm2.4162-21.5883c-.1064.2695-.2102.5321-.2362.7053h-.017c-.0249-.1749-.1307-.4409-.239-.7131-.1307-.3287-.265-.6664-.265-.8639-.0031-.0691.0079-.138.0322-.2028.0243-.0647.0615-.1238.1093-.1738.0478-.0499.1052-.0897.1688-.1168.0636-.0272.132-.0412.2012-.0412.0691 0 .1375.014.2011.0412.0636.0271.121.0669.1688.1168.0478.05.085.1091.1093.1738.0244.0648.0353.1337.0323.2028 0 .199-.135.5406-.2658.8717zm1.9188-.5817c.011.263-.284 1.052-.73 2.119-.26-.137-.395-.166-.623-.209.079-.598.297-2.039.527-2.218.116-.091.275-.08.455-.024.175.055.364.174.371.332zm-1.8845 1.8631c.1145.005.23.01.3415.0249.0689-.5273.153-1.0525.252-1.575.104-.541.296-1.065.296-1.065-.249.068-.395.338-.509.715-.116.374-.312 1.328-.382 1.9zm1.7515 1.3939c-.429-.308-1.126-.385-1.402-.347.063.205.342.648.666.841.684.4 1.45.34 1.45.34-.147-.274-.285-.527-.714-.834zm2.691 2.494s.007.259-.012.406c0 0 1.271-.13 1.367-2 0 0-.847.318-1.697.278-.1429-.0074-.3059-.014-.4805-.0211-.8667-.0354-2.022-.0825-2.4455-.2889 0 0 .084.321.49.506 0 0-.211 0-.421.184 0 0 .121.266.481.406 0 0-.647.676-1.34.628 0 0 .316.401 1.028.246.6402-.1383.8878-.4749 1.0192-.6537.015-.0203.0284-.0386.0408-.0543 0 0-.093.383-.05.537 0 0 .312-.019.557-.327 0 0-.178.308-.214.568 0 0 .195.022.542-.186 0 0-.07.192-.082.412 0 0 .818-.264 1.217-.64zm1.279-.377c.1564-.3428.2496-.711.275-1.087.501-.154.469.067.347.387-.12.322-.622.7-.622.7zm2.291-.429c-.262-.389-.855-.321-1.137-.253-.1539.4902-.6403.6934-.9625.8279-.0505.0211-.097.0405-.1375.0591-.337.154-.637.519-.637.519.507.117.735.263.735.263.971-.691 1.774.004 1.774.004.527-.298.631-1.032.365-1.42zm-3.595 1.964c.26-.209.612-.685.612-.685l.0524.0122c.4384.102.754.1754 1.0956.6468.333.455-.12 1.155-.12 1.155-.331-1.141-1.64-1.129-1.64-1.129zm9.73 17.561c.175-2.141-1.668-4.114-2.541-4.994l-.031-.002c-.265.005-.504-.038-.711-.115.0558.0956.1036.1956.143.299 2.276 2.14 2.08 3.195 2.08 3.195-.775-.455-1.636-1.756-2.069-2.553l-.157.024c-.187.031-.377.031-.565.007.2759.2639.6692.9661 1.2905 2.0756l.1465.2614c.702 1.264 2.414 1.802 2.414 1.802zm-14.426-22.359c-.737 0-1.337.13-1.337.288 0 .156.599.286 1.337.286.739 0 1.337-.129 1.337-.286 0-.158-.597-.288-1.337-.288zm.242 1.019c.0129-.0321.0194-.0664.019-.101l-.001.001c.0005-.0345-.0058-.0687-.0187-.1007-.0128-.032-.0319-.0611-.0561-.0857s-.053-.0441-.0848-.0574-.066-.0202-.1004-.0202c-.145 0-.265.118-.265.264.0005.07.0286.137.0782.1865.0496.0494.1167.0773.1868.0775.0345-.0001.0687-.0071.1006-.0205s.0608-.033.085-.0576c.0243-.0247.0435-.0539.0564-.0859zm-2.405-3.13c-.012.263.287 1.052.73 2.119.262-.137.398-.166.622-.209-.081-.598-.294-2.039-.527-2.218-.118-.091-.275-.08-.45-.024-.179.055-.368.174-.375.332zm1.8879 1.863c-.117.005-.234.01-.3449.025-.067-.516-.147-1.033-.251-1.575-.106-.541-.296-1.065-.296-1.065.246.068.393.338.51.715.1678.6245.2954 1.2592.3819 1.9zm-2.4679 2.228s.765.06 1.45-.34v-.001c.325-.192.604-.635.665-.84-.274-.038-.972.039-1.4.347-.428.307-.567.56-.715.834zm-1.633.343c-.852.04-1.702-.277-1.702-.277.098 1.87 1.371 2 1.371 2-.02-.146-.015-.406-.015-.406.398.376 1.219.64 1.219.64-.014-.22-.087-.412-.087-.412.351.208.547.186.547.186-.037-.26-.214-.568-.214-.568.243.308.555.327.555.327.044-.154-.048-.537-.048-.537.0118.0152.0246.0327.0389.0522.1306.1782.379.517 1.0191.6558.71.154 1.03-.246 1.03-.246-.694.048-1.343-.628-1.343-.628.362-.141.483-.406.483-.406-.207-.184-.42-.184-.42-.184.405-.185.486-.507.486-.507-.4185.2068-1.5705.2536-2.4348.2887-.1767.0072-.3413.0139-.4852.0213zm-1.623.94c-.141-.283-.244-.682-.276-1.087-.502-.154-.472.067-.347.387.122.322.623.7.623.7zm.58.724s-.299-.365-.634-.519c-.0403-.0183-.0864-.0375-.1363-.0582-.3231-.1344-.8097-.3368-.9647-.8288-.281-.067-.875-.137-1.138.253-.263.388-.162 1.122.365 1.42.2527-.1992.565-.3078.8868-.3085.3218-.0008.6345.1065.8882.3045 0 0 .225-.146.733-.263zm.724.811c-.26-.209-.613-.685-.613-.685l-.0529.0124c-.4372.1018-.7528.1754-1.0961.6466-.331.455.122 1.155.122 1.155.33-1.141 1.64-1.129 1.64-1.129zm-9.901.0971c-.0028-.139-.0014-.2781.004-.417l-.003-.038c-.587-1.245-1.541-2.774-2.285-3.852-.604-.881-1.989-2.497-2.95199-3.319-.224 1.014-.581 2.908.273 4.539.85299 1.632 2.95299 3.977 5.07499 5.109l.238.1c.26.11.516.231.74.343-.279-.304-.516-.618-.694-.937-.129-.226-.221-.467-.281-.701l-.074-.256c-.5741-.3847-1.1616-.9535-1.6489-1.4253-.1661-.1608-.3208-.3106-.4591-.4377-.545-.503-1.32-1.51-1.747-2.77.51.332.971.744 1.516 1.424.6191.7751 1.2608 1.6 1.8438 2.3497.1646.2116.3248.4175.4782.6143zm29.27 6.319c.1642.0601.3225.1351.473.224 2.889-.826 4.944-.396 4.944-.396-.841.284-3.199.653-4.617.644.1195.1174.2246.2487.313.391.3213-.0029.6741.0148 1.057.034 1.0603.0533 2.3523.1181 3.851-.211 2.042-.445 3.826-1.71 3.826-1.71-.731-.19-2.147-.304-4.107-.174-2.3906.1557-4.0647.6772-5.3154 1.0667-.1472.0459-.2886.0899-.4246.1313zm-.524-.13c.845-.406.997-1.139 1.004-1.176.1706-.033.3279-.0623.4774-.0901.7443-.1388 1.2962-.2416 2.3446-.5789 1.269-.408 2.038-.92 2.038-.92l-.1242.0119c-.5214.0494-1.1349.1075-1.9438.3361-1.11.312-1.678.512-2.899.984-.305-.203-.662-.3-.992-.312.876-.393 3.376-1.333 5.016-1.838 1.402-.434 3.22-.986 5.47-.926 0 0-.475 1.357-3.075 2.445-.9473.3965-2.2977.7093-3.6411 1.0205-1.3809.3198-2.7544.638-3.6749 1.0435zm.788-2.6382c.0947-.1358.2877-.4125.353-.5328.8926-.4356 1.2154-.6166 1.6109-.8384l.1179-.066.0942-.0526c.6956-.3954 1.3578-.8469 1.98-1.35.602-.478 1.346-1.454 1.346-1.454-.809.277-1.622.863-2.164 1.275-.708.535-1.841 1.396-2.795 2.17l.347-1.017c1.116-.879 2.725-2.457 3.258-2.992.533-.539 2.59-2.326 3.539-2.516 0 0 .279 2.021-.701 3.377-.975 1.355-4.133 3.54-7.005 4.024zm-.343-3.5508c.006-.149.003-.288-.001-.417v-.038c.59-1.245 1.541-2.774 2.284-3.852.605-.881 1.991-2.497 2.954-3.319.227 1.014.577 2.908-.273 4.539-.85 1.632-2.953 3.977-5.075 5.109l-.238.1c-.26.11-.516.231-.74.343.282-.304.515-.618.695-.937.13-.226.22-.467.28-.701l.076-.256c.5731-.3831 1.1556-.9485 1.6402-1.419.1682-.1633.3247-.3152.4648-.444.548-.503 1.318-1.51 1.75-2.77-.51.332-.972.744-1.517 1.424-.6898.8636-1.4099 1.7891-2.0434 2.6034l-.2806.3606zm-29.024 17.464c-.171-2.141 1.671-4.114 2.545-4.994l.029-.002c.266.005.504-.038.712-.115-.064.11-.111.212-.142.299-2.278 2.14-2.079 3.195-2.079 3.195.774-.455 1.635-1.756 2.07-2.553l.154.024c.185.031.375.031.565.007-.2772.2669-.6781.9825-1.3123 2.1144l-.1247.2226c-.703 1.264-2.417 1.802-2.417 1.802zm22.915-13.55c1.942-1.339 2.657-2.331 3.092-3.298.231 1.798-.435 3.02-.986 3.46-.549.438-.777.875-.777.875 1.305-.853 2.13-.323 2.13-.323-.252 1.384-1.396 1.639-1.396 1.639 1.237-.14 1.742.484 1.742.484-.459 1.015-1.655 1.062-1.655 1.062 1.057.83.874 1.43.874 1.43-1.169.277-1.812-.3-1.812-.3.897 1.176.209 2.051.209 2.051-1.194-.159-1.582-1.108-1.582-1.108.117 1.066-.412 1.34-.412 1.34-.644-.208-.966-.784-.966-.784-.341.74-1.144.878-1.144.878-.342-.67-.09-1.293-.09-1.293-.69.211-.894-.207-.894-.207.435-.486.685-1.244.685-1.244 1.194.482 2.661.229 3.071-.255.3433-.4028-.0694-1.3235-.4289-2.1255-.0752-.1676-.148-.3301-.2111-.4815-.366-.877.114-1.5.551-1.8zm-1.303 9.929c-.1082.243-.2426.4733-.401.687-.236 1.69-.566 1.926-.566 1.926-.127-.721.08-1.438.08-1.438-.166.111-.334.184-.488.228-.347 1.766.195 2.493.195 2.493.8349-1.0084.9599-2.0547 1.1372-3.5405l.0003-.0022c.0137-.1151.0278-.2328.0425-.3533zm1.581-.119c-.107.206-.316.495-.424.632.26 1.793-.164 2.117-.164 2.117-.423-.838-.283-2.025-.283-2.025l-.0091-.0106c-.0103-.0119-.0215-.0246-.0334-.0381l-.0406-.0456c-.1121-.1254-.2655-.297-.3629-.4607.207 3.742.792 4.173.792 4.173.8077-.7604.6234-3.0944.5384-4.1701-.0048-.0616-.0094-.1191-.0134-.1719zm.677-.864s.215 2.591.935 3.456c.1758-.7458-.1156-1.6644-.3898-2.5285-.0799-.2517-.1582-.4987-.2232-.7355.0995.0527.202.0994.307.14.826 1.365 1.815 3.327.996 4.79 0 0-.87-.406-1.344-1.191-.481-.8-.608-2.406-.708-3.966.008-.098.011-.197.011-.29.1307.1181.2698.2267.416.325zm2.911-.669c.0372-.1207.0531-.2469.047-.373 1.942 2.082 3.067 2.44 3.067 2.44-.6578-1.3422-2.2112-2.2165-2.9358-2.6243l-.0664-.0374c-.0391-.022-.0751-.0424-.1078-.0613-.036-.132-.101-.275-.208-.419.0262.0066.053.0106.08.012.279.0388.5632-.0007.821-.114.81.591 1.908 1.486 2.768 2.464.861.979 1.172 1.886 1.325 3.035 0 0-1.607-.057-2.622-1.475-1.014-1.417-1.523-2.064-2.204-2.74.0132-.0352.0252-.0709.036-.107zm1.256-1.924.068.122c.1843.0856.3623.1631.5383.2397.5787.2518 1.1371.4948 1.8317.9893.738.531 1.138 1.265 1.138 1.265-1.873-.684-3.647-2.264-3.647-2.264-.038.05-.087.109-.153.17.3281.2438.8804.7523 1.5155 1.337.623.5737 1.3258 1.2207 1.9745 1.763 1.312 1.09 2.897.948 2.897.948-.598-1.833-1.698-2.733-2.459-3.133-.6634-.3457-2.5415-1.0708-3.4471-1.4205l-.0023-.0009-.0048-.0018c-.1287-.0497-.2374-.0917-.3198-.1238.0258.0351.0492.0718.07.11zm1.334-1.14c.0288.0583.0545.118.077.179.7681.212 1.5217.4736 2.256.783.705.302 1.38.78 1.38.78-1.364-.037-2.74-.581-3.768-1.043-.145.09-.423.223-.813.252.492.131 1.296.385 3.874 1.607 2.58 1.219 3.945.796 3.945.796-.93-1.788-2.5-2.425-3.364-2.695-.5677-.174-1.5948-.3347-2.455-.4693-.4549-.0712-.8632-.135-1.132-.1897zm-.761-.893c.2698-.021.5331-.0929.776-.212 2.483.725 4.368.474 4.368.474-.8897-.4562-2.5048-.585-3.5223-.6661l-.0016-.0001c-.1506-.012-.288-.023-.4081-.0338.1271-.0756.2485-.1605.363-.254.5071.0697 1.3116.1028 2.1269.1363.9628.0397 1.9413.0799 2.4621.1817.96.186 2.377.742 3.266 1.29 0 0-1.361.47-3.915.287-2.557-.186-4.102-.473-5.01-.737-.154-.2-.325-.348-.505-.466zm-25.759-7.618c.435.967 1.147 1.959 3.096 3.298.432.3.913.923.55 1.8-.0613.145-.1312.3001-.2033.4602-.3636.8069-.7842 1.7404-.4437 2.1468.413.484 1.881.737 3.074.255 0 0 .25.758.689 1.244 0 0-.207.418-.894.207 0 0 .25.623-.095 1.293 0 0-.8-.138-1.144-.878 0 0-.323.576-.964.784 0 0-.527-.274-.41-1.34 0 0-.392.949-1.581 1.108 0 0-.69-.875.204-2.051 0 0-.642.577-1.807.3 0 0-.186-.6.867-1.43 0 0-1.192-.047-1.649-1.062 0 0 .504-.624 1.74-.484 0 0-1.144-.255-1.397-1.639 0 0 .825-.53 2.132.323 0 0-.232-.437-.78-.875-.549-.44-1.214-1.662-.984-3.46zm4.797 13.914c-.1612-.2116-.2956-.4424-.4-.687.0158.129.0309.2548.0456.3776.1762 1.4741.3007 2.515 1.1324 3.5184 0 0 .543-.727.194-2.493-.1725-.0505-.3361-.1274-.485-.228 0 0 .205.717.075 1.438 0 0-.322-.236-.562-1.926zm-1.558-.174c-.1563-.2003-.2979-.4115-.424-.632-.0041.0534-.0087.1116-.0136.174l-.0002.0023c-.0853 1.0779-.2697 3.4064.5368 4.1657 0 0 .586-.431.79-4.173-.1003.1713-.2632.3512-.3779.4779-.0257.0284-.0495.0548-.0691.0771 0 0 .143 1.187-.28 2.025 0 0-.423-.324-.162-2.117zm-2.035 1.96c.715-.865.932-3.456.932-3.456.1-.068.198-.14.301-.221.0153-.0145.0318-.0288.0484-.0433.0225-.0196.0454-.0395.0666-.0607 0 .093.004.192.014.29-.104 1.56-.226 3.166-.71 3.966-.474.785-1.347 1.191-1.347 1.191-.815-1.463.17-3.425 1-4.79.1-.038.203-.087.309-.14-.0649.2349-.1429.4798-.2224.7294-.2759.8658-.5694 1.7871-.3916 2.5346zm-2.028-4.498c-.0053.1644.0247.3281.088.48-.685.676-1.192 1.323-2.206 2.74-1.015 1.418-2.623 1.475-2.623 1.475.156-1.149.465-2.056 1.327-3.035.86-.978 1.96-1.873 2.768-2.464.2826.1247.5966.1602.9.102-.096.1246-.1664.267-.207.419-.0488.028-.1048.0595-.1671.0945-.7222.406-2.2801 1.2817-2.9429 2.6285 0 0 1.124-.358 3.063-2.44zm-1.272-1.429.065-.122.0127-.02.0093-.0148c.0165-.0265.032-.0514.051-.0752-.084.0327-.1953.0757-.3274.1266-.9057.3498-2.7834 1.0748-3.4476 1.4204-.762.4-1.865 1.3-2.46302 3.133 0 0 1.58802.142 2.89802-.948.6498-.5423 1.3525-1.1894 1.9756-1.7631.635-.5846 1.1873-1.0932 1.5164-1.3369-.0562-.0512-.1068-.1082-.151-.17 0 0-1.775 1.58-3.65 2.264 0 0 .4-.734 1.143-1.265.6914-.4944 1.25-.7374 1.829-.9891.1763-.0767.3546-.1542.539-.2399zm-1.348-1.083c.0251-.0604.0517-.1201.08-.179-.2687.0546-.676.1183-1.1298.1894-.86.1346-1.8874.2955-2.4562.4696-.866.27-2.43402.907-3.36502 2.695 0 0 1.366.423 3.94302-.796 2.577-1.222 3.386-1.476 3.877-1.607-.2874-.0172-.5663-.1037-.813-.252-1.028.462-2.403 1.006-3.768 1.043 0 0 .671-.478 1.38-.78.766-.32 1.61-.615 2.252-.783zm.067-1.284c.251.119.445.178.775.212-.18.118-.35.266-.502.466-.909.264-2.459.551-5.01402.737-2.552.183-3.916-.287-3.916-.287.89-.548 2.31-1.104 3.27-1.29.51976-.1018 1.49682-.142 2.45902-.1816.8149-.0336 1.6193-.0667 2.126-.1364.012.013.146.122.364.254-.1206.0109-.2588.0219-.4103.034-1.0169.0811-2.6319.2099-3.5197.666 0 0 1.884.251 4.368-.474zm-.193-1.479c.1513-.0887.3103-.1637.475-.224-.139-.0422-.2835-.0872-.4341-.134-1.2514-.3893-2.9211-.9087-5.30792-1.064-1.959-.13-3.372-.016-4.105.174 0 0 1.786 1.265 3.824 1.71 1.50022.3291 2.79262.2642 3.85302.211.383-.0192.7357-.0369 1.057-.034.078-.12.17-.256.312-.391-1.418.009-3.773-.36-4.61602-.644 0 0 2.05502-.43 4.94202.396zm-.007-1.53c.007.037.16.77 1.004 1.176-.921-.4057-2.2945-.724-3.6758-1.044-1.3423-.311-2.69194-.6238-3.64022-1.02-2.598-1.088-3.074-2.445-3.074-2.445 2.25-.06 4.068.492 5.47002.926 1.641.505 4.14 1.445 5.014 1.838-.3523.012-.6945.1198-.99.312-1.22-.472-1.789-.672-2.897-.984-.8111-.2284-1.4246-.2867-1.94489-.3361l-.12513-.0119s.77002.512 2.03802.92c1.0463.3371 1.5986.44 2.3427.5787l.0016.0003c.1493.0278.3064.0571.4767.09zm-.136-1.995c.072.129.287.438.372.56-2.871-.484-6.02902-2.669-7.00502-4.024-.976-1.356-.7-3.377-.7-3.377.947.19 3.005 1.977 3.53802 2.516.534.535 2.142 2.113 3.257 2.992l.347 1.017c-.9199-.7371-1.8507-1.4605-2.792-2.17-.544-.412-1.35702-.998-2.16702-1.275 0 0 .746.976 1.34702 1.454.694.552 1.4 1.03 1.98 1.35.0758.0421.1461.0814.2143.1196.3954.2213.7192.4025 1.6087.8374zm8.0971 8.088c.088-.077.165-.152.225-.22l.0007.0009c.1338.1681.5766.7241.7963 1.2791.163.474.34 1.12.428 1.489.088.367.347 1.137.507 1.4 0 0-.7.088-1.217-.521-.509-.597-.68-1.198-.76-1.814-.067-.483-.042-1.153.02-1.613zm-1.102.092c.1206.1633.237.2354.2627.2513l.0043.0027.096.049.096-.034c.09-.027.1679-.059.243-.097.103.285.145.422.169.663l.0061.0612c.0328.3227.0806.7941-.0301 1.1818-.1305.4534-.3889.749-.5595.9443-.0191.0218-.037.0423-.0535.0617 0 0-.458-.507-.588-.924-.136-.438-.185-.947-.016-1.469.092-.283.238-.542.37-.691zm-1.576.049c.3937-.0479.7687-.196 1.089-.43l.0101.0278c.0595.1629.1382.3785.0749.6772-.072.317-.289.666-.6.92-.475.378-1.104.735-1.802.627 0 0-.16-.529 1.228-1.822zm-.53-.881c.0555.4417.2557.7291.2913.7802l.0047.0068c-.0169.0204-.0384.0496-.0647.0855-.2266.3089-.8129 1.108-1.9113.9575 0 0-.334-.693.484-1.244.5038-.3405.7685-.4343 1.099-.5515zm.107-.87c-.4179.1016-.8543.0992-1.271-.007l-.142-.034-.044-.138c-.2776.2278-.5785.3723-.8503.5028-.345.1657-.643.3088-.7867.5712 0 0 .315.583 1.133.488.3655-.0383.7195-.1499 1.0408-.3283.3214-.1784.6034-.4198.8292-.7097.0239-.1163.0542-.2322.091-.345zm-1.413-.727c.0377-.0577.0718-.1258.1093-.2009.0759-.1517.1662-.3323.3307-.5141-.5508-.1018-1.1162-.0944-1.664.022-.754.141-1.524.32-1.909 1.478 0 0 .482.414 1.363.235.748-.156 1.397-.478 1.77-1.02zm-.322-1.252c-.2093-.1819-.3765-.4071-.49-.66l-.061-.145c-.654-.268-1.335-.405-2.005-.157-.6466.2452-.8309.5224-.9946.7687l-.0154.0233s.74.623 1.588.644c.85.029 1.636-.22 1.978-.474zm.198-1.352c.112-.043.238-.083.38-.112-.3594-.327-.6077-.7581-.71-1.233-.304.071-1.016.071-1.33-.048-.315-.121-.932-.127-1.413.192 0 0 .16.851 1.248 1.141 1.028.272 1.406.202 1.825.06zm-.393-1.657.144-.093.0013-.0009c.0279-.0168.2695-.1628.6777-.1951-.0894-.0669-.2106-.1628-.3513-.2741-.4104-.3245-.9869-.7805-1.4247-1.0329-.648-.364-1.72-.846-2.265-.919 0 0 .512 1.35 1.105 1.897.621.566 1.053.775 2.113.618zm1.104-.622c-.264-.341-.469-.812-.62-1.369-.0187-.0686-.0411-.1527-.0663-.247-.1401-.5262-.3651-1.3711-.5067-1.617-.167-.292-.77-1.308-1.948-1.626 0 0-.314 1.328.279 2.375.51.905 1.559 1.858 2.862 2.484zm6.537 6.164c.145.15.257.23.52.363 0 0 .376.722-.08 1.595-.457.872-.84 1.76-1.023 2.257 0 0-.245-.038-.517-1.402-.1674-.8457-.3765-1.1122-.5975-1.3939l-.0304-.0387-.0321-.0414c.2516.1267.4567.1694.4933.177l.0047.001.182.031.082-.163c.1766-.3379.2454-.7219.197-1.1.424.011.649-.204.737-.313.0028-.0058.0062-.0102.0094-.0144.0033-.0044.0065-.0085.0086-.0136zm11.7768 1.056c-.0783-.071-.1543-.1443-.228-.22l-.0156.0201c-.1468.1881-.5654.7244-.7744 1.2599-.166.474-.343 1.12-.429 1.489-.09.367-.352 1.137-.51 1.4 0 0 .7.088 1.218-.521.51-.597.68-1.198.763-1.814.0553-.5368.0473-1.0782-.024-1.613zm1.1.092c-.1238.1689-.2421.2402-.2629.2527l-.0021.0013-.093.049-.101-.034c-.0825-.0258-.1627-.0583-.24-.097-.0862.2122-.1427.4353-.168.663l-.0035.0322c-.0353.3229-.0886.8113.0245 1.2108.1363.464.3998.7628.5718.9578l.0422.0482s.458-.507.59-.924c.135-.438.184-.947.018-1.469-.0812-.2518-.2087-.4861-.376-.691zm1.58.049c-.394-.0482-.7692-.1962-1.09-.43l-.0133.0376c-.0576.1617-.1335.3747-.0687.6674.067.317.285.666.602.92.468.378 1.1.735 1.799.627 0 0 .16-.529-1.229-1.822zm.526-.881c-.03.2832-.1319.5541-.296.787.0171.0205.0389.0501.0656.0863.2279.3096.815 1.107 1.9184.9567 0 0 .328-.693-.486-1.244-.5132-.3432-.7761-.4358-1.1122-.5543zm-.107-.87c.4196.1016.8576.0992 1.276-.007l.142-.034.04-.138c.2783.2276.5793.3721.851.5025.3454.1658.6436.309.788.5715 0 0-.315.583-1.132.488-.3658-.0382-.7201-.1498-1.0418-.3281-.3217-.1784-.604-.4199-.8302-.7099-.0216-.117-.0527-.2331-.093-.345zm1.3017-.9363c-.0765-.1499-.1668-.3272-.3257-.5057.5508-.1017 1.1162-.0942 1.664.022.754.141 1.524.32 1.91 1.478 0 0-.487.414-1.367.235-.744-.156-1.394-.478-1.765-1.02-.0401-.0597-.0764-.131-.1163-.2093zm.4363-1.0427c.2087-.1825.3757-.4076.49-.66l.061-.145c.656-.268 1.338-.405 2.002-.157.6431.2428.8292.5169.9952.7614l.0208.0306s-.74.623-1.592.644c-.85.029-1.636-.22-1.978-.474zm-.198-1.352c-.1244-.0477-.2525-.0851-.383-.112.291-.256.576-.649.714-1.233.304.071 1.017.071 1.331-.048.314-.121.93-.127 1.412.192 0 0-.157.851-1.25 1.141-1.03.272-1.407.202-1.824.06zm.391-1.657-.142-.093-.0012-.0008c-.0271-.0164-.2699-.1628-.6818-.1952.095-.0703.2245-.1726.3746-.2911.4093-.3233.9721-.7679 1.4074-1.0159.646-.364 1.716-.846 2.266-.919 0 0-.514 1.35-1.11 1.897-.618.566-1.051.775-2.113.618zm-1.103-.622c.264-.341.469-.812.62-1.369.0233-.0831.0518-.1891.0839-.3084.1422-.5282.3551-1.3191.4921-1.5556.169-.292.77-1.308 1.948-1.626 0 0 .314 1.328-.28 2.375-.512.905-1.558 1.858-2.864 2.484zm-6.532 6.164c-.1516.1512-.3291.2741-.524.363 0 0-.378.722.08 1.595.454.872.838 1.76 1.024 2.257 0 0 .244-.038.515-1.402.1684-.8417.3765-1.1096.5942-1.3899.0215-.0277.0431-.0556.0648-.0841-.2551.129-.4602.1708-.492.1774l-.003.0006-.181.031-.084-.163c-.1406-.2676-.2127-.5658-.21-.868 0-.082.004-.16.013-.231-.424.01-.65-.205-.734-.314l-.0081-.0094c-.0058-.0066-.0103-.0116-.0139-.0186zm-8.4599-10.5481s.423.125.565.162c0 0 .004-.246-.004-.365l.0386.0095c.1195.0294.2599.0639.3824.0765 0 0 .421.948.752 1.33 0 0 .019.21-.165.53 0 0-.24-.56-.669-1.01-.242-.252-.397-.381-.9-.733zm-1.112-.203c.137.037.813.25 1.137.488.411.294.693.633.648 1.217 0 0-.33-.463-.695-.671-.289-.167-.813-.627-1.09-1.034zm.01-4.289c.124 0 .365.06.365.261 0 .1352-.1352.3934-.2517.6159-.0602.1149-.1154.2202-.1443.2941h-.008c-.0291-.0761-.0869-.1855-.1496-.3043-.1162-.2201-.2494-.4726-.2494-.6057 0-.2.245-.26.369-.26h.068zm-.3059 1.4148c-.0633-.338-.166-.8859-.3121-1.0228-.165-.157-.41-.172-.53-.165-.0346.0026-.0682.0129-.0982.0304-.03.0174-.0557.0414-.075.0702-.0194.0288-.0319.0616-.0368.096-.0048.0344-.0017.0694.009.1024.048.17.59.987.661 1.09.0845-.0148.1015-.016.1975-.0231.0471-.0035.1132-.0083.2155-.0169-.0088-.0431-.0189-.0967-.0302-.1572l-.0002-.001-.0003-.0019zm.5505-.038c.0652-.3396.1638-.853.3054-.9848.164-.157.41-.172.53-.165.0347.0025.0684.0129.0986.0302.0302.0174.0561.0413.0758.07s.0327.0615.038.0959.0027.0696-.0074.1029c-.053.17-.595.987-.667 1.09-.0833-.0148-.1003-.016-.1969-.0231-.0472-.0035-.1137-.0084-.2161-.0169.0115-.0527.0248-.1218.0396-.1992zm.3114-2.3678h-.424v-.469h-.34v.47h-.427v.296h.426v.551h.34v-.55h.424zm-5.122 3.035c0-.093.004-.183.018-.272.0314-.1945.0348-.3925.01-.588l-.0092.0036c-.3.116-.505.1953-.9208.8694 0 0 .669-.414.902-.013zm.583 1.077c.009-.168.12-.703.26-1.076.17-.465.07-1.134-.136-1.542-.198-.392-.306-.76-.273-1.167 0 0-.392.133-.621.274-.0318.4173.1779.8347.3168 1.111.0182.0362.0351.07.0502.101.154.317.122.73.088.984-.06.43.028.886.315 1.315zm.044-3.605c-.018-.087-.0135-.1772.013-.262 0 0 .624-.61 1.148-.714.33-.07.532.079.632.16 0 0-.183-.02-.463.21-.28.227-.628.501-.888.57-.231.0619-.2998.0534-.4006.0409-.0131-.0016-.0268-.0033-.0414-.0049zm1.845-.77c.232.236.432.486.426.702-.003.224-.262.787-.396 1l-.03.0469c-.1333.2076-.3034.4725-.283.7891.013.17.13.344.27.489 0 0-.763-.182-.858-.656-.0743-.3948.0757-.6775.196-.904l.027-.051c.0487-.0958.1418-.2459.2391-.4029.1281-.2066.2637-.4255.3149-.5471.08-.195.124-.358.094-.466zm4.455 5.341c.15.544.41 1.054.666 1.454.23.367.376.959.355 1.16 0 0 .344-.765.17-1.305-.14-.42-.509-1.047-1.191-1.31zm.858.178s.524.01.768.172c.314.208.612.665.729 1.212 0 0-.53-.093-.79-.354-.262-.263-.584-.656-.707-1.03zm-2.707.952c-.1.007-.369.07-.5.11 0 0 .445.13.668.316.191.157.355.4.43.81.109.573.442 1.19.542 1.375l.041-.007c-.06-.395.182-1.213.248-1.332 0 0-.355-.222-.518-.454-.12-.17-.328-.454-.91-.818zm2.318 1.23c.0214.0497.0487.1059.0787.1675.151.3101.3694.7587.2343 1.2225-.0931.3236-.255.5398-.4179.7573-.1169.1562-.2343.313-.3271.5107 0 0-.174-.853-.138-1.51.04-.657.278-.91.57-1.148zm1.004.022s.52 1.015.614 1.412c.09.394.006.657-.172.898-.0547.075-.1223.152-.1978.2382-.1632.1863-.3638.4153-.5532.7578 0 0-.321-.427-.359-.65-.037-.223.023-.756.093-.978.0275-.0917.0886-.2637.1671-.4845.1157-.3254.2691-.7568.4079-1.1935zm.266 3.24c-.113.124-.72.859-.802 1.073-.082.213-.223.619-.036.902.19.283.625.73 1 .92 0 0-.41-.644-.366-1.173.0148-.2089.1196-.4034.2095-.5703.056-.104.1063-.1973.1255-.2767.05-.204.018-.552-.131-.875zm-1.19-.406c.094.13.256.447.279.755.022.303-.027.547-.192.992-.206.562-.53 1.187-.68 1.47 0 0-.285-.412-.443-.779 0 0 .446-.616.638-1.05.1989-.465.2922-.8978.3736-1.2752zm-.205-.237s-.194 1.445-1.038 2.517c-.572.726-1.036.98-1.345.98-.463 0-.93-.39-1.084-.836-.158-.443-.107-1.135.194-1.38 0 0 .276.867.871.898.673.039 1.536-.72 2.402-2.18zm10.97-7.0209c.1228.3486.2083.7093.255 1.076.284-.429.376-.885.316-1.315-.035-.254-.066-.667.09-.984.0147-.0303.0311-.0631.0488-.0982.1386-.2763.3489-.6953.3152-1.1138-.227-.141-.622-.274-.622-.274.037.407-.074.775-.273 1.167-.205.408-.302 1.077-.13 1.542zm.198-2.791c.0256.0849.0314.1745.017.262l-.0183.0021-.0206.0026c-.1003.0126-.1719.0216-.4051-.0407-.263-.069-.609-.343-.888-.57-.279-.23-.465-.21-.465-.21.0852-.0757.1874-.1298.298-.1576.1105-.0279.2261-.0287.337-.0024.525.104 1.145.714 1.145.714zm-2.256.194c-.005-.216.193-.466.425-.702l.001.001c-.029.108.015.27.095.465.0508.1236.1901.3472.3206.5569.0954.1534.1862.2993.2344.3931l.0237.0445c.1215.2277.2731.5119.1943.9105-.091.474-.853.656-.853.656.136-.145.254-.319.266-.489.0224-.3178-.1481-.5835-.2815-.7914l-.0285-.0446c-.136-.213-.394-.776-.397-1zm-4.695 6.093c.2901-.4506.5147-.9402.667-1.454v-.001c-.685.263-1.054.89-1.188 1.31-.177.54.17 1.305.17 1.305-.027-.201.119-.793.351-1.16zm-.958-1.104c.243-.162.765-.172.765-.172-.122.374-.443.767-.705 1.03-.262.261-.792.354-.792.354.114-.547.416-1.004.732-1.212zm3.972.89c-.131-.04-.398-.103-.498-.11-.582.364-.795.648-.913.818-.16.232-.514.454-.514.454.062.119.307.937.247 1.332l.037.007.005-.0092c.1057-.1955.4337-.802.538-1.3658.074-.41.242-.653.432-.81.22-.186.666-.316.666-.316zm-2.8979 1.2934c.031-.0639.0592-.1221.0809-.1734.295.238.529.491.569 1.148.039.657-.138 1.51-.138 1.51-.0926-.1992-.2107-.3569-.3284-.5143-.1619-.2163-.3232-.4319-.4176-.7537-.1318-.4609.0841-.9067.2341-1.2166zm-1.7368.763c-.1609.2486-.3094.478-.3203.6206h-.015c-.0096-.143-.1587-.3733-.3202-.6226-.2079-.3211-.4363-.6738-.4138-.9124.04-.427.602-.725.739-.788h.007c.139.063.7.361.739.788.0214.2391-.2075.5928-.4157.9144zm.1987.4976c.095-.397.615-1.412.615-1.412.1402.4467.2978.8878.4149 1.2156.0751.2101.1336.3737.1601.4624.07.222.133.755.095.978-.041.223-.36.65-.36.65-.1927-.3448-.3939-.5745-.5577-.7615-.0742-.0847-.1407-.1606-.1953-.2345-.178-.241-.263-.504-.172-.898zm-.003 1.818c-.068.182-.28.489-.516.695h-.01c-.238-.206-.451-.513-.516-.694-.069-.182-.086-.446.072-.65.019-.0242.0384-.0487.058-.0735.1766-.2226.3678-.4636.384-.6625h.012c.0134.1973.2029.436.3779.6564l.0416.0525.0205.0261c.158.205.141.47.076.65zm1.156 1.083c-.082-.214-.689-.949-.803-1.074-.147.323-.18.672-.133.876.019.0803.0699.1747.1267.2801.0896.1661.1938.3594.2103.5669.041.529-.369 1.173-.369 1.173.38-.19.811-.637 1.001-.92.188-.283.049-.689-.033-.902zm.105-.724c.025-.308.186-.625.28-.755.0103.0462.0207.0934.0312.1415l.0003.0015c.0809.3701.1733.7927.3685 1.245.191.434.636 1.05.636 1.05-.158.367-.444.779-.444.779-.148-.283-.469-.908-.677-1.47-.166-.445-.215-.689-.195-.992zm1.524 1.525c-.844-1.072-1.036-2.517-1.036-2.517v-.001c.865 1.46 1.73 2.219 2.4 2.18.595-.031.873-.898.873-.898.3.245.348.937.194 1.38-.157.446-.624.836-1.087.836-.307 0-.773-.254-1.344-.98zm-.346-3.1211c-.07.258-.091.654 0 1.028.071.285.244.654.574.863.286.18.957.222 1.215-.418 0 0-1.23.093-1.789-1.473zm-2.962 4.29.0215-.0105c.1647-.0801.3069-.1492.5015-.4435.153-.24.302-.687.22-1.005-.0693-.2572-.1828-.4133-.2888-.5591-.056-.0771-.1099-.1512-.1542-.2359l-.0282.0272-.0299.0293c-.0731.0719-.1344.1322-.2359.1905h-.006c-.0996-.0564-.1611-.1152-.2327-.1837-.0212-.0202-.0432-.0412-.0673-.0633-.0445.0843-.098.1581-.1534.2344-.1062.1464-.2193.3023-.2896.5606-.082.318.065.764.22 1.005.1922.2949.3372.3647.5026.4442zm0 2.437c.035-.1617.1966-.3863.3666-.6223.2336-.3246.4828-.6708.4394-.9047-.0736-.403-.2709-.4793-.4845-.5619-.1055-.0408-.215-.0831-.3155-.1671h-.006c-.1017.0839-.2123.1262-.3188.167-.2163.0827-.4158.1591-.4902.563-.0404.2327.2066.5774.4385.9012.1698.2369.3314.4625.3665.6248zm.952-.902c-.0732.1897-.2292.4011-.3814.6073-.1969.2668-.3874.525-.3846.7167.0076.6758.2302 1.1546.3797 1.4762.049.1053.0901.1938.1133.2668 0 0 .715-.57.84-1.224.067-.336-.01-1.345-.567-1.843zm.797.636c-.082-.234-.344-.87-.65-1.09 0 0-.389-1.152.863-1.863 0 0 .514.687.652 1.333.0902.4308-.1791.7461-.4638 1.0795-.1448.1696-.2936.3439-.4012.5405zm1.57-2.912c.199.247.48.584.704.69 0 0 .072.514.033.857-.045.3416-.2059.6878-.3477.9931-.0691.1487-.1337.2878-.1783.4119 0 0-.549-.719-.614-1.141-.043-.2806-.051-.5274-.0572-.7214-.0033-.0992-.006-.1846-.0128-.2536 0 0 .301-.498.473-.836zm1.44 2.472c.155-.24.658-1.11.664-1.745 0 0-.618.33-1.136.087 0 0-.066.826.035 1.105.08.226.187.361.436.553zm-.143.175c-.1567-.1365-.3053-.2821-.445-.436 0 0-.412.754-.48.975 0 0 .203.054.428-.11.225-.165.274-.209.497-.429zm-1.896-.443c.05.19.711 1.116.825 1.23 0 0-.053.334-.298.817-.243.48-.582.819-.766.989 0 0-.408-.717-.53-1.03-.139-.362-.122-.717-.06-.85.0697-.1615.2315-.36.401-.5681.1591-.1951.3249-.3987.428-.5879zm-2.714 5.476c.0286-.1166.1253-.2436.2367-.3898.1303-.1711.2807-.3684.3653-.6062.095-.26.092-.563-.01-.771-.0523-.1063-.1634-.2791-.2761-.4543-.1461-.227-.2948-.4582-.3219-.5547-.0304.0957-.1776.3259-.3225.5525-.1126.176-.2237.3498-.2775.4565-.103.208-.105.512-.012.771.0861.2374.2368.4344.3675.6053.1121.1466.2094.2739.2385.3907zm1.4841-2.6803c-.1748.2557-.3749.5483-.4201.7983-.0466.2562-.0213.5203.073.763.0527.1295.1804.3416.3111.5589.0752.1249.1514.2515.2149.3651 0 0 .603-.575.736-.984.0982-.3387.0686-.7016-.083-1.02-.069-.1314-.1772-.2681-.2864-.4061-.1185-.1498-.2382-.3011-.3106-.4489-.0509.1047-.1392.2338-.2349.3737zm1.9489-.4577c-.0723.1593-.1909.3177-.3062.4716-.1353.1806-.2659.355-.3118.5174-.101.357-.133.581.037.997.0742.1732.1539.3123.2239.4346.0763.1333.1412.2466.1751.3624 0 0 .49-.64.57-.906.086-.266.108-.704.01-.98-.0836-.2312-.2176-.5148-.3288-.75-.0244-.0517-.0477-.1011-.0692-.147zm-3.439 8.046c.0104-.1042.089-.2817.1903-.5101.2018-.4553.4934-1.113.5127-1.7969.016-.515-.438-1.317-.697-1.624h-.015c-.256.307-.711 1.11-.696 1.624.0207.6847.3131 1.344.5151 1.7996.1007.2271.1789.4036.1899.5074zm1.021-5.61s.845 1.027.826 1.572c-.0148.4003-.1788.7222-.3226 1.0045-.0995.1952-.1893.3714-.2134.5415 0 0-.444-.504-.612-.843-.19-.38-.335-.703-.281-1.135.047-.432.158-.707.603-1.14zm1.554-.1c-.135.196-.508.868-.403 1.265.0822.3004.3341.6901.5138.9681.0608.094.1133.1752.1482.2359 0 0 .333-.69.41-1.007.075-.313.003-.829-.669-1.462zm-1.6263 6.1807c-.1548.31-.3405.682-.3728 1.1763-.049.8.846 1.103.846 1.103-.301.111-.648.16-1.19-.36-.099-.094-.174-.198-.232-.308-.0569.11-.131.214-.231.308-.546.521-.89.471-1.19.361 0 0 .893-.304.843-1.104-.0311-.497-.2178-.8703-.3734-1.1813-.0939-.1878-.1764-.3529-.2066-.5087-.087-.457-.056-.894.296-1.421.2137.7547.4955 1.4884.842 2.192.0065.0077.01.017.0136.0265.0013.0034.0026.007.0041.0103l.0023.0052c.0018-.0042.0034-.0085.0051-.0129.0038-.0103.0076-.0207.0139-.0291.3471-.7034.6299-1.4367.845-2.191.352.526.382.963.292 1.42-.0292.1572-.1124.3239-.2072.5137zm-2.9563-3.5686c-.0862-.198-.18-.4137-.2265-.5651-.1379.2448-.4616.6178-.6121.7912l-.0129.0148c-.142.165-.221.394-.085.717.148.342.519.604.519.604.573-.407.664-.79.597-1.107-.0178-.0832-.095-.2606-.1795-.4549zm.6055 2.1329c.254-.451.372-1.355.372-1.515-.366.671-1.27 1.382-1.86 1.561-.48.142-.587.69-.587.69.067.0328.1219.0813.1795.1321.1231.1086.2583.2279.5485.2279.461 0 .988-.466 1.347-1.096zm-1.1679-.363c-.0226-.018-.0446-.0345-.0666-.051-.0732-.0548-.1456-.1091-.2364-.216 0 0-.454.168-.829.422-.3522.2387-.6983.6352-.9023.8689l-.0377.0431s.56.145.917-.018c0 0 .128-.54.529-.782.037-.0214.1077-.0486.1965-.0827.1227-.0472.2798-.1077.4295-.1843zm-.463-.462-.0099-.015c-.0925-.1391-.2567-.3861-.2201-.766 0 0-.79.506-1.02.693-.24.197-.734.708-.844.877 0 0 .598-.133 1.057-.288.4356-.1451.7547-.3342.9549-.4527.0301-.0178.0574-.034.0821-.0483zm-1.338.857c-.2434.089-.6627.1773-1.0511.2591-.2881.0607-.5593.1178-.7289.1689-.4.12-.69.327-1.072.746 0 0 .587.166.901.264 0 0 .498-.34 1.044-.552.2316-.0895.3858-.2783.5684-.502.0989-.1212.2062-.2526.3386-.384zm-.89 2.84.0098-.0109c.0902-.1004.1951-.2174.1092-.4471-.062-.177-.409-.367-.615-.468-.283-.1361-.9801-.3349-1.3904-.452-.087-.0247-.161-.0459-.2156-.062 0 0-.155.182-.235.374-.036.074.011.151.146.175.113.0197.2932.0091.4751-.0016.2446-.0143.4923-.0288.5829.0296.1289.0865.1195.1951.1095.31-.0027.0313-.0055.0631-.0055.095 0 0 .292-.182.474-.14.256.054.41.176.555.598zm-.846-1.333.0277.0094c.1116.0374.447.1497.7733.3576 0 0 .16-.062.24-.21.076-.142.4-.626.701-.69 0 0-.255-.025-.402-.072 0 0-.308.08-.527.17-.2839.1195-.556.2652-.813.435zm2.453-.611-.0027.0013c-.0574.0273-.1558.0739-.3753.0837 0 0-.835.582-.933 1.166-.082.496.178.735.303.796.125.066.71.307 1.09-.482 0 0-.648.214-.824-.098-.175-.315.112-.77.288-.901.229-.176.645-.291.895-.248 0 0-.202-.194-.441-.318zm-5.066 5.3871c-.194.414-.308.862-.409 1.292-.555-.062-.96-.15-1.348-.422-.386-.272-1.076-.424-1.437-.424-.363 0-.446-.153-.51-.279.232-.267.5311-.448.8-.504.5271-.1056.8186.0986 1.0912.2896.1277.0894.2512.176.3928.2264.445.159.731-.158 1.153-1.185.421-1.026 1.164-2.406 1.604-2.92.1408-.1586.5588-.1658.6719-.1677l.0181-.0003c.0751-.001.1481.024.1521.11.006.083.0059.541.0059.541.151-.103.495-.329.67-.348.171-.025.562.429.38.463-1.8559.3652-2.7834 2.3581-3.1884 3.2281zm7.6821-4.388c-.1761-.322-.3361-.633-.3801-.966-.1819.085-.458.296-.7199.752-.262.459-.8391.839-1.2941 1.135-.454.297-.608.811-.608.811.8978-.007 1.5172-.8461 1.8609-1.3117.0499-.0675.0939-.1272.1321-.1753.302-.381.47-.416.47-.416.067 1.015-.874 1.686-1.504 2.116-.629.432-.67.997-.67.997 2.123-.212 2.7131-2.942 2.7131-2.942zm-.0881 10.807-1.2939-1.823.365-.558.3672.5169.0008.0011c.244.3436.4247.5981.5079.713.0981-.1717.2429-.4323.4007-.7164.0931-.1677.191-.344.2863-.5146l.346.625zm-4.0299-6.7598-.0015-.0021c-.306-.4318-.518-.7311-.5716-.8062l.489-.354-1.541-.595.027 1.693.521-.379 3.116 4.395.367-.56c-.837-1.1776-1.8031-2.541-2.4059-3.3917zm-8.2341-6.5933c.379-.417 1.023-.055 1.674.548.655.604 1.064 1.222.686 1.639-.355.387-1.025.056-1.682-.545-.653-.605-1.063-1.224-.678-1.642zm.988 7.373c.0197.0185.0404.0359.062.052.3206.2426.9062.2399 1.0917.2391l.0253-.0001c.152 0 .319.048.322.238.005.187-.297.217-.297.217-.3-.03-1.566-.03-1.566-.03-.023-.148-.09-.437-.273-.631-.86-.868-1.374-1.929-1.488-2.643-.1756-1.0869.2053-2.0697.4599-2.7267.05-.1289.095-.2452.1301-.3473.1574-.4496.1755-.7627.1417-1.3088.0311.3934.3327.8611.9113 1.3928.622.578 1.179.84 1.602.77 0 0-.643.116-1.023.475-.316.3-.763 1.112-.902 2.017.369-.76 1.144-1.283 2.039-1.283.496.0019.9778.1659 1.3719.4671.3941.3011.6789.7228.8111 1.2009-.0193.0417-.0638.1433-.1176.2665-.1103.2521-.26.5944-.3144.6965 0 0 .025-.218.025-.352 0-.987-.795-1.791-1.775-1.791-.984 0-1.78.804-1.78 1.791 0 .514.197.986.543 1.29zm-1.393-6.968c.0004.009.001.0181.0017.0272zm6.064 8.028c.77-.119 1.584-.279 2.4-.573l.296.416c-.893.34-1.777.51-2.623.64-.506.08-1.003.108-1.48.09 0-.123-.096-.235-.096-.235.0382-.0803.0515-.1701.038-.258.4898.0225.9806-.0043 1.465-.08zm6.824-3.613c-.953 1.465-2.007 2.384-3.09 2.976l-.287-.408c1.003-.544 1.986-1.374 2.874-2.692.02-.039.06-.105.08-.131 0 0 .332.085.593-.032zm-11.126 3.474c.284-.041.759-.055.908-.03.224.038.176.222.056.353-.115.128-.847.523-.975.57l-.0032.0012c-.1287.0483-.3586.1345-.4548-.0182l-.0053-.0084c-.1552-.2445-.2643-.4165-.2307-.5796.038-.174.392-.237.705-.288zm1.4244.3785c.0806.0083.1584.0344.2276.0765.075.051.049.185 0 .275-.0358.0747-.2574.3486-.3924.5155l-.0012.0015c-.0342.0422-.063.0777-.0814.101-.0542.0661-.1229.119-.2007.1545-.0778.0356-.1628.0528-.2483.0505-.101-.01-.236-.053-.347-.098-.111-.046-.211-.144-.161-.344.046-.203.766-.63.966-.704.0764-.0271.1578-.0368.2384-.0285zm-.1144 1.0595c.1365-.1834.2803-.3612.431-.533.328-.368.633-.432.829-.295.197.136.006.515-.278.712-.2764.1891-.7533.2419-.8629.254l-.0091.001c-.092.011-.143-.081-.11-.139zm.5776-1.6243.0144.0033c.615.162.764.417.66.572-.112.15-.66.037-.95-.101-.292-.143-.364-.309-.26-.463.0745-.1185.4211-.0379.5356-.0113zm12.1511-9.6207c.0865-.1983.1808-.4144.2283-.566.144.252.479.64.623.806.144.165.223.394.084.717-.148.342-.518.604-.518.604-.575-.407-.663-.79-.598-1.107.0188-.083.0961-.2602.1807-.454zm-.6047 2.132c-.258-.451-.375-1.355-.375-1.515.368.671 1.273 1.382 1.86 1.561.482.142.589.69.589.69-.0658.0326-.12.0806-.1769.131-.1229.1089-.2585.229-.5511.229-.461 0-.987-.466-1.346-1.096zm1.168-.363c.0196-.0155.0386-.0299.0574-.0441.0756-.0572.1472-.1115.2426-.2229 0 0 .458.168.833.422.3267.2231.6479.5842.8589.8213l.0572.0641.0239.0266s-.563.145-.92-.018c0 0-.129-.54-.53-.782-.0364-.0218-.1087-.0497-.1996-.0849-.1213-.0468-.276-.1066-.4234-.1821zm.464-.462.0134-.0205c.0914-.1401.2516-.3855.2126-.7605 0 0 .788.506 1.025.693.239.197.731.708.842.877 0 0-.599-.133-1.057-.288-.4415-.1468-.7631-.3386-.9615-.4568-.0271-.0162-.052-.031-.0745-.0442zm2.3929 1.1174c.2852.0603.5537.1169.7241.1676.4.12.691.327 1.073.746 0 0-.59.166-.9.264 0 0-.5-.34-1.048-.552-.2304-.0898-.3854-.2795-.5689-.5041-.0985-.1206-.2052-.2512-.3361-.3819.2458.0895.6666.1783 1.0559.2604zm-.1669 2.5796-.0108-.012c-.0889-.1002-.1928-.2172-.1092-.446.063-.177.41-.367.62-.468.2793-.1343.9613-.3298 1.3717-.4473.0935-.0268.1729-.0496.2303-.0667 0 0 .154.182.237.374.035.074-.015.151-.145.175-.114.0197-.2951.0091-.4776-.0016-.245-.0143-.4924-.0288-.5824.0296-.1311.0869-.1219.1961-.1122.3116.0026.0308.0052.0621.0052.0934 0 0-.288-.182-.476-.14-.25.054-.408.176-.551.598zm.846-1.333-.0221.0074c-.1064.0353-.4464.1478-.7779.3596 0 0-.16-.062-.24-.21-.076-.142-.402-.626-.701-.69 0 0 .254-.025.399-.072 0 0 .31.08.532.17.219.09.492.226.81.435zm-2.455-.611.0042.002c.0585.0273.1571.0733.3728.083 0 0 .838.582.934 1.166.088.496-.174.735-.301.796-.127.066-.71.307-1.089-.482 0 0 .646.214.823-.098.175-.315-.11-.77-.285-.901-.231-.176-.646-.291-.9-.248 0 0 .202-.194.441-.318zm5.069 5.3871c.196.414.306.862.408 1.292.557-.062.961-.15 1.349-.422.383-.272 1.074-.424 1.44-.424.359 0 .443-.153.51-.279-.237-.267-.533-.448-.803-.504-.5245-.1055-.8167.0982-1.0903.289-.1286.0896-.2531.1764-.3957.227-.441.159-.729-.158-1.151-1.185-.422-1.026-1.165-2.406-1.608-2.92-.137-.1586-.5565-.1658-.6698-.1677l-.0182-.0003c-.074-.001-.145.024-.15.11-.003.083-.003.541-.003.541-.154-.103-.498-.329-.67-.348-.178-.025-.566.429-.386.463 1.8653.3663 2.7939 2.3699 3.1952 3.2358zm-7.681-4.388c.174-.322.335-.633.375-.966.188.085.463.296.723.752.261.459.841.839 1.295 1.135.456.297.606.811.606.811-.8892-.007-1.5062-.8366-1.8536-1.3037-.0527-.0708-.0991-.1333-.1394-.1833-.301-.381-.469-.416-.469-.416-.068 1.015.873 1.686 1.505 2.116.628.432.673.997.673.997-2.127-.212-2.715-2.942-2.715-2.942zm.245 3.514c-.352-.324-1.154-1.469-1.28-1.83v-.001h-.007c-.123.362-.928 1.507-1.283 1.832-.1817.1682-.498.4799-.8243.8014-.3059.3014-.6206.6116-.8417.8206 0 0 1.304-.327 2.038-.997 0 0 .523.305.905.305h.018c.381 0 .904-.305.904-.305.735.671 2.041.997 2.041.997-.2247-.2115-.5448-.5266-.8546-.8315-.3228-.3176-.6348-.6247-.8154-.7915zm-1.277 1.201c.289 0 .562-.116.717-.183-.155.327-.445.835-.723 1.045h-.004c-.279-.21-.569-.718-.72-1.045.151.067.424.182.714.182zm6.225-1.1101-5.106 7.202-2.315-4.151c-.2835.4353-.9999 1.5235-1.4503 2.2077l-.3227.4903.524.35-1.562.623.006-1.665.516.347 2.058-3.13.286-.44 2.312 4.218 4.549-6.417-.491-.355 1.547-.595-.031 1.693zm-4.1749 4.373c-.29-.4402-.5794-.8809-.868-1.322-.2247.4163-.4531.8307-.685 1.243l-.365-.658.994-1.802.288.44 1.022 1.555zm1.055.468.367.563.514-.347.01 1.665-1.564-.623.522-.35c-.0113-.0171-.0236-.0361-.037-.057l-.0316-.0493c-.0459-.0718-.1024-.1602-.1684-.2587zm10.28-10.991c-.382-.417-1.026-.055-1.68.548-.652.604-1.062 1.222-.682 1.639.353.387 1.03.056 1.682-.545.65-.605 1.062-1.224.68-1.642zm-1.0022 7.3812c-.0159.0144-.0309.0279-.0499.0428-.3196.2426-.9081.2399-1.0912.2391l-.0248-.0001c-.153 0-.317.048-.323.238-.005.187.294.217.294.217.302-.03 1.571-.03 1.571-.03.02-.148.089-.437.274-.631.857-.868 1.372-1.929 1.487-2.643.1742-1.0884-.2097-2.0724-.466-2.7295-.0498-.1276-.0949-.2431-.13-.3445-.1531-.4457-.1721-.7573-.1396-1.2946.0012-.0139.0021-.0277.0026-.0414l-.0026.0414c-.0338.3904-.3396.8533-.9094 1.3786-.624.578-1.181.84-1.602.77 0 0 .644.116 1.023.475.318.3.76 1.112.9 2.017-.367-.76-1.142-1.283-2.037-1.283-.4964.0007-.9789.1643-1.3734.4656s-.6793.7237-.8106 1.2024c.0169.0369.0537.1207.0994.2248l.0008.0019c.1118.2545.2762.6287.3328.7363 0 0-.026-.218-.026-.352 0-.987.796-1.791 1.778-1.791.981 0 1.78.804 1.78 1.791 0 .514-.201.986-.547 1.29zm-11.4839-2.5622c.953 1.465 2.007 2.379 3.087 2.975l.289-.407c-1.003-.543-1.986-1.376-2.874-2.692-.019-.039-.058-.105-.078-.13 0 0-.333.083-.595-.034zm6.823 3.613c-.77-.119-1.583-.279-2.4-.575l-.293.416c.889.342 1.781.512 2.619.642.4913.0779.9889.108 1.486.09 0-.123.093-.235.093-.235-.0386-.0801-.0526-.1699-.04-.258-.4898.0223-.9805-.0045-1.465-.08zm4.305-.139c-.283-.041-.759-.055-.91-.03-.223.038-.173.222-.059.353.119.128.851.523.981.57.125.048.357.137.458-.017l.0098-.0156c.1508-.2407.2575-.4109.2242-.5724-.038-.174-.393-.237-.704-.288zm-1.4273.3787c-.0813.0083-.1597.0344-.2297.0763-.07.051-.046.185 0 .275.053.094.386.503.48.618.054.0659.1223.1187.1998.1542s.162.0529.2472.0508c.1-.01.236-.053.346-.098.112-.046.211-.144.164-.344-.05-.203-.769-.63-.967-.704-.0771-.0269-.1591-.0366-.2403-.0283zm.1153 1.0593c-.033-.06-.326-.414-.429-.533-.33-.368-.637-.432-.828-.295-.197.136-.008.515.277.712.2794.1911.7595.243.8651.2544l.0059.0006c.091.011.145-.081.109-.139zm-.579-1.6236-.011.0026c-.615.162-.766.417-.659.572.109.15.659.037.946-.101.291-.143.363-.309.263-.463-.0772-.1196-.4298-.0364-.539-.0106z" fill-rule="evenodd"/></g><path d="m110.24 18.106c-.009.3397-.016.6219-.018.713v.001h2.675c-.16-2.047-.449-2.353-2.171-2.353h-.446c-.003.1617-.024 1.0017-.04 1.639z" fill="#cc003d"/><path d="m81.8703 35.549c-.0119.4749-.0231.9217-.0253 1.041l2.674.001c-.16-2.047-.475-2.38-2.197-2.38l-.42.026c-.0022.1356-.0174.7439-.0317 1.312z" fill="#cc003d"/><path d="m71.558 42.97s.577.054.807.054c.641 0 2.198-.134 2.198-2.328 0-2.3282-1.3401-2.326-2.5166-2.3242-.0333.0001-.0664.0002-.0994.0002-.204 0-.389.044-.389.044z" fill="#cc003d"/><path d="m83.221 16.134c-.906.017-1.766 1.169-1.786 4.672.02 3.42.88 4.588 1.787 4.606.906-.018 1.766-1.186 1.786-4.606v-.001c-.02-3.501-.88-4.654-1.787-4.671z" fill="#cc003d"/><path clip-rule="evenodd" d="m121.685 59.33h-58.9479v-59.33h58.9479zm-10.425-45.015c2.524 0 3.592 1.192 3.862 3.482.067.568.898 9.457.898 9.457h-2.414s-.443-6.021-.47-6.282l-2.955-.003c-.012.284-.228 6.286-.228 6.286h-2.339l.436-12.94zm-28.378 17.77c2.523 0 3.593 1.193 3.863 3.483.068.568.897 9.457.897 9.457h-2.414s-.443-6.021-.47-6.283l-2.955-.003c-.013.284-.228 6.286-.228 6.286h-2.339l.436-12.94zm-13.687-4.834v-12.936h7.66v12.936h-2.367v-10.785h-2.929v10.785zm23.718-8.431h1.287v-4.505h2.366v12.936h-2.366v-6.247h-1.73c-.925 0-1.723-.286-2.374-.852-.66-.572-.996-1.292-.996-2.144v-3.693h2.37v3.452c0 .296.087.524.265.692.251.241.646.361 1.178.361zm6.272-2.354v-2.151h6.322v2.151h-1.965v10.785h-2.393v-10.785zm-3.47 19.754v-4.135h2.359v12.942h-2.36v-6.656h-3.245v6.656h-2.36v-12.942h2.36v4.135zm-24.157.124c.324-.015.686-.025 1.094-.025 3.711 0 4.261 2.916 4.261 4.318 0 1.185-.554 4.385-4.131 4.385h-3.588v-12.936h6.606v2.151h-4.242zm14.959-20.136c.489.942.805 2.268.846 4.118l.005.419c-.001 1.153-.128 2.271-.378 3.171-.65 2.651-2.15 3.588-3.715 3.617l-.033.001h-.041l-.033-.001c-1.565-.029-3.065-.967-3.715-3.617-.248-.901-.376-2.017-.378-3.17l.005-.42c.041-1.85.356-3.176.846-4.118.771-1.61 1.999-2.211 3.267-2.227h.049l.008.001c1.268.016 2.497.616 3.267 2.226zm20.488 21.232 2.846 7.583h-2.54l-2.324-6.567c-.177.002-1.428 0-1.428 0v6.571h-2.366v-12.942h2.366s-.002 4.174 0 4.277h.97c1.256 0 1.619-1.141 1.726-2.377.054-.6327.1-1.2661.138-1.9h2.327s-.261 2.399-.46 3.219c-.205.845-.664 1.693-1.255 2.136z" fill="#cc003d" fill-rule="evenodd"/></svg>