<svg xmlns="http://www.w3.org/2000/svg" viewBox="0 0 675.7 146.2"><defs><style>.cls-1{fill:#ed6f34}.cls-2{fill:#595c62}</style></defs><title>Asset 4</title><g id="Layer_2" data-name="Layer 2"><g id="Layer_1-2" data-name="Layer 1"><path class="cls-1" d="M668.1 134.8H495.3a7.5 7.5 0 1 1 0-15h172.8a7.5 7.5 0 0 1 0 15zm-487.8 0H7.5a7.5 7.5 0 0 1 0-15h172.8a7.5 7.5 0 0 1 0 15z"/><circle class="cls-2" cx="648.3" cy="6.6" r="6.6"/><path class="cls-2" d="M675.7 21.9v51.9a6 6 0 0 1-5.8 6 5.91 5.91 0 0 1-5.8-6V38.2l-32.3 39.1a5.88 5.88 0 0 1-4.7 2.5 6 6 0 0 1-5.8-6V21.9a5.83 5.83 0 0 1 5.8-5.9 5.89 5.89 0 0 1 5.8 5.9v35.6l32.5-39.4a6.21 6.21 0 0 1 4.5-2.1 5.83 5.83 0 0 1 5.8 5.9zM561 34.5h-15V21.9a5.83 5.83 0 0 0-5.8-5.9 5.89 5.89 0 0 0-5.8 5.9v51.9a5.91 5.91 0 0 0 5.8 6H561c12.1 0 22-10.2 22-22.6s-9.9-22.7-22-22.7zm0 33.3h-15V46.4h15a10.7 10.7 0 0 1 0 21.4zM593.5 16a5.89 5.89 0 0 0-5.8 5.9v51.9a6 6 0 0 0 5.8 6 5.91 5.91 0 0 0 5.8-6V21.9a5.89 5.89 0 0 0-5.8-5.9zm-87.6 28.6a18.3 18.3 0 0 0 3.2-10.4c0-10-8-18.2-17.7-18.2 0 0 1.3.1-25.2.1a5.89 5.89 0 0 0-5.8 5.9v51.8a5.91 5.91 0 0 0 5.8 6h28.1a19.38 19.38 0 0 0 19-19.6 19.85 19.85 0 0 0-7.4-15.6zM472 28h20.1c-.5-.1-.5 0 0 0a6.29 6.29 0 0 1 5.4 6.3 6.17 6.17 0 0 1-6.1 6.3H472zm22.2 39.8H472V52.5h22.2a7.65 7.65 0 0 1 0 15.3zm-53.1 5.9a5.91 5.91 0 0 1-5.8 6h-33.7a5.85 5.85 0 0 1-5.8-6V22a5.83 5.83 0 0 1 5.8-5.9h33.7a6 6 0 0 1 0 12h-27.9V42h22.9a6 6 0 0 1 0 12h-22.9v14h27.9a5.6 5.6 0 0 1 5.8 5.7zm-65.5 4.7a5.86 5.86 0 0 1-8.2-.8l-19.8-24.8-9 9.5v11.5a5.91 5.91 0 0 1-5.8 6 5.85 5.85 0 0 1-5.8-6V62.3l-9-9.6-19.8 24.8a5.66 5.66 0 0 1-8.1.8 6 6 0 0 1-.8-8.4L310 44l-16.8-18a6 6 0 0 1 .1-8.4 5.62 5.62 0 0 1 8.1.1L327 45V22a5.83 5.83 0 0 1 5.8-5.9 5.89 5.89 0 0 1 5.8 5.9v23.2l25.7-27.4a5.73 5.73 0 0 1 8.2-.1 6.07 6.07 0 0 1 .2 8.4l-16.9 18L376.5 70a6.11 6.11 0 0 1-.9 8.4zM272.3 22v51.8a5.91 5.91 0 0 1-5.8 6 5.85 5.85 0 0 1-5.8-6v-20h-29.1v19.9a5.91 5.91 0 0 1-5.8 6 5.85 5.85 0 0 1-5.8-6V22a5.8 5.8 0 1 1 11.6 0v19.9h29.1V22a5.8 5.8 0 1 1 11.6 0zm-70.4 49.1l-25.6-51.8a5.75 5.75 0 0 0-10.3-.1c.5-1.1.2-.6-.1.1l-25.6 51.8a6 6 0 0 0 2.5 8 5.71 5.71 0 0 0 7.8-2.6l4.1-8.3h32.7l4.1 8.2a5.63 5.63 0 0 0 7.7 2.6 5.79 5.79 0 0 0 2.7-7.9zm-41.2-14.8l10.5-21.2 10.5 21.2zm-50-40.3H89.5a5.83 5.83 0 0 0-5.8 5.9v51.9a6 6 0 0 0 5.8 6 5.91 5.91 0 0 0 5.8-6V61.2h15c12.1 0 22-10.1 22-22.5s-9.7-22.4-21.6-22.7zm-.5 33.3h-15V28h15a10.57 10.57 0 0 1 10.3 10.7 10.35 10.35 0 0 1-10.3 10.6zM32.9 14.1C14.8 14.1 0 29.2 0 47.8s14.8 33.8 32.9 33.8 32.8-15.1 32.8-33.8c0-18.5-14.7-33.7-32.8-33.7zm0 55.6c-11.7 0-21.3-9.8-21.3-21.8a21.56 21.56 0 0 1 21.3-21.8c11.7 0 21.2 9.8 21.2 21.8s-9.5 21.8-21.2 21.8zm287.1 71l-14.7-29.8a3.26 3.26 0 0 0-5.9 0c.3-.6.1-.3-.1 0l-14.7 29.8a3.44 3.44 0 0 0 1.5 4.6 3.26 3.26 0 0 0 4.5-1.5l2.3-4.8h18.8l2.3 4.7a3.38 3.38 0 0 0 4.5 1.5 3.32 3.32 0 0 0 1.5-4.5zm-23.7-8.5l6-12.2 6 12.2zm-62.1-2.2h.1v8.8h-.1z"/><path class="cls-2" d="M445.3 140.5l-11.9-14.8-.1-.1 9.7-10.3a3.44 3.44 0 0 0-.1-4.8 3.23 3.23 0 0 0-4.7.1l-14.7 15.7V113a3.3 3.3 0 1 0-6.6 0v29.8a3.35 3.35 0 0 0 3.3 3.4 3.29 3.29 0 0 0 3.3-3.4v-6.6l5.2-5.5 11.4 14.3a3.37 3.37 0 0 0 2.6 1.2 3.44 3.44 0 0 0 2.1-.8 3.59 3.59 0 0 0 .5-4.9zm-68.8-31.4a3.35 3.35 0 0 0-3.3 3.4V124h-16.7v-11.5a3.3 3.3 0 1 0-6.6 0v29.8a3.3 3.3 0 1 0 6.6 0v-11.5h16.7v11.5a3.35 3.35 0 0 0 3.3 3.4 3.29 3.29 0 0 0 3.3-3.4v-29.8a3.23 3.23 0 0 0-3.3-3.4zm-118.6 25.4a11.17 11.17 0 0 0-10.9-11.1h-12.8V116h18a3.4 3.4 0 1 0 0-6.8h-21.4a3.29 3.29 0 0 0-3.3 3.4v29.7a3.35 3.35 0 0 0 3.3 3.4h16.1a11.1 11.1 0 0 0 10.9-11.1.1.1 0 0 0 .1-.1zm-10.9 4.3h-12.8v-8.6H247a4.3 4.3 0 0 1 0 8.6z"/></g></g></svg>