<svg width="180" height="72" viewBox="0 0 180 72" fill="none" xmlns="http://www.w3.org/2000/svg">
<path d="M36.5464 9L18.2743 27.2738H36.5464V63.8197L54.8202 45.5899V9H36.5464Z" fill="#EA5616"/>
<path d="M18.2738 63.8197L36.5476 45.5459H18.2738V9L0 27.2298V63.8197H18.2738Z" fill="#2C2D84"/>
<path fill-rule="evenodd" clip-rule="evenodd" d="M120.378 36.3976C120.378 42.2008 123.977 46.8954 130.381 46.8954V46.8905C134.451 46.8905 137.477 44.7922 139.334 41.8833L145.207 47.7581C141.595 52.6828 135.851 55.59 129.743 55.5846C119.146 55.5846 110.784 46.9946 110.784 36.3976C110.784 25.0534 119.146 17.2106 129.743 17.2106C135.424 17.2057 140.813 19.7242 144.453 24.0849L138.621 29.9173C137.592 28.6379 134.693 25.8917 130.199 25.8917C122.999 25.8917 120.378 31.7388 120.378 36.3976ZM82.6865 54.6828H73.0939V18.1369H106.897V54.6828H97.3043V26.3589H82.6865V54.6828ZM158.087 31.83H166.283C174.054 31.83 179.535 35.4958 179.535 43.2556C179.535 51.0153 174.054 54.6828 166.739 54.6828H148.493V18.1369H176.338V26.3589H158.087V31.83ZM165.368 46.9181H158.086V39.6158H165.368C167.63 39.6158 169.925 40.5078 169.925 43.2556C169.925 46.0033 167.634 46.9181 165.368 46.9181Z" fill="#2C2D84"/>
</svg>
