<svg width="103" height="17" fill="none" xmlns="http://www.w3.org/2000/svg"><path d="M46.054 4.907l2.148-1.599h-7.189v9.58h7.189v-1.6h-5.135V8.842h4.388V7.243h-4.388V4.907h2.987zM35.583 7.04h-2.49V4.907h3.984l2.147-1.599H31.04v9.58h4.279c2.396 0 3.78-1.098 3.78-3.01 0-1.835-1.244-2.838-3.516-2.838zm-.342 4.248h-2.147v-2.65h2.147c1.307 0 1.914.44 1.914 1.333 0 .894-.654 1.317-1.914 1.317zm18.779-7.98h-3.905v9.58h2.054v-2.713h1.867c2.49 0 4.045-1.317 4.045-3.433 0-2.117-1.556-3.434-4.06-3.434zm-.046 5.268h-1.82V4.907h1.82c1.322 0 2.038.659 2.038 1.835 0 1.175-.716 1.834-2.038 1.834zm-26.45 2.242a3.687 3.687 0 01-1.774.455c-1.852 0-3.19-1.333-3.19-3.167 0-1.835 1.338-3.167 3.19-3.167a3.084 3.084 0 011.867.595l1.478-1.097-.093-.094c-.856-.768-2.007-1.16-3.314-1.16-1.416 0-2.707.486-3.641 1.364a4.739 4.739 0 00-1.431 3.496 4.969 4.969 0 001.431 3.559 5.132 5.132 0 003.625 1.41c1.478 0 2.77-.517 3.641-1.457l-1.322-.988-.467.25zm55.249-7.494v9.58h2.054v-3.92H89.2v3.92h2.054v-9.58H89.2v3.935h-4.372V3.324h-2.054zm-3.531 9.58h2.162l-4.014-9.58h-2.085l-4.092 9.58h2.07l.824-1.93h4.357l.778 1.93zm-4.513-3.528l1.588-3.842 1.493 3.842h-3.08zm21.13-.345h1.275l3.143 3.856h2.645l-4.2-4.954 3.671-4.625h-2.349l-3.05 4.108H95.86V3.308h-2.054v9.58h2.053V9.03zm-31.43-1.976V4.923h5.368v-1.6h-7.421v9.58h4.278c2.397 0 3.781-1.097 3.781-3.01 0-1.834-1.245-2.838-3.516-2.838h-2.49zm0 4.249v-2.65h2.148c1.306 0 1.913.44 1.913 1.333 0 .894-.638 1.333-1.913 1.333H64.43v-.016zM14.19 3.245c.373.486.684 1.02.949 1.584L7.95 10.175 4.932 8.262V5.973L7.935 7.87l6.255-4.625z" fill="#21A038"/><path d="M1.867 8.106c0-.11 0-.204.016-.314l-1.82-.094c0 .125-.016.267-.016.392a7.97 7.97 0 002.318 5.628l1.291-1.3a6.049 6.049 0 01-1.789-4.312z" fill="url(#paint0_linear_454_8887)"/><path d="M7.935 1.991c.109 0 .202 0 .311.016L8.34.172c-.125 0-.265-.015-.39-.015a7.85 7.85 0 00-5.585 2.336l1.291 1.301a5.985 5.985 0 014.28-1.803z" fill="url(#paint1_linear_454_8887)"/><path d="M7.935 14.22c-.109 0-.202 0-.311-.016L7.53 16.04c.124 0 .264.015.388.015a7.85 7.85 0 005.586-2.336l-1.291-1.3a5.896 5.896 0 01-4.279 1.802z" fill="url(#paint2_linear_454_8887)"/><path d="M11.358 3.057l1.54-1.144A7.866 7.866 0 007.935.14v1.834a6.085 6.085 0 013.423 1.082z" fill="url(#paint3_linear_454_8887)"/><path d="M15.839 8.106c0-.486-.047-.957-.125-1.427l-1.695 1.27v.157a6.095 6.095 0 01-2.008 4.53l1.23 1.365a7.969 7.969 0 002.598-5.895z" fill="#21A038"/><path d="M7.935 14.22a6.008 6.008 0 01-4.496-2.022l-1.354 1.238a7.825 7.825 0 005.85 2.618V14.22z" fill="url(#paint4_linear_454_8887)"/><path d="M3.874 3.575L2.645 2.21A7.938 7.938 0 00.047 8.106h1.82a6.12 6.12 0 012.007-4.531z" fill="url(#paint5_linear_454_8887)"/><defs><linearGradient id="paint0_linear_454_8887" x1="2.171" y1="13.495" x2=".312" y2="8.081" gradientUnits="userSpaceOnUse"><stop offset=".144" stop-color="#F2E913"/><stop offset=".304" stop-color="#E7E518"/><stop offset=".582" stop-color="#CADB26"/><stop offset=".891" stop-color="#A3CD39"/></linearGradient><linearGradient id="paint1_linear_454_8887" x1="2.884" y1="2.286" x2="7.603" y2=".474" gradientUnits="userSpaceOnUse"><stop offset=".059" stop-color="#0FA8E0"/><stop offset=".538" stop-color="#0099F9"/><stop offset=".923" stop-color="#0291EB"/></linearGradient><linearGradient id="paint2_linear_454_8887" x1="7.424" y1="14.494" x2="13.049" y2="13.213" gradientUnits="userSpaceOnUse"><stop offset=".123" stop-color="#A3CD39"/><stop offset=".285" stop-color="#86C339"/><stop offset=".869" stop-color="#21A038"/></linearGradient><linearGradient id="paint3_linear_454_8887" x1="7.561" y1="1.309" x2="12.238" y2="2.764" gradientUnits="userSpaceOnUse"><stop offset=".057" stop-color="#0291EB"/><stop offset=".79" stop-color="#0C8ACB"/></linearGradient><linearGradient id="paint4_linear_454_8887" x1="2.548" y1="13.727" x2="7.572" y2="15.618" gradientUnits="userSpaceOnUse"><stop offset=".132" stop-color="#F2E913"/><stop offset=".298" stop-color="#EBE716"/><stop offset=".531" stop-color="#D9E01F"/><stop offset=".802" stop-color="#BBD62D"/><stop offset=".983" stop-color="#A3CD39"/></linearGradient><linearGradient id="paint5_linear_454_8887" x1="1.442" y1="8.327" x2="3.451" y2="3.06" gradientUnits="userSpaceOnUse"><stop offset=".07" stop-color="#A3CD39"/><stop offset=".26" stop-color="#81C55F"/><stop offset=".922" stop-color="#0FA8E0"/></linearGradient></defs></svg>