<svg id="Layer_1" xmlns="http://www.w3.org/2000/svg" viewBox="0 0 200 50" enable-background="new 0 0 200 50"><style>.st0{fill:#003a23}.st2{fill:#fff}</style><g id="Page-1"><g id="logo_avangardrus"><path id="Fill-1" class="st0" d="M13.3 31.8V17.2h10.3V19h-5.7v4.4h2.3c1.1 0 4.4-.1 4.4 2v4.5c0 1.7-2.6 2-4.4 2l-6.9-.1zm4.6-6.8v5h1.7c.2 0 .4-.1.4-.5v-4c0-.3-.1-.5-.4-.5h-1.7z"/><path id="Fill-2" class="st0" d="M26.5 31.8l3.3-14.6h6.8L40 31.8h-4.5l-.7-3.7h-3.2l-.6 3.7h-4.5zm6.7-12.5L32 26.1h2.7l-1.2-6.8h-.3z"/><path id="Fill-3" class="st0" d="M42.3 17.2h4.5v5.9l2.1-.1v-5.8h4.5v14.6h-4.5v-6.7h-2.1v6.7h-4.5V17.2"/><path id="Fill-4" class="st0" d="M56.8 17.2h4.4v5.9l2.9-5.9h4.3L65.1 24l3.8 7.8h-4.2l-3.5-6.6v6.6h-4.4V17.2"/><path id="Fill-5" class="st0" d="M78.8 31.8l3.3-14.6H89l3.3 14.6h-4.5l-.7-3.7H84l-.7 3.7h-4.5zm6.7-12.6L84.2 26h2.7l-1.2-6.8h-.2z"/><path id="Fill-6" class="st0" d="M107 31.8l3.3-14.6h6.8l3.3 14.6H116l-.7-3.7h-3.2l-.7 3.7H107zm6.6-12.5l-1.2 6.8h2.7l-1.2-6.8h-.3z"/><path id="Fill-7" class="st0" d="M145.7 31.8l3.3-14.6h6.8l3.4 14.6h-4.5l-.7-3.7h-3.2l-.7 3.7h-4.4zm6.6-12.5l-1.2 6.8h2.7l-1.2-6.7h-.3z"/><path id="Fill-8" class="st0" d="M127.4 17.2v5.9h2.1v-5.9h4.5v14.6h-4.5v-6.7h-2.1v6.7h-4.5V17.2h4.5"/><path id="Fill-9" class="st0" d="M98.9 18.9v4.2h1.5c.4 0 .5-.1.5-.3v-3.5c0-.2-.1-.4-.5-.4h-1.5zm-4.3 12.9V17.2h6.5c4.4 0 4.2 1.5 4.2 2.1v3c0 .4-.1 1.8-2.5 1.7v.1c1.9 0 2.6.6 2.6 1.5v4c0 .7-.3 2-4.3 2h-6.5zm4.3-6.7V30h1.6c.3 0 .5-.2.5-.4v-3.9c0-.3-.1-.5-.5-.5h-1.6z"/><path id="Fill-10" class="st0" d="M137.8 17.2h8.9v1.7h-4.5v12.9h-4.4V17.2"/><g id="Group-14" transform="translate(625)"><defs><filter id="Adobe_OpacityMaskFilter" filterUnits="userSpaceOnUse" x="-463.8" y="17.2" width="10.9" height="14.6"><feColorMatrix values="1 0 0 0 0 0 1 0 0 0 0 0 1 0 0 0 0 0 1 0"/></filter></defs><mask maskUnits="userSpaceOnUse" x="-463.8" y="17.2" width="10.9" height="14.6" id="mask-2_1_"><g filter="url(#Adobe_OpacityMaskFilter)"><path id="path-1_1_" class="st2" d="M-463.8 17.2h25.5v16.4h-25.5z"/></g></mask><path id="Fill-11" d="M-463.8 31.8V17.2h6.8c1.5 0 4 0 4 2.1v5c0 2.2-2.4 2.2-4 2.3h-2.4v5.2h-4.4zm4.4-12.9v5.9h1.9c.8.1.8-.3.8-.6v-4.8c0-.5-.5-.6-.8-.5h-1.9z" mask="url(#mask-2_1_)" fill="#003a23"/><defs><filter id="Adobe_OpacityMaskFilter_1_" filterUnits="userSpaceOnUse" x="-452.6" y="17.2" width="14.2" height="16.4"><feColorMatrix values="1 0 0 0 0 0 1 0 0 0 0 0 1 0 0 0 0 0 1 0"/></filter></defs><mask maskUnits="userSpaceOnUse" x="-452.6" y="17.2" width="14.2" height="16.4" id="mask-2_2_"><g filter="url(#Adobe_OpacityMaskFilter_1_)"><path id="path-1_2_" class="st2" d="M-463.8 17.2h25.5v16.4h-25.5z"/></g></mask><path id="Fill-13" d="M-452.6 33.6v-3.4h.3c1.9 0 2.1-1 2.1-1.5V17.2h10.7v12.9h1.1v3.5h-4.4v-1.8h-5.5v1.8h-4.3zm9.4-14.7h-2.6v9.6c0 .7-.2 1.4-.9 1.6h3.5V18.9z" mask="url(#mask-2_2_)" fill="#003a23"/></g></g></g></svg>