<svg width="137" height="44" viewBox="0 0 137 44" fill="none" xmlns="http://www.w3.org/2000/svg">
<path fill-rule="evenodd" clip-rule="evenodd" d="M70.0858 24.2622H68.6152L61.2242 10.3564H55.5396V33.8113H60.6559V21.5479H62.3279L67.3443 31.5335H71.3568L76.3731 21.5479H78.0453V33.8113H83.1616V10.3564H77.477L70.0858 24.2622ZM128.356 19.2358H119.193V15.3828H134.692V10.3564H113.854V33.8113H128.356C133.525 33.8113 136.258 30.8968 136.258 26.5072C136.258 22.1175 133.192 19.2358 128.356 19.2358ZM127.924 28.9509H119.193V24.0948H127.929C129.928 24.0948 130.861 24.7643 130.861 26.5072C130.861 28.2499 129.925 28.9539 127.924 28.9539V28.9509ZM111.572 10.3564H104.99L96.5824 19.4033H93.6127V10.3564H88.211V33.8113H93.6127V24.4297H96.5824L105.023 33.8113H111.843L100.853 21.7035L111.572 10.3564Z" fill="#DD0A34"/>
<path fill-rule="evenodd" clip-rule="evenodd" d="M22 44C34.1503 44 44 34.1503 44 22C44 9.84974 34.1503 0 22 0C9.84974 0 0 9.84974 0 22C0 34.1503 9.84974 44 22 44ZM17.0418 21.9989L24.7994 14.5742L37.7522 14.5968L33.1113 19.5239H26.739L17.0418 29.4234L6.23633 18.4241L10.1152 14.5742H17.1764L13.44 18.4241L17.0418 21.9989ZM27.2918 20.8989H38.097L33.11 25.5736H29.5081L25.6293 29.4234H18.7028L27.2918 20.8989Z" fill="#DD0A34"/>
</svg>
