<svg width="251" height="169" viewBox="0 0 251 169" fill="none" xmlns="http://www.w3.org/2000/svg">
<path d="M230.083 0.833374H20.9167C15.3709 0.838911 10.0539 3.04441 6.13247 6.96584C2.21103 10.8873 0.00553744 16.2043 0 21.75L0 32.2084H251V21.75C250.994 16.2043 248.789 10.8873 244.868 6.96584C240.946 3.04441 235.629 0.838911 230.083 0.833374ZM0 147.25C0.00553744 152.796 2.21103 158.113 6.13247 162.034C10.0539 165.956 15.3709 168.161 20.9167 168.167H230.083C235.629 168.161 240.946 165.956 244.868 162.034C248.789 158.113 250.994 152.796 251 147.25V63.5834H0V147.25ZM177.792 126.333H209.167C211.94 126.333 214.601 127.435 216.562 129.397C218.523 131.358 219.625 134.018 219.625 136.792C219.625 139.565 218.523 142.226 216.562 144.187C214.601 146.148 211.94 147.25 209.167 147.25H177.792C175.018 147.25 172.358 146.148 170.396 144.187C168.435 142.226 167.333 139.565 167.333 136.792C167.333 134.018 168.435 131.358 170.396 129.397C172.358 127.435 175.018 126.333 177.792 126.333Z" fill="black" fill-opacity="0.15"/>
</svg>
