<svg width="144" height="33" viewBox="0 0 144 33" fill="none" xmlns="http://www.w3.org/2000/svg">
<g clip-path="url(#clip0)">
<path d="M46.8132 9.58945C46.8405 9.07086 46.9679 8.7039 47.1923 8.47947C47.4137 8.25808 47.7473 8.14587 48.1931 8.14587H55.2593C56.1783 8.14587 56.6392 8.62808 56.6392 9.58945V22.8637C56.6392 23.0214 56.6119 23.1245 56.5543 23.167C56.4967 23.2094 56.3875 23.2307 56.2298 23.2307H54.398C54.2555 23.2307 54.1524 23.2094 54.0857 23.167C54.022 23.1245 53.9886 23.0214 53.9886 22.8637V10.4507H49.2272L49.0968 12.328C48.9816 13.9354 48.8663 15.3729 48.745 16.6375C48.6237 17.9022 48.4145 19 48.1142 19.9341C47.817 20.8712 47.3803 21.6385 46.8102 22.239C46.24 22.8425 45.4485 23.2974 44.4446 23.6007C44.3021 23.628 44.1838 23.6249 44.0898 23.5885C43.9988 23.5521 43.923 23.4551 43.8654 23.2974L43.4105 22.0236C43.3832 21.8932 43.3771 21.7871 43.4014 21.7022C43.4226 21.6142 43.5105 21.5354 43.6713 21.4656C44.2718 21.2048 44.7449 20.8742 45.0815 20.4709C45.4181 20.0706 45.682 19.5307 45.867 18.8575C46.055 18.1812 46.1945 17.335 46.2885 16.3251C46.3825 15.3122 46.4857 14.0597 46.6009 12.5646L46.8132 9.58945Z" fill="#0039A6"/>
<path d="M69.2189 17.5201C69.2189 19.4307 68.7762 20.8986 67.8936 21.9267C67.0081 22.9517 65.6919 23.4673 63.939 23.4673C62.2012 23.4673 60.9063 22.9669 60.048 21.9691C59.1928 20.9714 58.7682 19.5096 58.7682 17.5838C58.7682 16.6376 58.8956 15.7945 59.1564 15.0636C59.4142 14.3327 59.7751 13.714 60.233 13.2106C60.694 12.7072 61.2399 12.3251 61.8828 12.0582C62.5197 11.7943 63.2293 11.6609 64.0057 11.6609C65.7131 11.6609 67.0111 12.1825 67.8967 13.2227C68.7792 14.263 69.2189 15.6974 69.2189 17.5201ZM66.6563 17.5838C66.6563 17.0652 66.6199 16.5709 66.538 16.1099C66.4592 15.6459 66.3227 15.2395 66.1286 14.8847C65.9345 14.5298 65.6707 14.2539 65.331 14.0507C64.9944 13.8475 64.5668 13.7474 64.0482 13.7474C63.5902 13.7474 63.1869 13.8445 62.8411 14.0385C62.4984 14.2326 62.2103 14.4965 61.9798 14.8301C61.7494 15.1637 61.5826 15.5579 61.4734 16.022C61.3672 16.4829 61.3127 16.9803 61.3127 17.5141C61.3127 18.715 61.5067 19.6582 61.8919 20.3406C62.2801 21.029 62.9685 21.3717 63.9602 21.3717C64.4636 21.3717 64.8882 21.2686 65.2309 21.0563C65.5767 20.8501 65.8526 20.571 66.0619 20.2223C66.2681 19.8765 66.4197 19.4762 66.5138 19.0213C66.6078 18.5694 66.6563 18.0903 66.6563 17.5838Z" fill="#0039A6"/>
<path d="M92.8197 17.5201C92.8197 19.4307 92.38 20.8986 91.4944 21.9267C90.6119 22.9517 89.2926 23.4673 87.5397 23.4673C85.8019 23.4673 84.5039 22.9669 83.6487 21.9691C82.7965 20.9714 82.3689 19.5096 82.3689 17.5838C82.3689 16.6376 82.4993 15.7945 82.7571 15.0636C83.0149 14.3327 83.3758 13.714 83.8337 13.2106C84.2916 12.7072 84.8436 12.3251 85.4835 12.0582C86.1234 11.7943 86.8331 11.6609 87.6064 11.6609C89.3169 11.6609 90.6119 12.1825 91.4974 13.2227C92.38 14.263 92.8197 15.6974 92.8197 17.5201ZM90.2601 17.5838C90.2601 17.0652 90.2176 16.5709 90.1418 16.1099C90.0599 15.6459 89.9234 15.2395 89.7324 14.8847C89.5383 14.5298 89.2684 14.2539 88.9348 14.0507C88.5981 13.8475 88.1705 13.7474 87.655 13.7474C87.197 13.7474 86.7906 13.8445 86.4479 14.0385C86.1052 14.2326 85.8171 14.4965 85.5866 14.8301C85.3561 15.1637 85.1833 15.5579 85.0771 16.022C84.971 16.4829 84.9164 16.9803 84.9164 17.5141C84.9164 18.715 85.1105 19.6582 85.4956 20.3406C85.8869 21.029 86.5723 21.3717 87.564 21.3717C88.0674 21.3717 88.492 21.2686 88.8377 21.0563C89.1804 20.8501 89.4564 20.571 89.6687 20.2223C89.8749 19.8765 90.0266 19.4762 90.1175 19.0213C90.2115 18.5694 90.2601 18.0903 90.2601 17.5838Z" fill="#0039A6"/>
<path d="M96.5439 23.2307C96.0829 23.2307 95.7675 23.1367 95.5946 22.9486C95.4218 22.7636 95.3338 22.4543 95.3338 22.0236V9.61068C95.3338 8.63414 95.7918 8.14587 96.7137 8.14587H104.838C104.996 8.14587 105.096 8.17923 105.139 8.24292C105.184 8.30661 105.202 8.41882 105.202 8.57652V10.0413C105.202 10.1839 105.184 10.2839 105.139 10.3416C105.096 10.3992 104.996 10.4265 104.838 10.4265H97.9844V13.7655H101.521C102.339 13.7655 103.034 13.8474 103.607 14.0142C104.183 14.178 104.666 14.3994 105.063 14.6723C105.457 14.9453 105.772 15.2516 106.012 15.5882C106.249 15.9248 106.431 16.2736 106.552 16.6345C106.673 16.9923 106.752 17.3381 106.788 17.6686C106.822 17.9992 106.843 18.2934 106.843 18.5512C106.843 19.2244 106.71 19.8522 106.443 20.4254C106.179 20.9986 105.815 21.4959 105.357 21.9114C104.899 22.3269 104.359 22.6484 103.741 22.8819C103.125 23.1124 102.464 23.2246 101.76 23.2246H96.5439V23.2307ZM104.107 18.3904C104.107 17.705 103.889 17.1319 103.449 16.6648C103.01 16.2008 102.376 15.9673 101.542 15.9673H97.9844V20.8591H101.499C102.015 20.8591 102.439 20.7772 102.77 20.6104C103.101 20.4466 103.364 20.2434 103.568 19.9978C103.771 19.7552 103.907 19.4883 103.989 19.1941C104.068 18.906 104.107 18.6361 104.107 18.3904Z" fill="#0039A6"/>
<path d="M118.222 21.9995C118.222 22.3452 118.085 22.5848 117.812 22.7091C117.494 22.8547 117.154 22.976 116.787 23.0761C116.42 23.1792 116.041 23.255 115.656 23.3126C115.271 23.3703 114.883 23.4127 114.501 23.4309C114.122 23.4552 113.758 23.4673 113.415 23.4673C112.466 23.4673 111.68 23.3672 111.056 23.1762C110.428 22.9821 109.933 22.7212 109.566 22.3998C109.199 22.0753 108.945 21.6962 108.802 21.2564C108.657 20.8167 108.584 20.3557 108.584 19.8644C108.584 19.364 108.669 18.8788 108.833 18.4117C108.996 17.9447 109.269 17.5353 109.639 17.1835C110.012 16.8317 110.501 16.5466 111.095 16.3313C111.692 16.116 112.42 16.0098 113.282 16.0098H115.696V15.6429C115.696 15.3699 115.668 15.1182 115.611 14.8877C115.553 14.6603 115.441 14.4571 115.274 14.2842C115.11 14.1113 114.883 13.9809 114.598 13.8869C114.313 13.7929 113.937 13.7474 113.479 13.7474C112.987 13.7474 112.457 13.7899 111.883 13.8748C111.307 13.9627 110.84 14.0628 110.482 14.1781C110.325 14.2205 110.209 14.2296 110.137 14.1993C110.064 14.172 110.015 14.0931 109.988 13.9627L109.688 12.7375C109.63 12.507 109.694 12.3584 109.879 12.2856C110.482 12.0582 111.143 11.8944 111.862 11.8004C112.581 11.7094 113.257 11.6609 113.888 11.6609C115.383 11.6609 116.478 11.9915 117.172 12.6526C117.873 13.3137 118.219 14.2751 118.219 15.5397V21.9995H118.222ZM115.677 17.9295H113.609C113.366 17.9295 113.1 17.9447 112.821 17.972C112.542 18.0023 112.275 18.0812 112.023 18.2085C111.771 18.3359 111.562 18.524 111.398 18.7696C111.234 19.0153 111.15 19.3519 111.15 19.7825C111.15 20.4012 111.359 20.8319 111.771 21.0745C112.19 21.3201 112.742 21.4414 113.43 21.4414C113.533 21.4414 113.67 21.4384 113.849 21.4293C114.028 21.4202 114.219 21.405 114.422 21.3747C114.622 21.3444 114.834 21.311 115.056 21.2655C115.277 21.2231 115.483 21.1655 115.671 21.0957V17.9295H115.677Z" fill="#0039A6"/>
<path d="M123.414 23.1548C123.341 23.2033 123.22 23.2306 123.05 23.2306H121.491C121.333 23.2306 121.218 23.2003 121.139 23.1427C121.063 23.0851 121.021 22.9698 121.021 22.8V12.328C121.021 12.1703 121.06 12.0611 121.139 12.0035C121.218 11.9459 121.336 11.9155 121.491 11.9155H123.05C123.22 11.9155 123.341 11.9428 123.414 11.9913C123.487 12.0399 123.52 12.1521 123.52 12.3249V16.1583H128.284V12.328C128.284 12.1703 128.324 12.0611 128.403 12.0035C128.478 11.9459 128.597 11.9155 128.758 11.9155H130.328C130.516 11.9155 130.638 11.9428 130.695 11.9913C130.753 12.0399 130.783 12.1521 130.783 12.3249V22.797C130.783 22.985 130.753 23.1033 130.695 23.1518C130.638 23.2003 130.516 23.2276 130.328 23.2276H128.758C128.597 23.2276 128.478 23.1973 128.403 23.1397C128.321 23.082 128.284 22.9668 128.284 22.797V18.2084H123.52V22.797C123.52 22.988 123.487 23.1063 123.414 23.1548Z" fill="#0039A6"/>
<path d="M143.942 22.8333L140.291 17.2319L143.581 12.3462C143.642 12.2734 143.654 12.1733 143.618 12.0884C143.581 12.0035 143.494 11.9459 143.403 11.9459H141.167C141.098 11.9459 141.034 11.9762 140.989 12.0308L138.098 16.2038H136.06V12.2613C136.06 12.1036 136.033 12.0035 135.975 11.9701C135.918 11.9337 135.818 11.9155 135.672 11.9155H133.947C133.816 11.9155 133.722 11.9337 133.655 11.9701C133.592 12.0035 133.558 12.1005 133.558 12.2613V22.8849C133.558 23.0426 133.592 23.1366 133.655 23.176C133.719 23.2094 133.816 23.2306 133.947 23.2306H135.672C135.818 23.2306 135.918 23.2124 135.975 23.176C136.033 23.1397 136.06 23.0426 136.06 22.8849V18.166H137.959L141.277 23.1427C141.325 23.1973 141.389 23.2337 141.462 23.2337H143.76C143.854 23.2337 143.939 23.1791 143.979 23.0942C144.015 23.0062 144.003 22.9061 143.942 22.8333Z" fill="#0039A6"/>
<path d="M81.735 22.8333L78.0806 17.2319L81.3681 12.3462C81.4318 12.2734 81.4469 12.1733 81.4045 12.0884C81.3681 12.0035 81.2832 11.9459 81.1891 11.9459H78.9571C78.8873 11.9459 78.8206 11.9762 78.7781 12.0308L75.8849 16.2038H73.85V12.2613C73.85 12.1036 73.8197 12.0035 73.762 11.9701C73.7044 11.9337 73.6043 11.9155 73.4618 11.9155H71.7392C71.6088 11.9155 71.5118 11.9337 71.4481 11.9701C71.3844 12.0035 71.351 12.1005 71.351 12.2613V22.8849C71.351 23.0426 71.3844 23.1366 71.4481 23.176C71.5118 23.2094 71.6088 23.2306 71.7392 23.2306H73.4618C73.6074 23.2306 73.7074 23.2124 73.762 23.176C73.8197 23.1397 73.85 23.0426 73.85 22.8849V18.166H75.7485L79.0693 23.1427C79.1148 23.1973 79.1815 23.2337 79.2543 23.2337H81.5531C81.6441 23.2337 81.729 23.1791 81.7684 23.0942C81.8017 23.0062 81.7927 22.9061 81.735 22.8333Z" fill="#0039A6"/>
<path d="M26.0754 32.8081H6.73266C3.0206 32.8081 0 29.7875 0 26.0754V6.73266C0 3.0206 3.0206 0 6.73266 0H26.0754C29.7875 0 32.805 3.0206 32.805 6.73266V26.0754C32.8081 29.7875 29.7875 32.8081 26.0754 32.8081ZM6.73266 0.476138C3.28141 0.476138 0.476138 3.28141 0.476138 6.73266V26.0754C0.476138 29.5236 3.28141 32.3289 6.73266 32.3289H26.0754C29.5236 32.3289 32.3289 29.5206 32.3289 26.0754V6.73266C32.3289 3.28141 29.5236 0.476138 26.0754 0.476138H6.73266Z" fill="#0039A6"/>
<path d="M14.7118 4.77656C15.2122 4.48542 15.7581 4.33985 16.3009 4.32166C15.1636 4.35502 14.0719 4.95853 13.4623 6.01695L3.64838 23.0093C2.71127 24.6349 3.26929 26.7093 4.8918 27.6464C6.51431 28.5835 8.59173 28.0285 9.52581 26.406L16.404 14.4934L13.4714 9.41361C12.5343 7.78806 13.0893 5.71368 14.7118 4.77656Z" fill="#00A1DE"/>
<path d="M29.1597 23.0093L19.3488 6.02C18.7362 4.96158 17.6444 4.35807 16.5071 4.32471C17.047 4.33987 17.5929 4.48847 18.0933 4.77962C19.7158 5.71673 20.2738 7.79112 19.3336 9.41363L16.401 14.4934L23.2792 26.406C24.2163 28.0285 26.2907 28.5835 27.9132 27.6464C29.5418 26.7093 30.0968 24.6349 29.1597 23.0093Z" fill="#0039A6"/>
<path d="M18.0963 4.77656C17.5959 4.48542 17.05 4.33985 16.5102 4.32166H16.489H16.3222H16.304C15.7611 4.33682 15.2182 4.48542 14.7148 4.77656C13.0923 5.71368 12.5373 7.78806 13.4744 9.41057L16.4071 14.4904L19.3397 9.41057C20.2738 7.78806 19.7188 5.71368 18.0963 4.77656Z" fill="#002C77"/>
<path d="M19.8977 24.7288C19.8977 26.6607 18.3359 28.2195 16.407 28.2195C14.4782 28.2195 12.9133 26.6576 12.9133 24.7288C12.9133 22.803 14.4752 21.2382 16.404 21.2382C18.3328 21.2382 19.8977 22.803 19.8977 24.7288Z" fill="#EEAF30"/>
</g>
<defs>
<clipPath id="clip0">
<rect width="144" height="32.8081" fill="white"/>
</clipPath>
</defs>
</svg>
