<svg width="32" height="32" viewBox="0 0 240 160" fill="none" xmlns="http://www.w3.org/2000/svg">
  <path d="M69.236 103.38c-6-10.5-19.38-14.14-29.88-8.12-10.5 6-14.14 19.38-8.12 29.88s19.38 14.14 29.88 8.12c10.5-6 14.14-19.38 8.12-29.88m-15.24-5.7c3.3.74 6.3 2.46 8.62 4.94-2.32 3-4.42 4.42-8.04 6.58l-2.32-1.34c.08-4.18.28-6.7 1.72-10.16zm-12.22 1.82c1.46-.84 3-1.44 4.56-1.8 1.44 3.52 1.62 6.04 1.68 10.24l-2.32 1.34c-3.58-2.16-5.66-3.6-7.94-6.58a17.4 17.4 0 0 1 4.04-3.2zm-7.8 19.8c-1-3.24-1.02-6.7-.04-9.94 3.76.5 6.04 1.6 9.72 3.68v2.68c-3.68 2.02-5.96 3.12-9.68 3.6zm12.48 11.56a16.86 16.86 0 0 1-8.62-4.94c2.32-3 4.42-4.42 8.04-6.58l2.32 1.34c-.08 4.18-.28 6.7-1.72 10.16zm5.24-14c-1.42.82-3.24.32-4.06-1.1a2.98 2.98 0 0 1 1.1-4.06 2.98 2.98 0 0 1 4.06 1.1c.82 1.42.32 3.24-1.1 4.06m6.98 12.18c-1.46.84-3 1.44-4.56 1.8-1.44-3.5-1.62-6.04-1.68-10.26l2.32-1.32c3.58 2.16 5.66 3.6 7.94 6.58a17.4 17.4 0 0 1-4.04 3.2zm7.84-9.86c-3.76-.5-6.04-1.6-9.72-3.68v-2.68c3.68-2.02 5.96-3.12 9.68-3.6 1 3.24 1.02 6.7.04 9.94zm8.58-13.68c-9.84-20.34-13.32-42.26-9.82-61.78 3.38-18.98 13-33.52 27.12-41.2-1.62.56-3.24 1.2-4.8 1.96-14.26 6.9-23.34 21.12-26.56 38.62-4.74.18-7.82.28-8.2.24-2-.12-3.48-3.88-6.7-3.74 0 0 1.08 2.96.54 3.36s-28.66 0-28.66 0-1.62 2.66 1.06 3.36c2.7.66 3.24 5.14 3.24 5.14L3.976 70.08h20.9v6.58s-8.3 0-10.46 2-2.72 3.72-2.72 3.72-7.16-2-8.88 0-4.6 22.04-1.42 23.2c3.14 1.14 3.14 1.46 3.6 2.38.48.94 1.04 5.98 5.3 6.1.66.02 6.56.12 16.04.28-.02-.14-.02-.32-.02-.46 0-13.18 10.72-23.9 23.88-23.9 7.2 0 13.64 3.22 18.02 8.26.76 1.82 1.56 3.62 2.44 5.42 10.82 22.38 27.6 39 45.34 47.12-16.44-9.28-31.24-25.24-40.92-45.3zm-47.34-10.48c-1.22 1.38-2.28 2.9-3.28 4.54l-.18-.06c1.84-7.56 9.36-13.52 17.14-13.56l.04.32c-5.32 1.62-10.12 4.56-13.74 8.78zm25.84-27.72h-30.76l14.76-19.8h20.64z" fill="#000"/>
  <path d="M195.734 102.6c-1.3 22.3-11.2 41.04-28.5 49.4-6.18 2.98-12.8 4.42-19.6 4.42-1.46 0-2.94-.06-4.42-.2-24.5-2.08-50.44-21.74-65.14-52.14-19.68-40.76-11.7-85.36 17.86-99.64 4.48-2.16 9.2-3.5 14.06-4.08 1.86-.22 3.74-.34 5.64-.34 25.72 0 53.88 20.16 69.46 52.36 1.86 3.86 3.48 7.76 4.84 11.66h-12.54a95 95 0 0 0-2.86-6.56c-6.72-13.9-16.18-25.62-27.36-33.92-10.24-7.6-21.42-11.8-31.52-11.8-1.42 0-2.86.08-4.24.26-3.64.44-7.12 1.42-10.34 2.98-10.82 5.24-18.28 16.38-20.96 31.4-2.94 16.4.1 35.08 8.54 52.58 12.32 25.46 34.64 43.78 55.56 45.56 1.18.1 2.32.16 3.42.16 5.16 0 10.04-1.1 14.48-3.24 6.5-3.14 11.78-8.42 15.52-15.38h-4.08c1.3-.64 3.9-3.08 6.86-6.18l15.32-17.26zm46.04 7.9c0 3.9-3.9 5.78-7.64 6.7-.38.1-2.84.14-6.98.14.16-1.12.24-2.28.24-3.44 0-13.18-10.72-23.9-23.88-23.9s-23.9 10.72-23.9 23.9c0 1.02.06 2 .18 2.98l-4.58-.06c-3.08 8.96-8.52 15.98-16.24 19.7-3.98 1.92-8.28 2.84-12.74 2.84-19.06 0-41.02-16.8-53.7-43.06-15.64-32.36-11.26-66.86 9.8-77.02 3.98-1.92 8.28-2.84 12.74-2.84 12.84 0 26.98 7.6 38.7 20.58h-.06c-.64-.18-6.6-1.9-13.28-3.38-5.94-1.32-12.44-2.44-16.22-2.14l5.02-4.94c-4.78-2.24-9.58-3.42-14.18-3.42-3.54 0-6.82.72-9.82 2.16-6.1 2.94-10.58 8.76-13.1 16.68 19.44-.6 39.46-1 42.82-.14 6.7 1.74 36.18 24.52 36.18 24.52 19.04 2.28 43 3.9 54.14 6.02 5.92 1.14 9.68 4.96 12.18 8.46l-7.66 1.18s2.36-2.48-3.86-2.22-10.4-.82-11.18 0c-.78.8-2.22 1.84 2.74 2.24s7.32.52 7.52 1.04-1.9 3.8-1.9 3.8h18.2c.14.18.28.32.42.4 1.88 1.2 0 19.28 0 23.18zM91.594 73.2l-.36-1.76c.12.58.22 1.18.36 1.76m8.9-5.92-4.66-19.8h-5.04a50 50 0 0 0-.44 2.86c-.68 5.38-.58 11.1.22 16.94zm12.74 0h43.08l-27.34-19.8h-20.4zm54.82 49.44c-16.96-.24-35.64-.54-54.02-.84 9.96 10.42 21.62 16.78 32.2 16.78 3.54 0 6.82-.72 9.82-2.16 5.42-2.62 9.42-7.48 11.98-13.78zm3.22-15.7c-.28 5.8-1.36 11.12-3.22 15.7 1.86-4.58 2.96-9.9 3.22-15.7m24.24-14.8-.04-.32c-7.78.06-15.3 6-17.14 13.56l.18.06c1-1.62 2.06-3.16 3.28-4.54 3.62-4.22 8.42-7.16 13.74-8.78zm27 17.16c6 10.5 2.38 23.88-8.12 29.88-7.46 4.26-16.36 3.64-23.04-.82.76-1.46 1.48-2.94 2.14-4.48 1.86 1.36 4 2.38 6.28 2.9 1.44-3.46 1.64-5.98 1.72-10.16l-2.32-1.34c-1.28.76-2.38 1.44-3.36 2.12 1.2-3.94 2.1-8.12 2.66-12.5l.9-11.18.26-4.58-7.68 8.64-.84.94-9.46 10.66c.28-7.3 4.18-14.3 10.98-18.2 10.5-6 23.88-2.38 29.88 8.12m-16.96 4.46 2.32 1.34c3.62-2.16 5.72-3.58 8.04-6.58a17.14 17.14 0 0 0-8.62-4.94c-1.44 3.46-1.64 5.98-1.72 10.16zm.54 4.94a2.98 2.98 0 0 0-4.06-1.1 2.98 2.98 0 0 0-1.1 4.06c.82 1.42 2.64 1.92 4.06 1.1s1.92-2.64 1.1-4.06m9.9 13.04c-2.28-2.98-4.36-4.42-7.94-6.58l-2.32 1.32c.06 4.22.24 6.74 1.68 10.24 1.56-.36 3.1-.96 4.56-1.8a17.4 17.4 0 0 0 4.04-3.2zm3.76-16.58c-3.72.48-6 1.56-9.66 3.6v2.68c3.66 2.06 5.94 3.16 9.7 3.68.98-3.24.96-6.7-.04-9.94z" fill="green"/>
</svg>
